STARTFONT 2.1
FONT -FreeType-TeX Gyre Adventor-Medium-R-Normal--42-400-75-75-P-268-ISO10646-1
SIZE 40 75 75
FONTBOUNDINGBOX 100 73 -34 -19
COMMENT "Generated by fontforge, http://fontforge.sourceforge.net"
COMMENT "Copyright 2007-2018 for TeX Gyre extensions by B. Jackowski, J.M. Nowacki, et al. (on behalf of TeX USERS GROUPS). Vietnamese characters were added by Han The Thanh."
STARTPROPERTIES 32
FOUNDRY "FreeType"
FAMILY_NAME "TeX Gyre Adventor"
WEIGHT_NAME "Medium"
SLANT "R"
SETWIDTH_NAME "Normal"
ADD_STYLE_NAME ""
PIXEL_SIZE 42
POINT_SIZE 400
RESOLUTION_X 75
RESOLUTION_Y 75
SPACING "P"
AVERAGE_WIDTH 268
CHARSET_REGISTRY "ISO10646"
CHARSET_ENCODING "1"
FONTNAME_REGISTRY ""
CHARSET_COLLECTIONS "ISO8859-2 ISO8859-9 ISO8859-4 ISO10646-1"
FONT_NAME "TeXGyreAdventorMedium"
FACE_NAME "TeX Gyre Adventor Medium"
COPYRIGHT "Copyright 2007-2018 for TeX Gyre extensions by B. Jackowski, J.M. Nowacki, et al. (on behalf of TeX USERS GROUPS). Vietnamese characters were added by Han The Thanh."
FONT_VERSION "001.000"
FONT_ASCENT 28
FONT_DESCENT 14
UNDERLINE_POSITION -4
UNDERLINE_THICKNESS 3
X_HEIGHT 23
CAP_HEIGHT 31
RAW_ASCENT 703
RAW_DESCENT 297
NORM_SPACE 11
FIGURE_WIDTH 24
AVG_LOWERCASE_WIDTH 236
AVG_UPPERCASE_WIDTH 278
ENDPROPERTIES
CHARS 1199
STARTCHAR $0020
ENCODING 32
SWIDTH 259 0
DWIDTH 11 0
BBX 0 0 0 0
BITMAP
ENDCHAR
STARTCHAR $0021
ENCODING 33
SWIDTH 296 0
DWIDTH 13 0
BBX 3 32 5 0
BITMAP
E0
E0
E0
E0
E0
E0
E0
E0
E0
E0
E0
E0
E0
E0
E0
E0
E0
E0
E0
E0
E0
E0
E0
E0
00
00
C0
E0
E0
E0
E0
C0
ENDCHAR
STARTCHAR $0022
ENCODING 34
SWIDTH 296 0
DWIDTH 13 0
BBX 6 9 3 26
BITMAP
84
84
84
84
84
84
84
84
84
ENDCHAR
STARTCHAR $0023
ENCODING 35
SWIDTH 555 0
DWIDTH 24 0
BBX 24 32 0 0
BITMAP
00C070
00C070
00C070
00C070
00C070
00C070
018060
038040
0380C0
1FFFFF
3FFFFF
7FFFFF
03E0C0
0380C0
0380C0
0300C0
070080
070780
FFFFFC
FFFFFC
FFFFFC
FFFFF8
060780
040780
1C0700
1C0F00
1C0F00
1C0F00
1C0F00
1C0F00
100700
100200
ENDCHAR
STARTCHAR $0024
ENCODING 36
SWIDTH 555 0
DWIDTH 24 0
BBX 17 35 3 1
BITMAP
008000
008000
008000
03C000
03F000
1FFC00
3E0E00
7C0700
7C0780
780780
780000
780000
780000
780000
7C0000
7E0000
0FE000
03F800
003E00
001F00
000F80
000780
000780
000780
000780
E00780
E00780
E00700
F00700
780F00
7FF800
3FF800
03F000
008000
008000
ENDCHAR
STARTCHAR $0025
ENCODING 37
SWIDTH 777 0
DWIDTH 33 0
BBX 32 32 0 0
BITMAP
07C00380
0FF80700
1FF80700
38180F00
700E0F00
E00E1C00
E00F3C00
E00F3C00
E00F7000
701E7000
3D7C7000
1FF87000
0FF0C000
0000C000
0000C000
0001C000
00018000
000783F8
000F3FFC
000F3FFC
000F7C3C
000E781F
001C700F
00187007
00387007
00707007
0070780F
00707C1C
00707E3C
00703FF8
00E007E0
00C007E0
ENDCHAR
STARTCHAR $0026
ENCODING 38
SWIDTH 740 0
DWIDTH 32 0
BBX 27 32 3 0
BITMAP
00F80000
07FF0000
07FF0000
1F870000
1C078000
1C038000
1C018000
1C008000
1C018000
0F078000
074F0080
07FE0380
07F80780
0FF00F00
1FF00F00
3FF00F00
7C7E3F00
FC1E3C00
F00FFC00
F00FFC00
E001F800
E000F000
E000F000
E000F000
E001FF00
E0018F80
E00F87C0
380F03E0
180F01E0
0FFF00E0
07F00060
03E00000
ENDCHAR
STARTCHAR $0027
ENCODING 39
SWIDTH 185 0
DWIDTH 8 0
BBX 1 9 3 26
BITMAP
80
80
80
80
80
80
80
80
80
ENDCHAR
STARTCHAR $0028
ENCODING 40
SWIDTH 370 0
DWIDTH 16 0
BBX 10 38 3 -5
BITMAP
00C0
01C0
03C0
07C0
0780
0780
1E00
1C00
7C00
7C00
7800
7800
7800
F000
E000
E000
E000
E000
E000
E000
E000
E000
F000
F000
F800
7800
7800
7800
7800
7800
1C00
1C00
0C00
0300
0380
0380
01C0
0040
ENDCHAR
STARTCHAR $0029
ENCODING 41
SWIDTH 370 0
DWIDTH 16 0
BBX 11 39 1 -6
BITMAP
E000
F800
F800
7C00
7C00
1C00
0700
0700
0780
0380
0380
0380
0380
03C0
03C0
01C0
00C0
00C0
00C0
00E0
00C0
00C0
00C0
00C0
03E0
0380
0380
0380
0380
0380
0700
0700
0F00
1C00
3800
7800
E000
8000
8000
ENDCHAR
STARTCHAR $002A
ENCODING 42
SWIDTH 444 0
DWIDTH 19 0
BBX 15 16 1 16
BITMAP
0380
0380
0380
E398
F3FE
FFFE
3FF0
1FF0
1FC0
FFF8
FFF8
FB98
0380
0380
0380
0180
ENDCHAR
STARTCHAR $002B
ENCODING 43
SWIDTH 703 0
DWIDTH 30 0
BBX 24 25 3 1
BITMAP
001800
001800
001800
001800
001800
003800
001800
003800
001800
003800
057C10
FFFFFC
FFFFFF
003F00
001E00
001C00
001800
001800
001800
003800
001800
001800
001800
001800
003800
ENDCHAR
STARTCHAR $002C
ENCODING 44
SWIDTH 259 0
DWIDTH 11 0
BBX 6 8 5 0
BITMAP
7C
78
78
78
70
E0
E0
E0
ENDCHAR
STARTCHAR $002D
ENCODING 45
SWIDTH 333 0
DWIDTH 14 0
BBX 10 3 1 11
BITMAP
FFC0
FFC0
FFC0
ENDCHAR
STARTCHAR $002E
ENCODING 46
SWIDTH 259 0
DWIDTH 11 0
BBX 3 5 5 1
BITMAP
E0
E0
E0
E0
E0
ENDCHAR
STARTCHAR $002F
ENCODING 47
SWIDTH 518 0
DWIDTH 22 0
BBX 15 34 3 -5
BITMAP
000E
001E
001C
0018
0018
0038
0070
0070
0070
0070
0060
00C0
00E0
03C0
03C0
03C0
0380
0380
0380
0780
0700
0700
0700
0700
1F00
1C00
1C00
1C00
1800
7800
7800
7800
7000
E000
ENDCHAR
STARTCHAR $0030
ENCODING 48
SWIDTH 555 0
DWIDTH 24 0
BBX 20 32 1 0
BITMAP
03F800
0FFF80
1FFFC0
3C07C0
7C01C0
7C01F0
E00070
E00070
E00070
E00070
E00070
E00070
E00070
E00070
E00070
E00070
E00070
E00070
E00070
E00070
E00070
E00070
E00070
E00070
E00070
7800F0
7C01E0
3C07C0
1C07C0
0FFF80
03FF00
01FE00
ENDCHAR
STARTCHAR $0031
ENCODING 49
SWIDTH 555 0
DWIDTH 24 0
BBX 9 32 6 0
BITMAP
FF80
FF80
FF80
0380
0380
0380
0380
0380
0380
0380
0380
0380
0380
0380
0380
0380
0380
0380
0380
0380
0380
0380
0380
0380
0380
0380
0380
0380
0380
0380
0380
0180
ENDCHAR
STARTCHAR $0032
ENCODING 50
SWIDTH 555 0
DWIDTH 24 0
BBX 20 32 1 0
BITMAP
03F800
0FFF80
1FFFC0
3C07C0
7C01C0
7C01C0
E000E0
E000F0
E00070
E00070
0000F0
0000F0
0001C0
000180
000380
000F80
000F80
001F00
007E00
007C00
00F800
00F000
01E000
03C000
070000
0C0000
7C0000
780000
780000
FFFFF0
FFFFF0
FFFFE0
ENDCHAR
STARTCHAR $0033
ENCODING 51
SWIDTH 555 0
DWIDTH 24 0
BBX 20 32 1 0
BITMAP
03F800
07FF00
07FF00
1C0F00
1C0780
7C0780
700780
300780
000780
000780
000780
000780
00FF00
00FF00
00FF00
007F00
000180
0001C0
0000C0
0000E0
000070
000070
C00070
E00060
E000C0
F800C0
FC01C0
3C0700
1C0700
0FFF00
03F800
01F800
ENDCHAR
STARTCHAR $0034
ENCODING 52
SWIDTH 555 0
DWIDTH 24 0
BBX 22 32 0 0
BITMAP
0001C0
0001C0
0003C0
0007C0
000FC0
000FC0
0019C0
0038C0
0078C0
0078C0
0068C0
00C0C0
03E0C0
0380C0
0380C0
0380C0
0700C0
1E00C0
3C00C0
7C00C0
7C00C0
7C01C0
FFFFFC
FFFFFC
FFFFFC
0000C0
0000C0
0000C0
0000C0
0000C0
0000C0
0000C0
ENDCHAR
STARTCHAR $0035
ENCODING 53
SWIDTH 555 0
DWIDTH 24 0
BBX 20 32 1 0
BITMAP
1FFFC0
1FFFC0
1FFFC0
1C0000
1C0000
1C0000
1C0000
1C0000
1C0000
78F800
7DFC00
7FFF80
7C07C0
7801C0
7801C0
6000E0
000070
000070
000070
000070
E00070
E00070
E00070
E00070
E00070
7800C0
7C01C0
3C07C0
1C07C0
0FFF80
03F800
01F800
ENDCHAR
STARTCHAR $0036
ENCODING 54
SWIDTH 555 0
DWIDTH 24 0
BBX 20 32 1 0
BITMAP
001800
007000
007000
00F000
00F000
00E000
018000
038000
030000
07F800
07FC00
1FFF80
7C07C0
7801C0
7801C0
E000E0
E00070
E00070
E00070
E00070
E00070
E00070
E00070
E00070
E00070
F800C0
FC01C0
3C07C0
1C07C0
0FFF80
03F800
01F800
ENDCHAR
STARTCHAR $0037
ENCODING 55
SWIDTH 555 0
DWIDTH 24 0
BBX 17 32 3 0
BITMAP
FFFF80
FFFF80
FFFF80
000780
000780
000F00
000F00
000F00
000F00
001E00
001C00
001800
003800
007000
007000
006000
00C000
00C000
018000
038000
038000
038000
078000
078000
070000
070000
0E0000
1C0000
1C0000
1C0000
700000
300000
ENDCHAR
STARTCHAR $0038
ENCODING 56
SWIDTH 555 0
DWIDTH 24 0
BBX 20 32 1 0
BITMAP
03F800
07FF00
07FF00
1C0700
1C0780
7C03C0
7801C0
7800C0
7800C0
7C01C0
3E0380
1F0780
0FFF00
0FFF00
1FFF00
3FFFC0
7C01C0
7C01C0
F00060
F00070
E00070
E00070
E00070
E00070
E00070
7800C0
7C01C0
3C07C0
1C07C0
0FFF80
03F800
01F800
ENDCHAR
STARTCHAR $0039
ENCODING 57
SWIDTH 555 0
DWIDTH 24 0
BBX 20 32 1 0
BITMAP
03F800
0FFF80
1FFFC0
3C07C0
7C01C0
7C01F0
E00070
E00070
E00070
E00070
E00070
E00070
E00070
E00070
E00070
F00070
7800C0
7C07C0
1FFFC0
1FFF80
03FF00
03FF00
003F00
001E00
003800
007000
007000
00F000
00F000
01C000
038000
018000
ENDCHAR
STARTCHAR $003A
ENCODING 58
SWIDTH 259 0
DWIDTH 11 0
BBX 3 20 5 4
BITMAP
E0
E0
E0
E0
E0
00
00
00
00
00
00
00
00
00
00
00
E0
E0
E0
C0
ENDCHAR
STARTCHAR $003B
ENCODING 59
SWIDTH 259 0
DWIDTH 11 0
BBX 6 24 1 -3
BITMAP
1C
1C
1C
1C
0C
00
00
00
00
00
00
00
00
00
00
00
1C
1C
3C
78
78
70
E0
E0
ENDCHAR
STARTCHAR $003C
ENCODING 60
SWIDTH 740 0
DWIDTH 32 0
BBX 25 29 3 -3
BITMAP
00000380
00001F80
00003F00
0001FF00
0001FF00
0007F800
001FC000
003F8000
00FE0000
03E00000
07C00000
1F800000
FC000000
F8000000
F8000000
FC000000
7F000000
3F800000
03F00000
01F00000
007E0000
001F0000
000FC000
000FC000
0000FC00
00007F00
00000F00
00000780
00000780
ENDCHAR
STARTCHAR $003D
ENCODING 61
SWIDTH 703 0
DWIDTH 30 0
BBX 24 12 3 6
BITMAP
FFFFFF
FFFFFF
FFFFFF
000000
000000
000000
000000
000000
000000
FFFFFF
FFFFFF
FFFFFF
ENDCHAR
STARTCHAR $003E
ENCODING 62
SWIDTH 740 0
DWIDTH 32 0
BBX 25 30 3 -4
BITMAP
E0000000
F8000000
FC000000
7F000000
7F000000
07C00000
00FC0000
00FE0000
007F8000
000FC000
0009F000
0000F800
00003F00
00001F80
00000F80
00000F00
00007F00
0007F000
000FC000
000FC000
001F0000
007E0000
01F00000
03F00000
3F800000
FC000000
FC000000
F0000000
F0000000
80000000
ENDCHAR
STARTCHAR $003F
ENCODING 63
SWIDTH 592 0
DWIDTH 25 0
BBX 18 32 3 0
BITMAP
07F800
0FFF00
1FFF00
380F00
700780
E001C0
E000C0
E000C0
E000C0
E000C0
0000C0
0001C0
0003C0
000780
000F80
001F80
003E00
007800
007000
007000
00F000
00C000
00C000
00C000
000000
000000
004000
00C000
00C000
00C000
00C000
00C000
ENDCHAR
STARTCHAR $0040
ENCODING 64
SWIDTH 851 0
DWIDTH 36 0
BBX 30 32 3 0
BITMAP
001FF000
00FE7F80
00FC3F80
07C003E0
0F8000E0
1C0000F8
180FE03C
180FF03C
781F731C
70383F04
60481F04
E0C00F04
80E03C04
83C03C04
83C03C04
83803C04
83803C1C
8380301C
E3807038
E3807038
6380F078
73C1F060
79FFF1C0
38FFF3C0
1C7E3E00
1C000040
1F8000C0
07C00180
07E00380
00FC3F00
003FF000
001FE000
ENDCHAR
STARTCHAR $0041
ENCODING 65
SWIDTH 740 0
DWIDTH 32 0
BBX 29 32 1 0
BITMAP
000F0000
001F8000
001F8000
001F8000
001F8000
0031C000
0070C000
0070C000
00F0C000
00E07000
00C07000
00C07000
03E03800
03803C00
03803C00
03803C00
07003F00
07FFFF00
0FFFFF00
0FFFFF00
1C000780
1C000380
1C000380
1C000180
780000C0
780000C0
F00000E0
E00000F8
E00000F8
E0000078
E0000060
C0000020
ENDCHAR
STARTCHAR $0042
ENCODING 66
SWIDTH 592 0
DWIDTH 25 0
BBX 20 32 3 0
BITMAP
FFF000
FFFF00
FFFF00
E00F00
E00780
E00780
E003C0
E001C0
E001C0
E00180
E00380
E00780
E00780
FFFF80
FFFF80
FFFF00
FFFF80
E007C0
E001C0
E000E0
E00070
E00070
E00070
E00070
E00070
E000C0
E001C0
E007C0
F007C0
FFFF80
FFF800
FFF800
ENDCHAR
STARTCHAR $0043
ENCODING 67
SWIDTH 814 0
DWIDTH 35 0
BBX 30 32 1 0
BITMAP
001FFC00
00FFFF80
00FFFF80
07C007F0
0FC003F8
1F8000FC
1E00003C
1C000038
7C000000
78000000
78000000
F8000000
F0000000
E0000000
E0000000
E0000000
E0000000
E0000000
78000000
78000000
78000000
7C000000
7C00000C
3E00001C
1F000038
07800060
03C003E0
03F00780
03F00780
00FFFF00
003FF800
001FF800
ENDCHAR
STARTCHAR $0044
ENCODING 68
SWIDTH 740 0
DWIDTH 32 0
BBX 26 32 3 0
BITMAP
FFFF0000
FFFFC000
FFFFC000
E001F800
E000FC00
E0003E00
E0001F00
E0000F00
E0000380
E0000380
E00003C0
E00003C0
E00000C0
E00000C0
E00000C0
E00000C0
E00000C0
E00000C0
E00000C0
E00001C0
E0000380
E0000380
E0000380
E0000300
E0000F00
E0003F00
E000FC00
E001F800
F001F800
FFFFC000
FFFF0000
FFFE0000
ENDCHAR
STARTCHAR $0045
ENCODING 69
SWIDTH 518 0
DWIDTH 22 0
BBX 17 32 3 0
BITMAP
FFFF80
FFFF80
FFFF80
E00000
E00000
E00000
E00000
E00000
E00000
E00000
E00000
E00000
E00000
FFFF00
FFFF00
FFFF80
FFFF80
E00000
E00000
E00000
E00000
E00000
E00000
E00000
E00000
E00000
E00000
E00000
F00000
FFFF80
FFFF80
FFFF00
ENDCHAR
STARTCHAR $0046
ENCODING 70
SWIDTH 481 0
DWIDTH 21 0
BBX 16 32 3 0
BITMAP
FFFF
FFFF
FFFE
E000
E000
E000
E000
E000
E000
E000
E000
E000
E000
FFFE
FFFE
FFFF
FFFF
E000
E000
E000
E000
E000
E000
E000
E000
E000
E000
E000
E000
E000
E000
C000
ENDCHAR
STARTCHAR $0047
ENCODING 71
SWIDTH 888 0
DWIDTH 38 0
BBX 33 32 1 0
BITMAP
000FFC0000
00FFFFC000
00FFFFE000
03C007F000
03C003F800
03C000FC00
1E00003E00
1C00003F00
7C00001F00
7C00000000
7800000000
7800000000
F000000000
E000000000
E000000000
E000000000
E000000000
E007FFFF80
F80FFFFF80
F80FFFFF80
7800000780
7C00000700
7C00000700
3C00000700
1E00000700
0780007C00
03C000FC00
03F001F000
03F003E000
00FFFFE000
0007F80000
0003F80000
ENDCHAR
STARTCHAR $0048
ENCODING 72
SWIDTH 666 0
DWIDTH 28 0
BBX 22 32 3 0
BITMAP
E0003C
E0003C
E0003C
E0003C
E0003C
E0003C
E0003C
E0003C
E0003C
E0003C
E0003C
E0003C
E0003C
FFFFFC
FFFFFC
FFFFFC
FFFFFC
E0003C
E0003C
E0003C
E0003C
E0003C
E0003C
E0003C
E0003C
E0003C
E0003C
E0003C
E0003C
E0003C
E00008
C00008
ENDCHAR
STARTCHAR $0049
ENCODING 73
SWIDTH 222 0
DWIDTH 10 0
BBX 3 32 3 0
BITMAP
E0
E0
E0
E0
E0
E0
E0
E0
E0
E0
E0
E0
E0
E0
E0
E0
E0
E0
E0
E0
E0
E0
E0
E0
E0
E0
E0
E0
E0
E0
E0
C0
ENDCHAR
STARTCHAR $004A
ENCODING 74
SWIDTH 481 0
DWIDTH 21 0
BBX 17 32 0 0
BITMAP
000780
000780
000780
000780
000780
000780
000780
000780
000780
000780
000780
000780
000780
000780
000780
000780
000780
000780
000780
000780
000780
000780
000780
000780
E00780
780F80
7C0F00
3C0E00
1C0E00
0FF800
07F000
03E000
ENDCHAR
STARTCHAR $004B
ENCODING 75
SWIDTH 592 0
DWIDTH 25 0
BBX 20 32 3 0
BITMAP
E00070
E000F0
E001F0
E003F0
E007C0
E00FC0
E00F00
E00F00
E01E00
E03800
E07800
E0F800
E3F000
E3E000
E3C000
E38000
F78000
FEC000
FC7000
FC7000
FC7800
F01E00
E00F00
E00F00
E00700
E00780
E003C0
E001E0
E001F0
E001F0
E00070
C00060
ENDCHAR
STARTCHAR $004C
ENCODING 76
SWIDTH 444 0
DWIDTH 19 0
BBX 16 32 3 0
BITMAP
E000
E000
E000
E000
E000
E000
E000
E000
E000
E000
E000
E000
E000
E000
E000
E000
E000
E000
E000
E000
E000
E000
E000
E000
E000
E000
E000
E000
F000
FFFE
FFFF
FFFE
ENDCHAR
STARTCHAR $004D
ENCODING 77
SWIDTH 925 0
DWIDTH 39 0
BBX 33 32 3 0
BITMAP
FC00003F80
FC00003F80
FC00003F80
FC00003F80
FC00003F80
E700007F80
E700007380
E700006380
E70000E380
E38000C380
E38001C380
E38003C380
E1E0038380
E0C0038380
E0C0038380
E060070380
E0700F0380
E0700F0380
E0703E0380
E0703C0380
E0183C0380
E0183C0380
E00C7C0380
E00E7C0380
E00F700380
E00F700380
E00FE00380
E00FC00380
E007C00380
E007C00380
E001800380
C001000100
ENDCHAR
STARTCHAR $004E
ENCODING 78
SWIDTH 740 0
DWIDTH 32 0
BBX 25 32 3 0
BITMAP
FC000380
FC000380
FC000380
FC000380
FC000380
E7000380
E7800380
E7800380
E3800380
E0C00380
E0E00380
E0F00380
E0700380
E0380380
E0180380
E01E0380
E01F0380
E00F8380
E0078380
E0038380
E001C380
E000C380
E000E380
E000F380
E0003380
E0003F80
E0003F80
E0001F80
E0000F80
E0000780
E0000380
C0000180
ENDCHAR
STARTCHAR $004F
ENCODING 79
SWIDTH 851 0
DWIDTH 36 0
BBX 33 32 1 0
BITMAP
000FFC0000
00FFFF8000
00FFFF8000
03C007F000
03C003F800
03C000FC00
1E00003E00
1C00003F00
7C00001F00
7C00000700
7800000700
7800000780
F000000380
E000000380
E000000380
E000000380
E000000380
E000000380
7800000380
7800000380
7800000780
7C00000700
7C00000F00
3E00001F00
1F00003F00
0780007C00
03C003FC00
03F007E000
03F007C000
00FFFF0000
003FF80000
001FF80000
ENDCHAR
STARTCHAR $0050
ENCODING 80
SWIDTH 592 0
DWIDTH 25 0
BBX 20 32 3 0
BITMAP
FFFF00
FFFFC0
FFFFC0
E001C0
E000C0
E00070
E00070
E00070
E00070
E00070
E00070
E00070
E00070
E000F0
E001E0
F00FC0
FFFF80
FFF800
F00000
F00000
E00000
E00000
E00000
E00000
E00000
E00000
E00000
E00000
E00000
E00000
E00000
C00000
ENDCHAR
STARTCHAR $0051
ENCODING 81
SWIDTH 888 0
DWIDTH 38 0
BBX 34 32 1 0
BITMAP
000FFF0000
00FFFFC000
00FFFFE000
03C007F000
03C003F800
03C000FC00
1F80003E00
1F00003F00
7E00001F80
7C00000780
7800000380
7800000380
F0000003C0
E0000003C0
E0000003C0
E0000001C0
E0000001C0
E0000001C0
E3FF800380
E7FF800380
7FFFF00380
7FFFF80780
78007E0780
3C003F0780
1E000F8700
078003FC00
03E001FC00
03F001FC00
03F803FC00
00FFFFFF80
003FF80380
001FF80100
ENDCHAR
STARTCHAR $0052
ENCODING 82
SWIDTH 592 0
DWIDTH 25 0
BBX 22 32 3 0
BITMAP
FFF800
FFFF80
FFFFC0
E007C0
E001C0
E00070
E00070
E00070
E0007C
E0003C
E0003C
E0007C
E00078
E00070
E00070
E00070
E001C0
E1FFC0
E0F000
E0F000
E07000
E01800
E01C00
E01E00
E03F00
E00F80
E00F80
E00380
E00180
E001C0
E000F0
C000E0
ENDCHAR
STARTCHAR $0053
ENCODING 83
SWIDTH 481 0
DWIDTH 21 0
BBX 18 32 1 0
BITMAP
07F000
0FFF00
1FFF00
3C0F00
7C0780
7C0780
E00380
E00180
E00000
F00000
7C0000
7C0000
1F8000
0FF800
0FF800
03FE00
007F00
000F80
0007C0
0003C0
0001C0
0000C0
C000C0
E000C0
E001C0
F80180
FC0F80
3C0F00
1C0F00
0FFF00
07F000
03E000
ENDCHAR
STARTCHAR $0054
ENCODING 84
SWIDTH 444 0
DWIDTH 19 0
BBX 17 32 0 0
BITMAP
FFFF80
FFFF80
FFFF80
00C000
00C000
00E000
00C000
00E000
00C000
00E000
00C000
00C000
00E000
00C000
00C000
00C000
00C000
00C000
00C000
00E000
00C000
00C000
00C000
00C000
00E000
00C000
00C000
00C000
00C000
00C000
00C000
00C000
ENDCHAR
STARTCHAR $0055
ENCODING 85
SWIDTH 666 0
DWIDTH 28 0
BBX 22 32 3 0
BITMAP
E0003C
E0003C
E0003C
E0003C
E0003C
E0003C
E0003C
E0003C
E0003C
E0003C
E0003C
E0003C
E0003C
E0003C
E0003C
E0003C
E0003C
E0003C
E0003C
E0003C
E0003C
E00038
F00070
F00070
F80070
780070
7C00E0
3C01C0
1C01C0
0FFF80
03FF00
01FE00
ENDCHAR
STARTCHAR $0056
ENCODING 86
SWIDTH 703 0
DWIDTH 30 0
BBX 29 32 0 0
BITMAP
F8000078
78000078
78000078
78000078
78000060
3C0000E0
1C0000C0
1C0000C0
07000380
07000380
07000380
07000780
03800F00
03800F00
03800F00
01C00E00
00C03C00
00C03C00
00C03C00
00E07C00
00707800
00707000
00707000
00706000
0038C000
001EC000
001FC000
000F8000
000F8000
000F8000
00078000
00030000
ENDCHAR
STARTCHAR $0057
ENCODING 87
SWIDTH 962 0
DWIDTH 41 0
BBX 39 32 0 0
BITMAP
E0003C000E
78003C000E
78003C000E
78007C000E
78007F000E
78007F000E
3C007F0038
1C007F0038
1C00CF0038
1C00C78038
1C00C38030
1C00C38070
0E01C38070
0701838070
0701838070
070383C070
070780C070
038780C1C0
038780C1C0
038780C1C0
03870061C0
038F007BC0
038F007B80
018F007B80
00EE007B80
00FE007B80
00F8003F80
0078003F00
0078003F00
0078003F00
0078003F00
0038001E00
ENDCHAR
STARTCHAR $0058
ENCODING 88
SWIDTH 592 0
DWIDTH 25 0
BBX 22 32 1 0
BITMAP
E0003C
78007C
78007C
7C0078
7C0070
1C00F0
0700E0
0700C0
078180
038780
03CF00
03EE00
01FC00
00F800
007800
007800
00FE00
00FE00
01FF00
03FF00
03C780
038780
0703C0
0701C0
1F00E0
1C0070
7C0078
78007C
78007C
F0003C
E00004
C00004
ENDCHAR
STARTCHAR $0059
ENCODING 89
SWIDTH 592 0
DWIDTH 25 0
BBX 25 32 0 0
BITMAP
F8000F80
78000F00
78000F00
7C000F00
7C003F00
3C003C00
1F003C00
1F007C00
07007000
0780F000
0380F000
0381F000
03E3C000
03C78000
01C78000
00EF8000
00FF0000
007F0000
003E0000
003C0000
00180000
00180000
00180000
00180000
00380000
00180000
00180000
00180000
00180000
00180000
00180000
00180000
ENDCHAR
STARTCHAR $005A
ENCODING 90
SWIDTH 481 0
DWIDTH 21 0
BBX 20 32 0 0
BITMAP
7FFFC0
7FFFC0
3FFFC0
0001C0
0001C0
0007C0
000780
000780
000F00
001F00
001E00
001E00
003800
007800
007000
006000
00C000
01C000
038000
038000
038000
078000
070000
070000
3C0000
7C0000
7C0000
780000
780000
FFFFF0
FFFFF0
FFFFE0
ENDCHAR
STARTCHAR $005B
ENCODING 91
SWIDTH 333 0
DWIDTH 14 0
BBX 9 41 3 -8
BITMAP
FF80
FF80
FF80
E000
E000
E000
E000
E000
E000
E000
E000
E000
E000
E000
E000
E000
E000
E000
E000
E000
E000
E000
E000
E000
E000
E000
E000
E000
E000
E000
E000
E000
E000
E000
E000
E000
E000
FF80
FF80
FF80
FF80
ENDCHAR
STARTCHAR $005C
ENCODING 92
SWIDTH 518 0
DWIDTH 22 0
BBX 15 34 3 -5
BITMAP
E000
F800
F800
7800
7800
7800
3C00
1C00
1C00
1C00
0E00
0F00
0700
0700
0700
0380
0380
0380
0380
0180
00C0
00C0
00C0
00C0
00E0
0070
0070
0070
0070
0018
0018
003C
001E
001E
ENDCHAR
STARTCHAR $005D
ENCODING 93
SWIDTH 333 0
DWIDTH 14 0
BBX 9 41 1 -8
BITMAP
FF80
FF80
FF80
0380
0380
0380
0380
0380
0380
0380
0380
0380
0380
0380
0380
0380
0380
0380
0380
0380
0380
0380
0380
0380
0380
0380
0380
0380
0380
0380
0380
0380
0380
0380
0380
0380
0380
FF80
FF80
FF80
FF80
ENDCHAR
STARTCHAR $005E
ENCODING 94
SWIDTH 592 0
DWIDTH 25 0
BBX 24 24 1 8
BITMAP
007800
00F800
00F800
00F800
00FE00
00FE00
018F00
038700
038780
030780
070780
0707C0
0C00C0
1C00C0
1C00C0
3C00E0
7C0070
7C0070
78003C
78003C
F0003C
E0003C
E0003E
E0003F
ENDCHAR
STARTCHAR $005F
ENCODING 95
SWIDTH 518 0
DWIDTH 22 0
BBX 20 3 0 -5
BITMAP
FFFFF0
FFFFF0
FFFFE0
ENDCHAR
STARTCHAR $0060
ENCODING 96
SWIDTH 370 0
DWIDTH 16 0
BBX 9 6 1 28
BITMAP
FC00
7C00
3E00
0F80
0780
0380
ENDCHAR
STARTCHAR $0061
ENCODING 97
SWIDTH 666 0
DWIDTH 28 0
BBX 25 24 1 0
BITMAP
00FF8380
07FFE380
07FFF380
1F80FF80
1C007F80
7C003F80
78001F80
78000F80
F8000F80
F0000780
E0000380
E0000380
E0000380
F0000780
F0000780
F8000F80
78000F80
7C001F80
1F003380
1F006380
0FFFC380
03FFC380
01FF8380
00FF8100
ENDCHAR
STARTCHAR $0062
ENCODING 98
SWIDTH 666 0
DWIDTH 28 0
BBX 24 32 3 0
BITMAP
E00000
E00000
E00000
E00000
E00000
E00000
E00000
E00000
E0FE00
E3FFC0
E749E0
FF00F0
F80038
F0003C
E0003E
E0001F
E0000F
E0000F
E0000F
E0000F
E0000F
E0000F
F0000F
F0001F
F8003E
F8003C
FF00F8
FF81F0
FF81E0
E7FFC0
E0FF00
C0FE00
ENDCHAR
STARTCHAR $0063
ENCODING 99
SWIDTH 629 0
DWIDTH 27 0
BBX 24 24 1 0
BITMAP
00FF80
07FFE0
07FFF0
1F80F8
1C007C
7C003E
78001F
78000F
F80000
F00000
E00000
E00000
E00000
F00000
F00000
F80000
78000F
7C001F
1F003E
1F007C
0FFFF8
03FFF0
01FF80
00FF80
ENDCHAR
STARTCHAR $0064
ENCODING 100
SWIDTH 703 0
DWIDTH 30 0
BBX 25 32 1 0
BITMAP
00000380
00000380
00000380
00000380
00000380
00000380
00000380
00000380
00FF8380
03FFF380
0748F380
1F007F80
7C003F80
78001F80
78000F80
F8000F80
F8000F80
E0000380
E0000380
E0000380
E0000380
F0000380
F8000380
F8000380
7C000F80
7C003F80
3F003F80
1F80F380
0F80E380
07FFC380
00FF8380
00FF0180
ENDCHAR
STARTCHAR $0065
ENCODING 101
SWIDTH 666 0
DWIDTH 28 0
BBX 24 24 1 0
BITMAP
00FF80
07FFE0
07FFF0
1F80F8
1C007C
7C003C
70001E
70000F
F0000F
FFFFFF
FFFFFF
FFFFFF
F00000
E00000
E00000
F00000
78000F
7C001C
1F0030
1F0060
0FFFC0
03FFC0
01FF00
00FE00
ENDCHAR
STARTCHAR $0066
ENCODING 102
SWIDTH 296 0
DWIDTH 13 0
BBX 12 32 0 0
BITMAP
0070
01F0
03F0
07C0
0780
0780
0F00
0F00
FFF0
FFF0
0F40
0F00
0700
0700
0700
0700
0700
0700
0700
0700
0700
0700
0700
0700
0700
0700
0700
0700
0700
0700
0700
0200
ENDCHAR
STARTCHAR $0067
ENCODING 103
SWIDTH 666 0
DWIDTH 28 0
BBX 24 33 1 -9
BITMAP
00FF8F
07FFCF
07FFDF
1F81FF
1C00FF
7C003F
70001F
70000F
F0000F
E0000F
E0000F
E0000F
E0000F
F0000F
F0000F
F8000F
78000F
7C001F
1F003F
1F007F
0FFFCF
03FFCF
01FF0F
00FE0F
78000F
78000F
3C001C
1C003C
1C003C
0FC078
07FFF0
03FFE0
001F80
ENDCHAR
STARTCHAR $0068
ENCODING 104
SWIDTH 592 0
DWIDTH 25 0
BBX 20 32 3 0
BITMAP
E00000
E00000
E00000
E00000
E00000
E00000
E00000
E00000
E1FC00
FFFF80
FF4F80
FC07C0
F800C0
F000C0
E000C0
E000E0
E00070
E00070
E00070
E00070
E00070
E00070
E00070
E00070
E00070
E00070
E00070
E00070
E00070
E00070
E00070
C00060
ENDCHAR
STARTCHAR $0069
ENCODING 105
SWIDTH 185 0
DWIDTH 8 0
BBX 3 32 3 0
BITMAP
E0
E0
E0
E0
E0
00
00
00
E0
E0
E0
E0
E0
E0
E0
E0
E0
E0
E0
E0
E0
E0
E0
E0
E0
E0
E0
E0
E0
E0
E0
C0
ENDCHAR
STARTCHAR $006A
ENCODING 106
SWIDTH 185 0
DWIDTH 8 0
BBX 8 39 -1 -6
BITMAP
07
07
07
07
04
00
00
00
03
07
07
07
07
07
07
07
07
07
07
07
07
07
07
07
07
07
07
07
07
07
07
07
0F
1C
1C
3C
F8
F0
E0
ENDCHAR
STARTCHAR $006B
ENCODING 107
SWIDTH 518 0
DWIDTH 22 0
BBX 17 32 3 0
BITMAP
E00000
E00000
E00000
E00000
E00000
E00000
E00000
E00000
E00F80
E01F00
E01E00
E01E00
E03800
E07000
E07000
E0E000
E3C000
E38000
E30000
E70000
FF8000
FFC000
FFF000
FFF000
F8F800
F07800
E03C00
E00E00
E00E00
E00E00
E00780
C00300
ENDCHAR
STARTCHAR $006C
ENCODING 108
SWIDTH 185 0
DWIDTH 8 0
BBX 3 32 3 0
BITMAP
E0
E0
E0
E0
E0
E0
E0
E0
E0
E0
E0
E0
E0
E0
E0
E0
E0
E0
E0
E0
E0
E0
E0
E0
E0
E0
E0
E0
E0
E0
E0
C0
ENDCHAR
STARTCHAR $006D
ENCODING 109
SWIDTH 925 0
DWIDTH 39 0
BBX 34 24 3 0
BITMAP
E7F00FF800
FFFF1FFE00
FFFF3FFF00
F80FF80F00
F007F00780
E007E00380
E003C00380
E001C00380
E001C001C0
E000C001C0
E000C001C0
E000C001C0
E000C001C0
E000C001C0
E000C001C0
E000C001C0
E000C001C0
E000C001C0
E000C001C0
E000C001C0
E000C001C0
E000C001C0
E000C001C0
E000C000C0
ENDCHAR
STARTCHAR $006E
ENCODING 110
SWIDTH 592 0
DWIDTH 25 0
BBX 20 24 3 0
BITMAP
E3F800
FFFF80
FFFFC0
FC07C0
FC01C0
FC01C0
E000C0
E000C0
E00070
E00070
E00070
E00070
E00070
E00070
E00070
E00070
E00070
E00070
E00070
E00070
E00070
E00070
E00070
E00020
ENDCHAR
STARTCHAR $006F
ENCODING 111
SWIDTH 666 0
DWIDTH 28 0
BBX 25 24 1 0
BITMAP
00FF8000
07FFE000
07FFF000
1F80F800
1C007C00
7C003E00
78001F00
78000F00
F8000F00
F0000F80
E0000780
E0000780
E0000700
F0000F00
F0000F00
F8000F00
78000F00
7C001C00
1F003C00
1F007C00
0FFFF800
03FFF000
01FF8000
00FF8000
ENDCHAR
STARTCHAR $0070
ENCODING 112
SWIDTH 666 0
DWIDTH 28 0
BBX 24 32 3 -8
BITMAP
E0FF00
E7FFC0
E7FFC0
FF81F0
FC00F8
FC0038
E0003E
E0003F
E0000F
E0000F
E0000F
E0000F
E0000F
E0000F
E0000F
E0000F
F0003F
F8003C
FF00F0
FF00E0
FFFFC0
E3FFC0
E1FF00
E0FE00
E00000
E00000
E00000
E00000
E00000
E00000
E00000
C00000
ENDCHAR
STARTCHAR $0071
ENCODING 113
SWIDTH 666 0
DWIDTH 28 0
BBX 25 32 1 -8
BITMAP
00FF8380
07FFE380
07FFF380
1F80FF80
1C007F80
7C003F80
78001F80
78000F80
F8000F80
F0000780
E0000380
E0000380
E0000380
F0000380
F0000380
F8000780
78000F80
7C001F80
1F003380
1F006380
0FFFC380
03FFC380
01FF8380
00FF8380
00000380
00000380
00000380
00000380
00000380
00000380
00000380
00000180
ENDCHAR
STARTCHAR $0072
ENCODING 114
SWIDTH 296 0
DWIDTH 13 0
BBX 9 24 3 0
BITMAP
E380
FF80
FF80
FC00
FC00
FC00
E000
E000
E000
E000
E000
E000
E000
E000
E000
E000
E000
E000
E000
E000
E000
E000
E000
E000
ENDCHAR
STARTCHAR $0073
ENCODING 115
SWIDTH 370 0
DWIDTH 16 0
BBX 16 24 0 0
BITMAP
07C0
0FF8
1FF8
3C18
7C18
7C38
7800
7800
7C00
1F80
07C0
03F0
0078
003E
001E
001F
F00F
780F
780E
380C
1FF8
0FF8
07E0
03C0
ENDCHAR
STARTCHAR $0074
ENCODING 116
SWIDTH 333 0
DWIDTH 14 0
BBX 13 32 0 0
BITMAP
0780
0780
0780
0780
0780
0780
0F80
0F80
FFF8
FFF8
0FC8
0F80
0780
0780
0780
0780
0780
0780
0780
0780
0780
0780
0780
0780
0780
0780
0780
0780
0780
0780
0780
0380
ENDCHAR
STARTCHAR $0075
ENCODING 117
SWIDTH 592 0
DWIDTH 25 0
BBX 20 24 3 0
BITMAP
E00070
E00070
E00070
E00070
E00070
E00070
E00070
E00070
E00070
E00070
E00070
E00070
E00070
E00070
E00070
E00070
F000F0
F800F0
7C01F0
3E03F0
1FFF70
0FFE70
07F070
03F020
ENDCHAR
STARTCHAR $0076
ENCODING 118
SWIDTH 555 0
DWIDTH 24 0
BBX 24 24 0 0
BITMAP
E0003F
78003E
78003C
78003C
780038
3C0038
1C0070
1C0060
1F00C0
0F00C0
0700C0
0701C0
0383C0
038780
038780
01CF80
00CF00
00CF00
00FF00
00FF00
007E00
007800
007800
007800
ENDCHAR
STARTCHAR $0077
ENCODING 119
SWIDTH 814 0
DWIDTH 35 0
BBX 34 24 0 0
BITMAP
E0000001C0
78000001C0
78000001C0
7800C00380
7800C00380
7C00F00380
3C07F00380
1C07F00780
1C07F00700
0F07B80700
0707380E00
07073C3C00
07073C3C00
070F1C3C00
038F0E3C00
038E0F3C00
038E0F7800
03F80F7800
00F8036000
00F8034000
00F803C000
00F003C000
007003C000
007001C000
ENDCHAR
STARTCHAR $0078
ENCODING 120
SWIDTH 481 0
DWIDTH 21 0
BBX 17 24 1 0
BITMAP
E00780
F80F80
F80F80
780E00
780E00
3C1800
1F7800
1F7800
077000
03E000
03C000
03C000
03E000
07F000
07F000
1F7000
1C7800
1C1800
3C0E00
780F00
F00F80
E00780
E00380
E00180
ENDCHAR
STARTCHAR $0079
ENCODING 121
SWIDTH 518 0
DWIDTH 22 0
BBX 22 32 0 -8
BITMAP
F8003C
78007C
78007C
780078
780070
3C0070
1C00E0
1C00C0
1F00C0
0F0180
070380
070780
038780
038F80
038F80
03CF00
03EF00
00F800
00F800
00F800
007800
007000
007000
007000
00F000
00E000
00C000
01C000
03C000
038000
038000
018000
ENDCHAR
STARTCHAR $007A
ENCODING 122
SWIDTH 407 0
DWIDTH 18 0
BBX 17 24 0 0
BITMAP
7FFF80
7FFF80
3FFF80
000E00
000E00
001800
007800
007800
007000
00E000
01C000
03C000
03E000
078000
078000
1F0000
1F0000
7E0000
7C0000
780000
FFFF80
FFFF80
FFFF80
FFFF80
ENDCHAR
STARTCHAR $007B
ENCODING 123
SWIDTH 370 0
DWIDTH 16 0
BBX 12 41 1 -8
BITMAP
0070
01F0
03F0
07C0
0780
0780
0700
0700
0700
0700
0700
0700
0700
0700
0700
0700
0700
1F00
FE00
FC00
FC00
FC00
0E00
0F00
0700
0700
0700
0700
0700
0700
0700
0700
0700
0700
0700
0780
03C0
03F0
03F0
00F0
00F0
ENDCHAR
STARTCHAR $007C
ENCODING 124
SWIDTH 222 0
DWIDTH 10 0
BBX 3 34 3 -5
BITMAP
E0
E0
E0
E0
E0
E0
E0
E0
E0
E0
E0
E0
E0
E0
E0
E0
E0
E0
E0
E0
E0
E0
E0
E0
E0
E0
E0
E0
E0
E0
E0
E0
E0
E0
ENDCHAR
STARTCHAR $007D
ENCODING 125
SWIDTH 370 0
DWIDTH 16 0
BBX 12 41 1 -8
BITMAP
E000
FC00
FE00
1F00
0F00
0700
0700
0700
0700
0700
0700
0700
0700
0700
0700
0700
0700
0780
03F0
03F0
03F0
03F0
0780
0780
0700
0700
0700
0700
0700
0700
0700
0700
0700
0700
0700
0700
1F00
FC00
FC00
E000
C000
ENDCHAR
STARTCHAR $007E
ENCODING 126
SWIDTH 592 0
DWIDTH 25 0
BBX 20 6 3 11
BITMAP
1F0070
FFF0F0
FFF1F0
E0FFF0
E0FFC0
803FC0
ENDCHAR
STARTCHAR $00A0
ENCODING 160
SWIDTH 259 0
DWIDTH 11 0
BBX 0 0 0 0
BITMAP
ENDCHAR
STARTCHAR $00A1
ENCODING 161
SWIDTH 296 0
DWIDTH 13 0
BBX 3 32 5 -8
BITMAP
E0
E0
E0
E0
E0
00
00
00
E0
E0
E0
E0
E0
E0
E0
E0
E0
E0
E0
E0
E0
E0
E0
E0
E0
E0
E0
E0
E0
E0
E0
C0
ENDCHAR
STARTCHAR $00A2
ENCODING 162
SWIDTH 555 0
DWIDTH 24 0
BBX 18 26 1 5
BITMAP
007000
007000
007000
00F800
03FE00
03FF80
1F83C0
1F01C0
7C01C0
780000
600000
E00000
E00000
E00000
E00000
F00000
F80000
7800C0
7C01C0
3E03C0
1FFF80
0FFF80
03FC00
01F800
007000
007000
ENDCHAR
STARTCHAR $00A3
ENCODING 163
SWIDTH 555 0
DWIDTH 24 0
BBX 25 32 0 0
BITMAP
007F8000
01FFE000
03FFF000
07C0F800
07807C00
07803C00
1E001E00
1C000F00
1C000F00
1C000000
1C000000
1C000000
1E000000
FFFFC000
FFFFC000
FFFFC000
FFFFC000
00C00000
00700000
00700000
00700380
00700380
00700380
00700380
00700380
00700F80
00701F00
00703E00
00F83C00
1FFFF800
1FFFC000
1FFFC000
ENDCHAR
STARTCHAR $00A4
ENCODING 164
SWIDTH 555 0
DWIDTH 24 0
BBX 20 22 1 2
BITMAP
63F840
FFFFE0
FFFFF0
7C07F0
7C01C0
7C01C0
E00060
E00070
E00070
E00070
E00070
E00070
E00070
E00070
E00070
F00070
7800C0
7C07C0
FFFFE0
FFFFE0
73FE40
03F840
ENDCHAR
STARTCHAR $00A5
ENCODING 165
SWIDTH 555 0
DWIDTH 24 0
BBX 25 32 0 0
BITMAP
E0000380
78000700
78000700
78000F00
78000F00
3C001C00
1C003000
1C003000
07007000
0380C000
0780F000
7F81FC00
7FE3FF00
03C78000
01C78000
006F8000
007F0000
007F0000
3FFFFF00
7FFFFF00
7FFFFF00
1FFFFF00
003C0000
00180000
00380000
00180000
00180000
00180000
00180000
00180000
00180000
00180000
ENDCHAR
STARTCHAR $00A6
ENCODING 166
SWIDTH 592 0
DWIDTH 25 0
BBX 3 36 11 -3
BITMAP
E0
E0
E0
E0
E0
E0
E0
E0
E0
E0
E0
E0
E0
00
00
00
00
00
00
00
00
00
C0
E0
E0
E0
E0
E0
E0
E0
E0
E0
E0
E0
E0
C0
ENDCHAR
STARTCHAR $00A7
ENCODING 167
SWIDTH 629 0
DWIDTH 27 0
BBX 18 37 3 -3
BITMAP
03F800
07FF00
07FF00
1C0F00
1C0780
1C0380
1C0000
1C0000
1C0000
1F0000
1F4000
1FE000
79F800
703F00
601F00
E01FC0
E001C0
E001C0
7800C0
3800C0
1F00C0
0F00C0
07F0C0
03F1C0
00FF80
003F80
000F80
000380
000180
7801C0
7800C0
7803C0
7C0780
1F0F80
0FFF00
0FFE00
007000
ENDCHAR
STARTCHAR $00A8
ENCODING 168
SWIDTH 370 0
DWIDTH 16 0
BBX 9 5 3 27
BITMAP
E380
E380
E380
E380
E380
ENDCHAR
STARTCHAR $00A9
ENCODING 169
SWIDTH 740 0
DWIDTH 32 0
BBX 30 30 1 2
BITMAP
007FC000
01803800
03803800
04000000
04000100
18000000
201FC040
603FC040
60FFFC20
83E00F38
83400038
87000018
87000000
87000004
87000004
87000004
87000004
87000018
83800F38
C1801E38
E0C03C38
E0F03820
607FF040
207FE0C0
180001C0
04000380
03801C00
03803800
03803800
001FC000
ENDCHAR
STARTCHAR $00AA
ENCODING 170
SWIDTH 370 0
DWIDTH 16 0
BBX 12 17 1 16
BITMAP
1F90
39F0
78F0
E070
E030
8030
8010
C030
E070
70F0
7DF0
7F90
0000
0000
0000
0000
FFF0
ENDCHAR
STARTCHAR $00AB
ENCODING 171
SWIDTH 407 0
DWIDTH 18 0
BBX 13 16 1 6
BITMAP
0718
0E18
1C18
3C18
7C70
7C70
E0E0
E0E0
F8C0
7870
3C70
1C70
1C38
0C18
0E18
0310
ENDCHAR
STARTCHAR $00AC
ENCODING 172
SWIDTH 740 0
DWIDTH 32 0
BBX 25 12 3 3
BITMAP
FFFFFF80
FFFFFF80
FFFFFF80
00000780
00000380
00000380
00000380
00000380
00000380
00000380
00000380
00000380
ENDCHAR
STARTCHAR $00AD
ENCODING 173
SWIDTH 333 0
DWIDTH 14 0
BBX 10 3 1 11
BITMAP
FFC0
FFC0
FFC0
ENDCHAR
STARTCHAR $00AE
ENCODING 174
SWIDTH 740 0
DWIDTH 32 0
BBX 30 30 1 2
BITMAP
007FC000
01803800
03803800
04000380
04000380
18000180
207F8040
60FF8040
6083F020
80807038
80803038
80803018
80803000
80807004
80807004
8081F004
808FC004
808F0018
80878038
C0838038
E081C038
E080C020
60806040
208020C0
180001C0
04000380
03801C00
03803800
03803800
001FC000
ENDCHAR
STARTCHAR $00AF
ENCODING 175
SWIDTH 481 0
DWIDTH 21 0
BBX 13 3 3 27
BITMAP
FFF8
FFF8
FFF8
ENDCHAR
STARTCHAR $00B0
ENCODING 176
SWIDTH 407 0
DWIDTH 18 0
BBX 12 13 1 21
BITMAP
0780
3FF0
7FF0
6070
6030
E030
E010
E030
6010
7030
3D40
1FC0
0300
ENDCHAR
STARTCHAR $00B1
ENCODING 177
SWIDTH 703 0
DWIDTH 30 0
BBX 24 32 3 -8
BITMAP
001800
001800
001800
001800
001800
003800
001800
003800
001800
003800
057C10
FFFFFC
FFFFFF
003F00
001E00
001C00
001800
001800
001800
003800
001800
001800
001800
001800
003800
000000
000000
000000
000000
FFFFFF
FFFFFC
FFFFFC
ENDCHAR
STARTCHAR $00B2
ENCODING 178
SWIDTH 333 0
DWIDTH 14 0
BBX 13 18 0 17
BITMAP
07C0
3FF0
7FF0
7810
7018
6038
0018
0038
0070
00F0
01E0
03C0
0700
0C00
1C00
3C00
7800
FFF8
ENDCHAR
STARTCHAR $00B3
ENCODING 179
SWIDTH 333 0
DWIDTH 14 0
BBX 13 18 0 17
BITMAP
0780
0FC0
1FE0
3870
3070
0070
01E0
03E0
03C0
0070
0038
0018
E038
6018
6010
7030
7870
3FC0
ENDCHAR
STARTCHAR $00B4
ENCODING 180
SWIDTH 370 0
DWIDTH 16 0
BBX 9 6 5 28
BITMAP
0780
0F00
1F00
F800
F000
E000
ENDCHAR
STARTCHAR $00B5
ENCODING 181
SWIDTH 592 0
DWIDTH 25 0
BBX 20 30 3 -4
BITMAP
E00070
E00070
E00070
E00070
E00070
E00070
E00070
E00070
E00070
E00070
E00070
E00070
E00070
E00070
E00070
F000F0
F800F0
F807F0
FC0FF0
FE0FF0
FFFF70
E3FE70
E3F070
E1F020
E00000
E00000
E00000
E00000
E00000
E00000
ENDCHAR
STARTCHAR $00B6
ENCODING 182
SWIDTH 555 0
DWIDTH 24 0
BBX 18 37 1 -3
BITMAP
07FFC0
3FFFC0
7FFFC0
7FC1C0
7FC0C0
FFE0C0
FFC0C0
FFE0C0
FFC0C0
FFE0C0
7FC0C0
7FC0C0
7FE0C0
1FC0C0
1FC0C0
0FC0C0
00C0C0
00C0C0
00C0C0
00E0C0
00C0C0
00C0C0
00C0C0
00C0C0
00E0C0
00C0C0
00C0C0
00C0C0
00C0C0
00C0C0
00C0C0
00E0C0
00C0C0
00C0C0
00C0C0
00C0C0
0040C0
ENDCHAR
STARTCHAR $00B7
ENCODING 183
SWIDTH 222 0
DWIDTH 10 0
BBX 3 5 3 9
BITMAP
E0
E0
E0
E0
E0
ENDCHAR
STARTCHAR $00B8
ENCODING 184
SWIDTH 333 0
DWIDTH 14 0
BBX 9 9 3 -7
BITMAP
1C00
3E00
7F00
7F00
7F00
0380
C380
E380
7F00
ENDCHAR
STARTCHAR $00B9
ENCODING 185
SWIDTH 333 0
DWIDTH 14 0
BBX 5 18 5 17
BITMAP
F8
38
18
18
18
18
18
18
18
18
18
18
18
18
18
18
18
18
ENDCHAR
STARTCHAR $00BA
ENCODING 186
SWIDTH 370 0
DWIDTH 16 0
BBX 12 17 1 16
BITMAP
1F80
39C0
78E0
E070
E030
8030
8010
C030
E070
70E0
3DC0
1F80
0000
0000
0000
0000
FFF0
ENDCHAR
STARTCHAR $00BB
ENCODING 187
SWIDTH 407 0
DWIDTH 18 0
BBX 13 16 1 6
BITMAP
E0C0
78C0
78E0
7870
7878
3C78
1F38
1F38
1E18
1C38
3C38
7870
78F0
F0E0
E0C0
C040
ENDCHAR
STARTCHAR $00BC
ENCODING 188
SWIDTH 814 0
DWIDTH 35 0
BBX 29 32 5 0
BITMAP
F8003000
38007000
18007000
18007000
18004000
1800C000
1800C000
18008000
18018000
18070000
18070000
18060000
180C00F0
180800F8
180800F8
181801F8
181803F8
18180FF8
00700E78
00701C78
00703C78
00403878
00C07078
00C06078
0080C078
0380C078
0380FFF8
03007FF8
07007FF8
06000078
04000060
00000020
ENDCHAR
STARTCHAR $00BD
ENCODING 189
SWIDTH 814 0
DWIDTH 35 0
BBX 30 32 5 0
BITMAP
F8003000
38007000
18007000
18007000
18004000
1800C000
1800C000
18008000
18018000
18070000
18070000
18060000
180C3FF0
18087878
1808787C
1810707C
1830703C
1870603C
0070003C
0070003C
00400078
00400060
00C000C0
00C000C0
00800300
03800F00
03801C00
03003800
07003800
06007800
04007FF8
00007FF0
ENDCHAR
STARTCHAR $00BE
ENCODING 190
SWIDTH 814 0
DWIDTH 35 0
BBX 33 32 0 0
BITMAP
078000C000
0FC0008000
1FE0008000
3870038000
3070038000
0070038000
01E0030000
03E0030000
03C00F0000
00700C0000
00380C0000
00180C0000
E038380700
6018700780
6010700780
7030701F80
7870403F80
3FC0C07F80
0000C06380
0000804380
000180C380
000780C380
0007018380
0007030380
00070F0380
000F0F0380
000E0FFF80
000807FF80
000807FF80
0018000380
0010000380
0000000100
ENDCHAR
STARTCHAR $00BF
ENCODING 191
SWIDTH 592 0
DWIDTH 25 0
BBX 18 33 3 -9
BITMAP
00C000
00C000
00C000
00C000
00C000
000000
000000
000000
00C000
00E000
01C000
03C000
03E000
078000
078000
1F0000
1F0000
7E0000
FC0000
F80000
F00000
E00000
E000C0
E000C0
E000C0
E000C0
E001C0
F807C0
F807C0
7C0F80
1FFF00
1FFE00
03F000
ENDCHAR
STARTCHAR $00C0
ENCODING 192
SWIDTH 740 0
DWIDTH 32 0
BBX 29 39 1 5
BITMAP
00F00000
00780000
00780000
000F0000
00078000
00030000
00000000
00000000
000E0000
001F8000
001F8000
001F8000
0038C000
0070C000
0070C000
0070C000
00F0C000
00C07000
00C07000
01E07000
03C03800
03803C00
03803C00
03803E00
07003F00
07FFFF00
0FFFFF00
1FFFFF00
1FFFFF00
1E000380
1C000380
3C0001C0
780000C0
780000E0
E00000E0
E00000F0
E0000078
E0000078
E0000030
ENDCHAR
STARTCHAR $00C1
ENCODING 193
SWIDTH 740 0
DWIDTH 32 0
BBX 29 39 1 5
BITMAP
0001F000
0001E000
0003C000
001E0000
000E0000
00000000
00000000
00000000
000E0000
001F8000
001F8000
001F8000
0038C000
0070C000
0070C000
0070C000
00F0C000
00C07000
00C07000
01E07000
03C03800
03803C00
03803C00
03803E00
07003F00
07FFFF00
0FFFFF00
1FFFFF00
1FFFFF00
1E000380
1C000380
3C0001C0
780000C0
780000E0
E00000E0
E00000F0
E0000078
E0000078
E0000030
ENDCHAR
STARTCHAR $00C2
ENCODING 194
SWIDTH 740 0
DWIDTH 32 0
BBX 29 39 1 3
BITMAP
000F0000
001F8000
001FC000
0019C000
0070C000
01E07800
00000000
00000000
000E0000
001F8000
001F8000
001F8000
0038C000
0070C000
0070C000
0070C000
00F0C000
00C07000
00C07000
01E07000
03C03800
03803C00
03803C00
03803E00
07003F00
07FFFF00
0FFFFF00
1FFFFF00
1FFFFF00
1E000380
1C000380
3C0001C0
780000C0
780000E0
E00000E0
E00000F0
E0000078
E0000078
E0000030
ENDCHAR
STARTCHAR $00C3
ENCODING 195
SWIDTH 740 0
DWIDTH 32 0
BBX 29 39 1 3
BITMAP
00100000
00F84000
00F84000
00C7F000
00C1F000
0001C000
00000000
00000000
000E0000
001F8000
001F8000
001F8000
0038C000
0070C000
0070C000
0070C000
00F0C000
00C07000
00C07000
01E07000
03C03800
03803C00
03803C00
03803E00
07003F00
07FFFF00
0FFFFF00
1FFFFF00
1FFFFF00
1E000380
1C000380
3C0001C0
780000C0
780000E0
E00000E0
E00000F0
E0000078
E0000078
E0000030
ENDCHAR
STARTCHAR $00C4
ENCODING 196
SWIDTH 740 0
DWIDTH 32 0
BBX 29 39 1 3
BITMAP
0070C000
0070C000
0070C000
0070C000
0030C000
00000000
00000000
00000000
000E0000
001F8000
001F8000
001F8000
0038C000
0070C000
0070C000
0070C000
00F0C000
00C07000
00C07000
01E07000
03C03800
03803C00
03803C00
03803E00
07003F00
07FFFF00
0FFFFF00
1FFFFF00
1FFFFF00
1E000380
1C000380
3C0001C0
780000C0
780000E0
E00000E0
E00000F0
E0000078
E0000078
E0000030
ENDCHAR
STARTCHAR $00C5
ENCODING 197
SWIDTH 740 0
DWIDTH 32 0
BBX 29 42 1 0
BITMAP
000F8000
00108000
0010C000
0010C000
0070C000
0070C000
0030C000
00388000
001F8000
00000000
00000000
00070000
000F8000
001F8000
001F8000
003FC000
0070C000
0070C000
00F0C000
00F0E000
00F07000
00C07000
00C07000
00C03000
03803C00
03803C00
03803E00
07803F00
07803F00
0FFFFF00
1FFFFF00
1FFFFF80
1C000380
1C000380
380000C0
780000C0
F80000E0
F00000E0
E00000F8
E00000F8
E0000078
E0000078
ENDCHAR
STARTCHAR $00C6
ENCODING 198
SWIDTH 1000 0
DWIDTH 42 0
BBX 37 32 1 0
BITMAP
00000FFFF8
00001FFFF8
00003FFFF0
00007FC000
00007F8000
00007F8000
0000E38000
0000C38000
0001C38000
0007838000
0007838000
0007838000
000E038000
001E03FFF8
001E03FFF8
003C03FFF8
007803FFF8
00F8038000
01FFFF8000
03FFFF8000
03FFFF8000
03FFFF8000
0780038000
0780038000
1F00038000
1C00038000
7C00038000
7C0003C000
780003C000
F00003FFF0
E00003FFF8
C00001FFF0
ENDCHAR
STARTCHAR $00C7
ENCODING 199
SWIDTH 814 0
DWIDTH 35 0
BBX 30 41 1 -8
BITMAP
001FFC00
00FFFF80
00FFFF80
07C007F0
0FC003F8
1F8000FC
1E00003C
1C000038
7C000000
78000000
78000000
F8000000
F0000000
E0000000
E0000000
E0000000
E0000000
E0000000
78000000
78000000
78000000
7C000000
7C000000
3C000000
1E00003C
1F00007C
1FC003FC
07F007E0
07F007C0
00FFFF00
003FFC00
001FFC00
00018000
0003F000
0007FC00
0007FC00
00003C00
00063C00
00063800
0003F000
0001E000
ENDCHAR
STARTCHAR $00C8
ENCODING 200
SWIDTH 518 0
DWIDTH 22 0
BBX 17 41 3 2
BITMAP
1C0000
1C0000
1E0000
1F8000
0FC000
03E000
006000
004000
000000
FFFF80
FFFF80
FFFF80
F00000
E00000
E00000
E00000
E00000
E00000
E00000
E00000
E00000
E00000
F00000
F00000
FFFF80
FFFF80
F00000
E00000
E00000
E00000
E00000
E00000
E00000
E00000
E00000
E00000
E00000
FFFF80
FFFF80
FFFF80
FFFF80
ENDCHAR
STARTCHAR $00C9
ENCODING 201
SWIDTH 518 0
DWIDTH 22 0
BBX 17 41 3 2
BITMAP
000800
001800
003800
007800
03F800
03E000
038000
030000
000000
FFFF80
FFFF80
FFFF80
F00000
E00000
E00000
E00000
E00000
E00000
E00000
E00000
E00000
E00000
F00000
F00000
FFFF80
FFFF80
F00000
E00000
E00000
E00000
E00000
E00000
E00000
E00000
E00000
E00000
E00000
FFFF80
FFFF80
FFFF80
FFFF80
ENDCHAR
STARTCHAR $00CA
ENCODING 202
SWIDTH 518 0
DWIDTH 22 0
BBX 17 39 3 3
BITMAP
03C000
07F000
07F000
1F9800
1C0E00
7C0E00
000000
000000
FFFF80
FFFF80
E54800
E00000
E00000
E00000
E00000
E00000
E00000
E00000
E00000
E00000
E00000
F00000
FFFF80
FFFF80
FFFF80
F00000
E00000
E00000
E00000
E00000
E00000
E00000
E00000
E00000
E00000
E00000
FFFF80
FFFF80
FFFF00
ENDCHAR
STARTCHAR $00CB
ENCODING 203
SWIDTH 518 0
DWIDTH 22 0
BBX 17 39 3 3
BITMAP
1F7000
1F7000
1F7000
1F7000
0C3000
000000
000000
000000
FFFF80
FFFF80
E54800
E00000
E00000
E00000
E00000
E00000
E00000
E00000
E00000
E00000
E00000
F00000
FFFF80
FFFF80
FFFF80
F00000
E00000
E00000
E00000
E00000
E00000
E00000
E00000
E00000
E00000
E00000
FFFF80
FFFF80
FFFF00
ENDCHAR
STARTCHAR $00CC
ENCODING 204
SWIDTH 222 0
DWIDTH 10 0
BBX 9 39 -1 5
BITMAP
FC00
7C00
3E00
1F80
0F80
0380
0000
0000
0300
0700
0700
0700
0700
0700
0700
0700
0700
0700
0700
0700
0700
0700
0700
0700
0700
0700
0700
0700
0700
0700
0700
0700
0700
0700
0700
0700
0700
0700
0700
ENDCHAR
STARTCHAR $00CD
ENCODING 205
SWIDTH 222 0
DWIDTH 10 0
BBX 9 39 1 5
BITMAP
0780
0F00
1F00
FC00
FC00
E000
0000
0000
7800
7800
7800
7800
7800
7800
7800
7800
7800
7800
7800
7800
7800
7800
7800
7800
7800
7800
7800
7800
7800
7800
7800
7800
7800
7800
7800
7800
7800
7800
3000
ENDCHAR
STARTCHAR $00CE
ENCODING 206
SWIDTH 222 0
DWIDTH 10 0
BBX 15 39 -3 3
BITMAP
0380
07C0
07E0
1C78
1C3E
FC3E
0000
0000
0180
0380
0380
0380
0380
0380
0380
0380
0380
0380
0380
0380
0380
0380
0380
0380
0380
0380
0380
0380
0380
0380
0380
0380
0380
0380
0380
0380
0380
0380
0380
ENDCHAR
STARTCHAR $00CF
ENCODING 207
SWIDTH 222 0
DWIDTH 10 0
BBX 9 39 0 3
BITMAP
E380
E380
E380
E380
E380
0000
0000
0000
0C00
1C00
1C00
1C00
1C00
1C00
1C00
1C00
1C00
1C00
1C00
1C00
1C00
1C00
1C00
1C00
1C00
1C00
1C00
1C00
1C00
1C00
1C00
1C00
1C00
1C00
1C00
1C00
1C00
1C00
1C00
ENDCHAR
STARTCHAR $00D0
ENCODING 208
SWIDTH 777 0
DWIDTH 33 0
BBX 30 32 1 0
BITMAP
1FFFC000
1FFFF800
1FFFF800
1C003F80
1C003F80
1C0007C0
1C0001F8
1C0000F8
1C000078
1C000078
1C000038
1C00003C
1E00003C
FFFE003C
FFFE003C
FFFF003C
FFFF003C
3E00003C
1C00003C
1C00003C
1C00007C
1C000078
1C000078
1C0000F8
1C0001F8
1C0003C0
1C001F80
1C003F80
1C003F80
1FFFF800
1FFFC000
1FFFC000
ENDCHAR
STARTCHAR $00D1
ENCODING 209
SWIDTH 740 0
DWIDTH 32 0
BBX 25 39 3 3
BITMAP
00400000
01F00000
03F1C000
03CFC000
0387C000
00030000
00000000
00000000
F8000380
FC000380
FC000380
FC000380
FE000380
E7000380
E7800380
E3800380
E3800380
E0C00380
E0F00380
E0F00380
E0700380
E0180380
E01C0380
E01E0380
E03F0380
E00F8380
E00F8380
E0038380
E0018380
E001C380
E000F380
E000FF80
E0007F80
E0003F80
E0003F80
E0001F80
E0000780
E0000780
E0000380
ENDCHAR
STARTCHAR $00D2
ENCODING 210
SWIDTH 851 0
DWIDTH 36 0
BBX 33 39 1 3
BITMAP
0018000000
001F800000
001FC00000
0007C00000
0001C00000
0001C00000
0000000000
0000000000
000FFC0000
00FFFF8000
01E817C000
03C007E000
07E000F800
0C00007C00
1C00007C00
3C00001F00
7C00001F00
7C00000780
7800000380
7800000380
F000000380
E000000380
E000000380
E000000380
E000000380
E000000380
E000000380
7800000380
7800000780
7800000700
7C00001F00
3E00001F00
0F00003E00
0380007C00
03C001F800
01E003F800
007FFF0000
001FFC0000
003FF80000
ENDCHAR
STARTCHAR $00D3
ENCODING 211
SWIDTH 851 0
DWIDTH 36 0
BBX 33 39 1 3
BITMAP
00000C0000
00007C0000
00007C0000
0003F80000
0003F00000
0003C00000
0000000000
0000000000
000FFC0000
00FFFF8000
01E817C000
03C007E000
07E000F800
0C00007C00
1C00007C00
3C00001F00
7C00001F00
7C00000780
7800000380
7800000380
F000000380
E000000380
E000000380
E000000380
E000000380
E000000380
E000000380
7800000380
7800000780
7800000700
7C00001F00
3E00001F00
0F00003E00
0380007C00
03C001F800
01E003F800
007FFF0000
001FFC0000
003FF80000
ENDCHAR
STARTCHAR $00D4
ENCODING 212
SWIDTH 851 0
DWIDTH 36 0
BBX 33 37 1 4
BITMAP
0007F00000
000FF80000
000E380000
001C3C0000
00083F0000
0000000000
000FFC0000
000FFE0000
00FFFF8000
03E007E000
03C000F000
0780007800
0C00001C00
1C00001E00
3C00001F00
7C00000F00
7800000780
7800000780
F000000380
F000000380
E000000380
E000000380
E000000380
E000000380
E000000380
7800000380
7800000380
7800000700
7800000700
7C00000F00
1F00001F00
1FC0003E00
03C0007800
01C003E000
00FFFF8000
007FFF0000
001FF80000
ENDCHAR
STARTCHAR $00D5
ENCODING 213
SWIDTH 851 0
DWIDTH 36 0
BBX 33 37 1 4
BITMAP
000F8C0000
001FFC0000
001FFC0000
0000380000
0000300000
0000000000
000FFC0000
000FFE0000
00FFFF8000
03E007E000
03C000F000
0780007800
0C00001C00
1C00001E00
3C00001F00
7C00000F00
7800000780
7800000780
F000000380
F000000380
E000000380
E000000380
E000000380
E000000380
E000000380
7800000380
7800000380
7800000700
7800000700
7C00000F00
1F00001F00
1FC0003E00
03C0007800
01C003E000
00FFFF8000
007FFF0000
001FF80000
ENDCHAR
STARTCHAR $00D6
ENCODING 214
SWIDTH 851 0
DWIDTH 36 0
BBX 33 37 1 4
BITMAP
000F3C0000
000F3C0000
000F3C0000
000E3C0000
0006380000
0000000000
000FFC0000
000FFE0000
00FFFF8000
03E007E000
03C000F000
0780007800
0C00001C00
1C00001E00
3C00001F00
7C00000F00
7800000780
7800000780
F000000380
F000000380
E000000380
E000000380
E000000380
E000000380
E000000380
7800000380
7800000380
7800000700
7800000700
7C00000F00
1F00001F00
1FC0003E00
03C0007800
01C003E000
00FFFF8000
007FFF0000
001FF80000
ENDCHAR
STARTCHAR $00D7
ENCODING 215
SWIDTH 592 0
DWIDTH 25 0
BBX 18 18 3 6
BITMAP
600000
F800C0
F801C0
7C0380
7C0780
1F0F00
079800
07B800
03F000
00F000
01F800
03F800
073F00
0C0F00
1C0F00
3C0FC0
7801C0
6001C0
ENDCHAR
STARTCHAR $00D8
ENCODING 216
SWIDTH 851 0
DWIDTH 36 0
BBX 33 37 1 0
BITMAP
0000000400
0000000600
0000000600
001FF81C00
001FFC3800
007FFFF800
01E003F800
03C001F800
038000FC00
0C0003BE00
0C00039F00
7C00071F00
78003F0700
78003E0780
78003C0380
E000380380
E000700380
E000E00380
E001C00380
E003C00380
E007800380
F00F800380
780F000380
780E000380
7C38000780
7C70001F00
3C70001F00
1FF0007C00
0FF0007C00
07C000F800
03C007E000
07FFFFE000
0FFFFF8000
1F1FFC0000
3C00000000
3C00000000
1800000000
ENDCHAR
STARTCHAR $00D9
ENCODING 217
SWIDTH 666 0
DWIDTH 28 0
BBX 22 39 3 5
BITMAP
038000
03C000
01E000
00F800
00F800
003000
000000
000000
E0003C
E0003C
E0003C
E0003C
E0003C
E0003C
E0003C
E0003C
E0003C
E0003C
E0003C
E0003C
E0003C
E0003C
E0003C
E0003C
E0003C
E0003C
E0003C
E0003C
E0003C
E00038
E00070
F80070
F80070
7C0070
7C00C0
3E01C0
1FFF80
03FF00
03FE00
ENDCHAR
STARTCHAR $00DA
ENCODING 218
SWIDTH 666 0
DWIDTH 28 0
BBX 22 39 3 5
BITMAP
000F80
007F00
007E00
00F800
00F000
00E000
000000
000000
E0003C
E0003C
E0003C
E0003C
E0003C
E0003C
E0003C
E0003C
E0003C
E0003C
E0003C
E0003C
E0003C
E0003C
E0003C
E0003C
E0003C
E0003C
E0003C
E0003C
E0003C
E00038
E00070
F80070
F80070
7C0070
7C00C0
3E01C0
1FFF80
03FF00
03FE00
ENDCHAR
STARTCHAR $00DB
ENCODING 219
SWIDTH 666 0
DWIDTH 28 0
BBX 22 39 3 3
BITMAP
007000
00F800
00F800
07CE00
0F8700
0F8380
000000
000000
E0003C
E0003C
E0003C
E0003C
E0003C
E0003C
E0003C
E0003C
E0003C
E0003C
E0003C
E0003C
E0003C
E0003C
E0003C
E0003C
E0003C
E0003C
E0003C
E0003C
E0003C
E00038
E00070
F80070
F80070
7C0070
7C00C0
3E01C0
1FFF80
03FF00
03FE00
ENDCHAR
STARTCHAR $00DC
ENCODING 220
SWIDTH 666 0
DWIDTH 28 0
BBX 22 39 3 3
BITMAP
038F00
038F00
038F00
038E00
038600
000000
000000
000000
E0003C
E0003C
E0003C
E0003C
E0003C
E0003C
E0003C
E0003C
E0003C
E0003C
E0003C
E0003C
E0003C
E0003C
E0003C
E0003C
E0003C
E0003C
E0003C
E0003C
E0003C
E00038
E00070
F80070
F80070
7C0070
7C00C0
3E01C0
1FFF80
03FF00
03FE00
ENDCHAR
STARTCHAR $00DD
ENCODING 221
SWIDTH 592 0
DWIDTH 25 0
BBX 25 39 0 5
BITMAP
0007C000
000F8000
000F8000
001C0000
00780000
00700000
00000000
00000000
F8000F80
78000F00
7C000F00
7C000F00
1C003C00
1C007C00
1E007C00
0F007800
07007000
0780F000
0380C000
0380C000
03C18000
03C78000
01F78000
00F78000
00FF0000
007F0000
003E0000
00180000
00180000
00180000
00180000
00380000
00180000
00180000
00180000
00180000
00180000
00180000
00380000
ENDCHAR
STARTCHAR $00DE
ENCODING 222
SWIDTH 592 0
DWIDTH 25 0
BBX 20 32 3 0
BITMAP
E00000
E00000
E00000
E00000
E00000
E00000
FFFE00
FFFF00
FFFFC0
F001C0
E000E0
E00070
E00070
E00070
E00070
E00070
E00070
E00070
E00070
E00060
E001C0
F007C0
FFFF80
FFFF80
FFF800
F00000
E00000
E00000
E00000
E00000
E00000
C00000
ENDCHAR
STARTCHAR $00DF
ENCODING 223
SWIDTH 555 0
DWIDTH 24 0
BBX 18 32 3 0
BITMAP
07F000
3FF800
7FF800
781E00
700F00
E00F00
E00780
E00780
E00780
E00780
E00700
E00700
E00E00
E3FE00
E3FE00
E3FE00
E3FF00
E00F80
E001C0
E000C0
E000C0
F000C0
F800C0
F800C0
FC00C0
FC00C0
FF01C0
FF8700
FF8700
E7FF00
E3F800
C1F800
ENDCHAR
STARTCHAR $00E0
ENCODING 224
SWIDTH 666 0
DWIDTH 28 0
BBX 25 32 1 1
BITMAP
03800000
01F00000
00F00000
007E0000
003E0000
00000000
00000000
00000000
00FF8380
03FFF380
0748F380
1F007F80
7C003F80
78001F80
78000F80
F8000F80
F8000F80
E0000380
E0000380
E0000380
E0000380
F0000780
F8000F80
F8000F80
7C000F80
7C003F80
3F003F80
1F80F380
0F80E380
07FFC380
00FF8380
00FF0180
ENDCHAR
STARTCHAR $00E1
ENCODING 225
SWIDTH 666 0
DWIDTH 28 0
BBX 25 32 1 1
BITMAP
0007C000
000F8000
000F8000
001C0000
00780000
00700000
00000000
00000000
00FF8380
03FFF380
0748F380
1F007F80
7C003F80
78001F80
78000F80
F8000F80
F8000F80
E0000380
E0000380
E0000380
E0000380
F0000780
F8000F80
F8000F80
7C000F80
7C003F80
3F003F80
1F80F380
0F80E380
07FFC380
00FF8380
00FF0180
ENDCHAR
STARTCHAR $00E2
ENCODING 226
SWIDTH 666 0
DWIDTH 28 0
BBX 25 32 1 0
BITMAP
00180000
007F0000
007F0000
00C70000
03C18000
03C1C000
00000000
00000000
00FF8380
03FFF380
0748F380
1F007F80
7C003F80
78001F80
78000F80
F8000F80
F8000F80
E0000380
E0000380
E0000380
E0000380
F0000780
F8000F80
F8000F80
7C000F80
7C003F80
3F003F80
1F80F380
0F80E380
07FFC380
00FF8380
00FF0180
ENDCHAR
STARTCHAR $00E3
ENCODING 227
SWIDTH 666 0
DWIDTH 28 0
BBX 25 32 1 0
BITMAP
00400000
01F00000
03F1C000
018FC000
0007C000
00030000
00000000
00000000
00FF8380
03FFF380
0748F380
1F007F80
7C003F80
78001F80
78000F80
F8000F80
F8000F80
E0000380
E0000380
E0000380
E0000380
F0000780
F8000F80
F8000F80
7C000F80
7C003F80
3F003F80
1F80F380
0F80E380
07FFC380
00FF8380
00FF0180
ENDCHAR
STARTCHAR $00E4
ENCODING 228
SWIDTH 666 0
DWIDTH 28 0
BBX 25 30 1 2
BITMAP
00C78000
00C78000
00C78000
00C78000
00C18000
00000000
007F8100
00FF8380
03FFF380
0F007F80
0E003F80
7C003F80
78000F80
F8000F80
F8000F80
E0000780
E0000380
E0000380
E0000380
E0000380
F0000780
F8000F80
78000F80
7C001F80
7E003F80
1F007380
1FFFE380
07FFC380
07FFC380
00FF8300
ENDCHAR
STARTCHAR $00E5
ENCODING 229
SWIDTH 666 0
DWIDTH 28 0
BBX 25 34 1 2
BITMAP
007F0000
00670000
00470000
00070000
00878000
00878000
00C70000
00E70000
00780000
00000000
00480080
00FF8380
07FFF380
0F80FF80
1F80FF80
3F003F80
7C003F80
7C000F80
F8000F80
F8000F80
F0000780
E0000380
E0000380
E0000380
E0000380
F8000F80
F8000F80
78000F80
78001F80
7C003F80
1F007380
1FFFE380
03FFC380
00FF8380
ENDCHAR
STARTCHAR $00E6
ENCODING 230
SWIDTH 1148 0
DWIDTH 49 0
BBX 45 24 1 0
BITMAP
00FF8383FE00
07FFE3BFFF00
07FFF3BFFF80
1F80FFFC07C0
1C007FF803C0
7C003FE00040
78001FC00030
78000FC00038
F80003800038
F00003FFFFF8
E00003FFFFF8
E00003FFFFF8
E00003800000
F00007800000
F00007800000
F8000F800000
78000FC00078
7C001FF80060
1F003FFC07C0
1F007FFC07C0
0FFFC7BFFF80
03FFC39FFE00
01FF8383F800
00FF8103F000
ENDCHAR
STARTCHAR $00E7
ENCODING 231
SWIDTH 629 0
DWIDTH 27 0
BBX 24 33 1 -9
BITMAP
00FF80
07FFE0
07FFF0
1F80F8
1C007C
7C003E
78001F
78000F
F80000
F00000
E00000
E00000
E00000
F00000
F00000
F80000
780000
7C001E
1F003E
1F007C
0FFFF8
03FFF0
01FFE0
00FFC0
003800
001F00
001F80
001F80
001F80
0001C0
007880
003F80
001F80
ENDCHAR
STARTCHAR $00E8
ENCODING 232
SWIDTH 666 0
DWIDTH 28 0
BBX 24 32 1 1
BITMAP
038000
01F000
00F000
007E00
003E00
000000
000000
000000
00FF80
03FFF0
0748F0
1F0078
7C003C
78001C
78000E
F0000F
F0000F
FFFFFF
FFFFFF
FFFFFE
F00000
E00000
F00000
F00000
7C000E
7C003C
3F0038
1F80F0
0F80E0
07FFC0
00FF00
00FE00
ENDCHAR
STARTCHAR $00E9
ENCODING 233
SWIDTH 666 0
DWIDTH 28 0
BBX 24 32 1 1
BITMAP
0007C0
000F80
000F80
001C00
007800
007000
000000
000000
00FF80
03FFF0
0748F0
1F0078
7C003C
78001C
78000E
F0000F
F0000F
FFFFFF
FFFFFF
FFFFFE
F00000
E00000
F00000
F00000
7C000E
7C003C
3F0038
1F80F0
0F80E0
07FFC0
00FF00
00FE00
ENDCHAR
STARTCHAR $00EA
ENCODING 234
SWIDTH 666 0
DWIDTH 28 0
BBX 24 32 1 0
BITMAP
001800
007F00
007F00
03C700
03C180
03C1C0
000000
000000
00FF80
03FFF0
0748F0
1F0078
7C003C
78001C
78000E
F0000F
F0000F
FFFFFF
FFFFFF
FFFFFE
F00000
E00000
F00000
F00000
7C000E
7C003C
3F0038
1F80F0
0F80E0
07FFC0
00FF00
00FE00
ENDCHAR
STARTCHAR $00EB
ENCODING 235
SWIDTH 666 0
DWIDTH 28 0
BBX 24 30 1 2
BITMAP
00C780
00C780
00C780
00C780
00C180
000000
007F80
00FF80
03FFF0
0F0078
0E0038
7C003C
78000F
F0000F
F0000F
F0000F
FFFFFF
FFFFFF
F00000
F00000
E00000
F00000
78000E
7C001F
7E003C
1F0070
1FFFE0
07FFC0
07FFC0
00FF00
ENDCHAR
STARTCHAR $00EC
ENCODING 236
SWIDTH 185 0
DWIDTH 8 0
BBX 8 33 -1 1
BITMAP
80
F8
F8
7C
7C
07
03
03
00
03
07
07
07
07
07
07
07
07
07
07
07
07
07
07
07
07
07
07
07
07
07
07
03
ENDCHAR
STARTCHAR $00ED
ENCODING 237
SWIDTH 185 0
DWIDTH 8 0
BBX 9 33 1 1
BITMAP
0300
0780
0780
3C00
7C00
FC00
0000
0000
0000
1000
3800
7800
7800
7800
7800
7800
7800
7800
7800
7800
7800
7800
7800
7800
7800
7800
7800
7800
7800
7800
7800
3800
1000
ENDCHAR
STARTCHAR $00EE
ENCODING 238
SWIDTH 185 0
DWIDTH 8 0
BBX 12 32 -3 0
BITMAP
0780
0FC0
1FE0
3870
7030
8000
0000
0000
0180
0380
0380
0380
0380
0380
0380
0380
0380
0380
0380
0380
0380
0380
0380
0380
0380
0380
0380
0380
0380
0380
0380
0180
ENDCHAR
STARTCHAR $00EF
ENCODING 239
SWIDTH 185 0
DWIDTH 8 0
BBX 9 32 0 0
BITMAP
E380
E380
E380
E380
E380
0000
0000
0000
0C00
1C00
1C00
1C00
1C00
1C00
1C00
1C00
1C00
1C00
1C00
1C00
1C00
1C00
1C00
1C00
1C00
1C00
1C00
1C00
1C00
1C00
1C00
1C00
ENDCHAR
STARTCHAR $00F0
ENCODING 240
SWIDTH 666 0
DWIDTH 28 0
BBX 25 32 1 0
BITMAP
00C78000
007F8000
007F8000
00FF0000
00FF0000
00EF8000
0007C000
0007C000
00FFF000
03FFF000
0748F000
1F007800
7C003F00
78001F00
78000F00
E0000F00
E0000F00
E0000F00
E0000380
E0000380
E0000700
F0000F00
F8000F00
F8000F00
7C000E00
7C003C00
3F003C00
1F80F800
0F80F800
07FFF000
00FF8000
00FF0000
ENDCHAR
STARTCHAR $00F1
ENCODING 241
SWIDTH 592 0
DWIDTH 25 0
BBX 20 32 3 0
BITMAP
030000
0FC100
0FE300
0C7E00
043E00
003800
000000
000000
E1FC00
FFFF80
FF4F80
FC07C0
F800C0
F000C0
E000C0
E000E0
E00070
E00070
E00070
E00070
E00070
E00070
E00070
E00070
E00070
E00070
E00070
E00070
E00070
E00070
E00070
C00060
ENDCHAR
STARTCHAR $00F2
ENCODING 242
SWIDTH 666 0
DWIDTH 28 0
BBX 25 32 1 1
BITMAP
03800000
01F00000
00F00000
007E0000
003E0000
00000000
00000000
00000000
00FF8000
03FFF000
0748F000
1F007800
7C003F00
78001F00
78000F00
F8000F00
F8000F00
E0000F00
E0000380
E0000380
E0000700
F0000F00
F8000F00
F8000F00
7C000E00
7C003C00
3F003C00
1F80F800
0F80F800
07FFF000
00FF8000
00FF0000
ENDCHAR
STARTCHAR $00F3
ENCODING 243
SWIDTH 666 0
DWIDTH 28 0
BBX 25 32 1 1
BITMAP
0007C000
000F8000
000F8000
001C0000
00780000
00700000
00000000
00000000
00FF8000
03FFF000
0748F000
1F007800
7C003F00
78001F00
78000F00
F8000F00
F8000F00
E0000F00
E0000380
E0000380
E0000700
F0000F00
F8000F00
F8000F00
7C000E00
7C003C00
3F003C00
1F80F800
0F80F800
07FFF000
00FF8000
00FF0000
ENDCHAR
STARTCHAR $00F4
ENCODING 244
SWIDTH 666 0
DWIDTH 28 0
BBX 25 32 1 0
BITMAP
00180000
007F0000
007F0000
00C70000
03C18000
03C1C000
00000000
00000000
00FF8000
03FFF000
0748F000
1F007800
7C003F00
78001F00
78000F00
F8000F00
F8000F00
E0000F00
E0000380
E0000380
E0000700
F0000F00
F8000F00
F8000F00
7C000E00
7C003C00
3F003C00
1F80F800
0F80F800
07FFF000
00FF8000
00FF0000
ENDCHAR
STARTCHAR $00F5
ENCODING 245
SWIDTH 666 0
DWIDTH 28 0
BBX 25 32 1 0
BITMAP
00400000
01F00000
03F1C000
019FC000
000FC000
00030000
00000000
00000000
00FF8000
03FFF000
0748F000
1F007800
7C003F00
78001F00
78000F00
F8000F00
F8000F00
E0000F00
E0000380
E0000380
E0000700
F0000F00
F8000F00
F8000F00
7C000E00
7C003C00
3F003C00
1F80F800
0F80F800
07FFF000
00FF8000
00FF0000
ENDCHAR
STARTCHAR $00F6
ENCODING 246
SWIDTH 666 0
DWIDTH 28 0
BBX 25 30 1 2
BITMAP
00C78000
00C78000
00C78000
00C78000
00C18000
00000000
007F8000
00FF8000
03FFF000
0F007800
0E003800
7C003C00
78000F00
F8000F00
F8000F00
E0000F00
E0000F80
E0000380
E0000F00
E0000F00
F0000F00
F8000F00
78000F00
7C001F00
7E003C00
1F007C00
1FFFF800
07FFF000
07FFE000
00FF8000
ENDCHAR
STARTCHAR $00F7
ENCODING 247
SWIDTH 703 0
DWIDTH 30 0
BBX 24 22 3 1
BITMAP
001800
001800
001800
001800
000800
000000
000000
000000
000000
FFFFFF
FFFFFF
FFFFFF
000000
000000
000000
000000
000000
001800
001800
003800
001800
000800
ENDCHAR
STARTCHAR $00F8
ENCODING 248
SWIDTH 666 0
DWIDTH 28 0
BBX 24 26 1 1
BITMAP
00000C
00FF9E
00FFFF
07FFFC
0FFFFC
1F807C
3E00FC
7C00FE
7C018F
F8078F
E00F0F
E01E0F
E03C0F
E0180F
E0300F
E0600F
F0C00F
79C00F
7F803E
3F803C
1F007C
1F0078
1FFFF0
1FFFE0
78FF80
180000
ENDCHAR
STARTCHAR $00F9
ENCODING 249
SWIDTH 592 0
DWIDTH 25 0
BBX 20 33 3 1
BITMAP
040000
0E0000
0F0000
03C000
03F000
00F000
000000
000000
000000
E00070
E00070
E00070
E00070
E00070
E00070
E00070
E00070
E00070
E00070
E00070
E00070
E00070
E00070
E00070
E00070
E000F0
E000F0
F801F0
F801F0
7C07F0
1FFF70
1FFE70
03F070
ENDCHAR
STARTCHAR $00FA
ENCODING 250
SWIDTH 592 0
DWIDTH 25 0
BBX 20 33 3 1
BITMAP
000700
001F00
003E00
007C00
03F800
03E000
000000
000000
000000
E00070
E00070
E00070
E00070
E00070
E00070
E00070
E00070
E00070
E00070
E00070
E00070
E00070
E00070
E00070
E00070
E000F0
E000F0
F801F0
F801F0
7C07F0
1FFF70
1FFE70
03F070
ENDCHAR
STARTCHAR $00FB
ENCODING 251
SWIDTH 592 0
DWIDTH 25 0
BBX 20 32 3 0
BITMAP
00F000
01F800
03F800
0F8E00
0C0600
000000
000000
000000
E00070
E00070
E00070
E00070
E00070
E00070
E00070
E00070
E00070
E00070
E00070
E00070
E00070
E00070
E00070
E00070
E000F0
F800F0
FC01F0
3C07F0
1C07F0
0FFF70
07F070
03E060
ENDCHAR
STARTCHAR $00FC
ENCODING 252
SWIDTH 592 0
DWIDTH 25 0
BBX 20 32 3 0
BITMAP
071800
071800
071800
071800
040800
000000
000000
000000
E00070
E00070
E00070
E00070
E00070
E00070
E00070
E00070
E00070
E00070
E00070
E00070
E00070
E00070
E00070
E00070
E000F0
F800F0
FC01F0
3C07F0
1C07F0
0FFF70
07F070
03E060
ENDCHAR
STARTCHAR $00FD
ENCODING 253
SWIDTH 518 0
DWIDTH 22 0
BBX 22 41 0 -7
BITMAP
000180
000F80
000F80
001E00
007E00
007000
006000
004000
000000
F00038
780038
78007C
780078
180070
1C0070
1C0070
1C00C0
1F00C0
0701C0
070380
070780
030780
038F80
038F80
038F00
03CF00
00FE00
00F800
00F800
00F800
007000
007000
007000
00F000
00E000
00C000
00C000
03C000
038000
038000
018000
ENDCHAR
STARTCHAR $00FE
ENCODING 254
SWIDTH 666 0
DWIDTH 28 0
BBX 24 39 3 -6
BITMAP
E00000
E00000
E00000
E00000
E00000
E00000
E00000
E00000
E0FE00
E3FFC0
E749E0
FF00F0
F80038
F0003C
E0003E
E0001F
E0000F
E0000F
E0000F
E0000F
E0000F
E0000F
E0000F
E0001F
E0003E
F8003C
FF00F8
FF81F0
FF81E0
E7FFC0
E0FF00
E0FE00
E00000
E00000
E00000
E00000
E00000
E00000
E00000
ENDCHAR
STARTCHAR $00FF
ENCODING 255
SWIDTH 518 0
DWIDTH 22 0
BBX 22 39 0 -6
BITMAP
038F00
038F00
038F00
038E00
038600
000000
000000
000000
F8003C
78007C
780078
780078
1C0070
1C0070
1C0060
1E00C0
0F00C0
0707C0
070780
070780
038780
038F80
038F00
038F00
01EE00
00FE00
00F800
007800
007800
007000
007000
00F000
00F000
00C000
00C000
00C000
038000
038000
038000
ENDCHAR
STARTCHAR $0100
ENCODING 256
SWIDTH 740 0
DWIDTH 32 0
BBX 29 37 1 4
BITMAP
03FFFC00
03FFFC00
01FFFC00
00000000
00000000
00000000
000E0000
000F0000
001F8000
003F8000
003D8000
0078C000
0070C000
0070C000
0070C000
00E0E000
00C07000
00C07000
01803C00
03803C00
03803C00
03803C00
07003E00
07003F00
07FFFF00
0FFFFF00
1E000700
1C000380
1C000380
1C000380
780000C0
780000E0
700000E0
E00000F0
E0000078
E0000078
C0000078
ENDCHAR
STARTCHAR $0101
ENCODING 257
SWIDTH 666 0
DWIDTH 28 0
BBX 25 30 1 2
BITMAP
07FFC000
07FFC000
03FFC000
00000000
00000000
00000000
007F8100
00FF8380
03FFF380
0F007F80
0E003F80
7C003F80
78000F80
F8000F80
F8000F80
E0000780
E0000380
E0000380
E0000380
E0000380
F0000780
F8000F80
78000F80
7C001F80
7E003F80
1F007380
1FFFE380
07FFC380
07FFC380
00FF8300
ENDCHAR
STARTCHAR $0102
ENCODING 258
SWIDTH 740 0
DWIDTH 32 0
BBX 29 39 1 3
BITMAP
00C07000
00C07000
00E07000
007FF000
003FC000
000F0000
00000000
00000000
000E0000
001F8000
001F8000
001F8000
0038C000
0070C000
0070C000
0070C000
00F0C000
00C07000
00C07000
01E07000
03C03800
03803C00
03803C00
03803E00
07003F00
07FFFF00
0FFFFF00
1FFFFF00
1FFFFF00
1E000380
1C000380
3C0001C0
780000C0
780000E0
E00000E0
E00000F0
E0000078
E0000078
E0000030
ENDCHAR
STARTCHAR $0103
ENCODING 259
SWIDTH 666 0
DWIDTH 28 0
BBX 25 32 1 0
BITMAP
0380C000
0380C000
0181C000
00FF8000
00FF8000
00380000
00000000
00000000
00FF8380
03FFF380
0748F380
1F007F80
7C003F80
78001F80
78000F80
F8000F80
F8000F80
E0000380
E0000380
E0000380
E0000380
F0000780
F8000F80
F8000F80
7C000F80
7C003F80
3F003F80
1F80F380
0F80E380
07FFC380
00FF8380
00FF0180
ENDCHAR
STARTCHAR $0104
ENCODING 260
SWIDTH 740 0
DWIDTH 32 0
BBX 30 42 1 -11
BITMAP
000F0000
001F8000
001F8000
001F8000
001F8000
0031C000
0070C000
0070C000
00F0C000
00E07000
00C07000
00C07000
03E03800
03803C00
03803C00
03803C00
07003F00
07FFFF00
0FFFFF00
0FFFFF00
1C000780
1C000380
1C000380
1C000180
780000C0
780000C0
F00000E0
E00000F8
E00000F8
E0000078
E0000078
C0000070
00000060
000000C0
000000C0
000001C0
00000380
000000C0
000000E0
000000FC
000000FC
0000007C
ENDCHAR
STARTCHAR $0105
ENCODING 261
SWIDTH 666 0
DWIDTH 28 0
BBX 25 33 1 -9
BITMAP
00FF8380
07FFE380
07FFF380
1F80FF80
1C007F80
7C003F80
78001F80
78000F80
F8000F80
F0000780
E0000380
E0000380
E0000380
F0000780
F0000780
F8000F80
78000F80
7C001F80
1F003380
1F006380
0FFFC380
03FFC380
01FF8380
00FF8300
00000E00
00003C00
00003800
00003800
00003800
00003C00
00000F80
00000F80
00000780
ENDCHAR
STARTCHAR $0106
ENCODING 262
SWIDTH 814 0
DWIDTH 35 0
BBX 31 39 1 3
BITMAP
00003C00
00007C00
00007C00
0003F800
0003F000
0003C000
00000000
00000000
001FFC00
00FFFF80
01E817C0
07C007E0
0F0000F8
1C00007C
1C00007C
3C00001C
78000000
78000000
F8000000
F8000000
F0000000
E0000000
E0000000
E0000000
E0000000
E0000000
E0000000
78000000
78000000
78000000
7C00001E
3E00001E
0F000038
03800060
03C001C0
01E003C0
007FFF00
001FFC00
003FF800
ENDCHAR
STARTCHAR $0107
ENCODING 263
SWIDTH 629 0
DWIDTH 27 0
BBX 24 32 1 1
BITMAP
0007C0
000F80
000F80
001E00
001E00
003000
000000
000000
00FF80
03FFF0
0748F0
1F0078
7C003F
78001F
78000F
F80006
F80000
E00000
E00000
E00000
E00000
F00000
F80000
F80000
7C000F
7C003F
3F003C
1F80F8
0F80F8
07FFF0
00FF80
00FF00
ENDCHAR
STARTCHAR $0108
ENCODING 264
SWIDTH 814 0
DWIDTH 35 0
BBX 30 37 1 4
BITMAP
0007C000
001FF800
001E3800
001C3C00
00183F00
00000000
001FFC00
003FFE00
00FFFF80
03E007E0
074000F0
1F000078
1C00001C
18000000
38000000
78000000
78000000
F8000000
F0000000
F0000000
E0000000
E0000000
E0000000
E0000000
E0000000
78000000
78000000
78000000
78000000
7C00000C
1F000018
1FC00030
03C00060
01C003C0
00FFFF80
007FFF00
001FF800
ENDCHAR
STARTCHAR $0109
ENCODING 265
SWIDTH 629 0
DWIDTH 27 0
BBX 24 32 1 0
BITMAP
001800
007F00
007F00
00C700
03C180
03C1F0
000000
000000
00FF80
03FFF0
0748F0
1F0078
7C003F
78001F
78000F
F80006
F80000
E00000
E00000
E00000
E00000
F00000
F80000
F80000
7C000F
7C003F
3F003C
1F80F8
0F80F8
07FFF0
00FF80
00FF00
ENDCHAR
STARTCHAR $010A
ENCODING 266
SWIDTH 814 0
DWIDTH 35 0
BBX 30 37 1 4
BITMAP
0000C000
0000C000
0000C000
0000C000
0000C000
00000000
001FFC00
003FFE00
00FFFF80
03E007E0
074000F0
1F000078
1C00001C
18000000
38000000
78000000
78000000
F8000000
F0000000
F0000000
E0000000
E0000000
E0000000
E0000000
E0000000
78000000
78000000
78000000
78000000
7C00000C
1F000018
1FC00030
03C00060
01C003C0
00FFFF80
007FFF00
001FF800
ENDCHAR
STARTCHAR $010B
ENCODING 267
SWIDTH 629 0
DWIDTH 27 0
BBX 24 30 1 2
BITMAP
001800
001800
001800
001800
000800
000000
007F80
00FF80
03FFF0
0F0078
0E0038
7C003C
78000F
F80000
F80000
E00000
E00000
E00000
E00000
E00000
F00000
F80000
78000E
7C001F
7E003E
1F007C
1FFFF8
07FFF0
07FFE0
00FF80
ENDCHAR
STARTCHAR $010C
ENCODING 268
SWIDTH 814 0
DWIDTH 35 0
BBX 30 37 1 4
BITMAP
00783F00
000F7800
000F7800
0007F000
0001C000
00000000
001FFC00
003FFE00
00FFFF80
03E007E0
074000F0
1F000078
1C00001C
18000000
38000000
78000000
78000000
F8000000
F0000000
F0000000
E0000000
E0000000
E0000000
E0000000
E0000000
78000000
78000000
78000000
78000000
7C00000C
1F000018
1FC00030
03C00060
01C003C0
00FFFF80
007FFF00
001FF800
ENDCHAR
STARTCHAR $010D
ENCODING 269
SWIDTH 629 0
DWIDTH 27 0
BBX 24 32 1 0
BITMAP
0381F0
01C180
00E380
007E00
003E00
003800
000000
000000
00FF80
03FFF0
0748F0
1F0078
7C003F
78001F
78000F
F80006
F80000
E00000
E00000
E00000
E00000
F00000
F80000
F80000
7C000F
7C003F
3F003C
1F80F8
0F80F8
07FFF0
00FF80
00FF00
ENDCHAR
STARTCHAR $010E
ENCODING 270
SWIDTH 740 0
DWIDTH 32 0
BBX 26 39 3 3
BITMAP
1C0F8000
061E0000
073C0000
03F80000
03F00000
00E00000
00000000
00000000
FFFE0000
FFFFC000
E549F000
E000F800
E0003F00
E0001F00
E0000F00
E0000700
E0000380
E0000380
E00000C0
E00000C0
E00000C0
E00000C0
E00000C0
E00000C0
E00000C0
E00000C0
E00000C0
E0000180
E0000380
E0000380
E0000780
E0000F80
E0000F00
E0003F00
E000FE00
E001FC00
FFFFC000
FFFF0000
FFFE0000
ENDCHAR
STARTCHAR $010F
ENCODING 271
SWIDTH 703 0
DWIDTH 30 0
BBX 33 32 1 0
BITMAP
0000038380
0000038700
0000038700
0000038700
0000038700
0000038700
0000038700
0000038600
00FF838000
03FFF38000
0748F38000
1F007F8000
7C003F8000
78001F8000
78000F8000
F8000F8000
F8000F8000
E000038000
E000038000
E000038000
E000038000
F000038000
F800038000
F800038000
7C000F8000
7C003F8000
3F003F8000
1F80F38000
0F80E38000
07FFC38000
00FF838000
00FF018000
ENDCHAR
STARTCHAR $0110
ENCODING 272
SWIDTH 777 0
DWIDTH 33 0
BBX 30 32 1 0
BITMAP
1FFFC000
1FFFF800
1FFFF800
1C003F80
1C003F80
1C0007C0
1C0001F8
1C0000F8
1C000078
1C000078
1C000038
1C00003C
1E00003C
FFFE003C
FFFE003C
FFFF003C
FFFF003C
3E00003C
1C00003C
1C00003C
1C00007C
1C000078
1C000078
1C0000F8
1C0001F8
1C0003C0
1C001F80
1C003F80
1C003F80
1FFFF800
1FFFC000
1FFFC000
ENDCHAR
STARTCHAR $0111
ENCODING 273
SWIDTH 703 0
DWIDTH 30 0
BBX 26 32 1 0
BITMAP
00000380
00000380
00000380
0000FFC0
0000FFC0
0000FFC0
00000380
00000380
00FF8380
03FFF380
0748F380
1F007F80
7C003F80
78001F80
78000F80
F8000F80
F8000F80
E0000380
E0000380
E0000380
E0000380
F0000380
F8000380
F8000380
7C000F80
7C003F80
3F003F80
1F80F380
0F80E380
07FFC380
00FF8380
00FF0180
ENDCHAR
STARTCHAR $0112
ENCODING 274
SWIDTH 518 0
DWIDTH 22 0
BBX 17 37 3 4
BITMAP
7FFF00
7FFF00
3FFE00
000000
000000
000000
FFFF80
FFFF80
FFFF80
F00000
E00000
E00000
E00000
E00000
E00000
E00000
E00000
E00000
E00000
E00000
FFFF80
FFFF80
FFFF80
FFFF80
E00000
E00000
E00000
E00000
E00000
E00000
E00000
E00000
E00000
F00000
FFFF80
FFFF80
FFFF80
ENDCHAR
STARTCHAR $0113
ENCODING 275
SWIDTH 666 0
DWIDTH 28 0
BBX 24 30 1 2
BITMAP
07FFC0
07FFC0
03FFC0
000000
000000
000000
007F80
00FF80
03FFF0
0F0078
0E0038
7C003C
78000F
F0000F
F0000F
F0000F
FFFFFF
FFFFFF
F00000
F00000
E00000
F00000
78000E
7C001F
7E003C
1F0070
1FFFE0
07FFC0
07FFC0
00FF00
ENDCHAR
STARTCHAR $0114
ENCODING 276
SWIDTH 518 0
DWIDTH 22 0
BBX 17 39 3 3
BITMAP
7C0E00
3C1E00
1E3C00
1FF800
0FF800
00C000
000000
000000
FFFF80
FFFF80
E54800
E00000
E00000
E00000
E00000
E00000
E00000
E00000
E00000
E00000
E00000
F00000
FFFF80
FFFF80
FFFF80
F00000
E00000
E00000
E00000
E00000
E00000
E00000
E00000
E00000
E00000
E00000
FFFF80
FFFF80
FFFF00
ENDCHAR
STARTCHAR $0115
ENCODING 277
SWIDTH 666 0
DWIDTH 28 0
BBX 24 32 1 0
BITMAP
0300C0
0380C0
0181C0
00FF80
00FF80
003000
000000
000000
00FF80
03FFF0
0748F0
1F0078
7C003C
78001C
78000E
F0000F
F0000F
FFFFFF
FFFFFF
FFFFFE
F00000
E00000
F00000
F00000
7C000E
7C003C
3F0038
1F80F0
0F80E0
07FFC0
00FF00
00FE00
ENDCHAR
STARTCHAR $0116
ENCODING 278
SWIDTH 518 0
DWIDTH 22 0
BBX 17 39 3 3
BITMAP
03C000
03C000
03C000
03C000
03C000
000000
000000
000000
FFFF80
FFFF80
E54800
E00000
E00000
E00000
E00000
E00000
E00000
E00000
E00000
E00000
E00000
F00000
FFFF80
FFFF80
FFFF80
F00000
E00000
E00000
E00000
E00000
E00000
E00000
E00000
E00000
E00000
E00000
FFFF80
FFFF80
FFFF00
ENDCHAR
STARTCHAR $0117
ENCODING 279
SWIDTH 666 0
DWIDTH 28 0
BBX 24 30 1 2
BITMAP
001800
001800
001800
001800
000800
000000
007F80
00FF80
03FFF0
0F0078
0E0038
7C003C
78000F
F0000F
F0000F
F0000F
FFFFFF
FFFFFF
F00000
F00000
E00000
F00000
78000E
7C001F
7E003C
1F0070
1FFFE0
07FFC0
07FFC0
00FF00
ENDCHAR
STARTCHAR $0118
ENCODING 280
SWIDTH 518 0
DWIDTH 22 0
BBX 17 42 3 -11
BITMAP
FFFF80
FFFF80
FFFF80
E00000
E00000
E00000
E00000
E00000
E00000
E00000
E00000
E00000
E00000
FFFF00
FFFF00
FFFF80
FFFF80
E00000
E00000
E00000
E00000
E00000
E00000
E00000
E00000
E00000
E00000
E00000
F00000
FFFF80
FFFF80
FFFF00
000E00
001C00
001800
001800
001800
001800
003C00
001F80
001F80
000F80
ENDCHAR
STARTCHAR $0119
ENCODING 281
SWIDTH 666 0
DWIDTH 28 0
BBX 24 33 1 -9
BITMAP
00FF80
07FFE0
07FFF0
1F80F8
1C007C
7C003C
70001E
70000F
F0000F
FFFFFF
FFFFFF
FFFFFF
F00000
E00000
E00000
F00000
78000F
7C001C
1F0030
1F0060
0FFFC0
03FFC0
01FF80
00FF80
000800
001800
001800
007800
007800
001C00
001F80
001F80
000780
ENDCHAR
STARTCHAR $011A
ENCODING 282
SWIDTH 518 0
DWIDTH 22 0
BBX 17 39 3 3
BITMAP
7C0E00
3E7E00
1F7C00
0FF800
07F000
03E000
000000
000000
FFFF80
FFFF80
E54800
E00000
E00000
E00000
E00000
E00000
E00000
E00000
E00000
E00000
E00000
F00000
FFFF80
FFFF80
FFFF80
F00000
E00000
E00000
E00000
E00000
E00000
E00000
E00000
E00000
E00000
E00000
FFFF80
FFFF80
FFFF00
ENDCHAR
STARTCHAR $011B
ENCODING 283
SWIDTH 666 0
DWIDTH 28 0
BBX 24 32 1 0
BITMAP
0381C0
03C180
01E380
00FE00
00FE00
003800
000000
000000
00FF80
03FFF0
0748F0
1F0078
7C003C
78001C
78000E
F0000F
F0000F
FFFFFF
FFFFFF
FFFFFE
F00000
E00000
F00000
F00000
7C000E
7C003C
3F0038
1F80F0
0F80E0
07FFC0
00FF00
00FE00
ENDCHAR
STARTCHAR $011C
ENCODING 284
SWIDTH 888 0
DWIDTH 38 0
BBX 33 37 1 4
BITMAP
0007F00000
000FF80000
000E380000
001C0C0000
0008070000
0000000000
000FFC0000
000FFE0000
00FFFFC000
03E007E000
03C000F000
0780007800
0C00001C00
1C00001E00
3C00000F00
7C00000200
7800000000
7800000000
F000000000
F000000000
E000000000
E000000000
E000000000
E000000000
E00FFFFF80
F80FFFFF80
F800000780
7800000700
7800000700
7C00000700
1C00001F00
1FC0003E00
03C0007800
01C000E000
00FFFFC000
007FFFC000
000FF80000
ENDCHAR
STARTCHAR $011D
ENCODING 285
SWIDTH 666 0
DWIDTH 28 0
BBX 24 41 1 -8
BITMAP
001800
00FF00
00FF00
03C700
03C180
03C1C0
000000
000000
00FF8F
03FFCF
0749FF
1F00FF
7C003F
78001F
78000F
E0000F
E0000F
E0000F
E0000F
E0000F
E0000F
F0000F
F8000F
F8000F
7C000F
7C003F
3F003F
1F80FF
0F80FF
07FFCF
00FF0F
38FE0F
78000F
7C000F
1C003E
1E003C
1FC078
0FFFF8
07FFF0
007FC0
007F80
ENDCHAR
STARTCHAR $011E
ENCODING 286
SWIDTH 888 0
DWIDTH 38 0
BBX 33 37 1 4
BITMAP
00180F0000
001FFE0000
001FFC0000
000FF80000
0007F00000
0000000000
000FFC0000
000FFE0000
00FFFFC000
03E007E000
03C000F000
0780007800
0C00001C00
1C00001E00
3C00000F00
7C00000200
7800000000
7800000000
F000000000
F000000000
E000000000
E000000000
E000000000
E000000000
E00FFFFF80
F80FFFFF80
F800000780
7800000700
7800000700
7C00000700
1C00001F00
1FC0003E00
03C0007800
01C000E000
00FFFFC000
007FFFC000
000FF80000
ENDCHAR
STARTCHAR $011F
ENCODING 287
SWIDTH 666 0
DWIDTH 28 0
BBX 24 41 1 -8
BITMAP
0301C0
038180
018380
00FF80
00FF80
003000
000000
000000
00FF8F
03FFCF
0749FF
1F00FF
7C003F
78001F
78000F
E0000F
E0000F
E0000F
E0000F
E0000F
E0000F
F0000F
F8000F
F8000F
7C000F
7C003F
3F003F
1F80FF
0F80FF
07FFCF
00FF0F
38FE0F
78000F
7C000F
1C003E
1E003C
1FC078
0FFFF8
07FFF0
007FC0
007F80
ENDCHAR
STARTCHAR $0120
ENCODING 288
SWIDTH 888 0
DWIDTH 38 0
BBX 33 37 1 4
BITMAP
0000C00000
0000C00000
0000C00000
0000C00000
0000C00000
0000000000
000FFC0000
000FFE0000
00FFFFC000
03E007E000
03C000F000
0780007800
0C00001C00
1C00001E00
3C00000F00
7C00000200
7800000000
7800000000
F000000000
F000000000
E000000000
E000000000
E000000000
E000000000
E00FFFFF80
F80FFFFF80
F800000780
7800000700
7800000700
7C00000700
1C00001F00
1FC0003E00
03C0007800
01C000E000
00FFFFC000
007FFFC000
000FF80000
ENDCHAR
STARTCHAR $0121
ENCODING 289
SWIDTH 666 0
DWIDTH 28 0
BBX 24 39 1 -7
BITMAP
001800
001800
001800
001800
000800
000000
007F8E
00FF8F
03FFCF
0F01FF
0E003F
7C003F
78000F
F0000F
E0000F
E0000F
E0000F
E0000F
E0000F
E0000F
F0000F
F8000F
78000F
7C001F
7E003F
1F007F
1FFFEF
07FFCF
07FFCF
00FF0F
78000F
78000F
7C000F
1E003C
1F807C
1F807C
03FFF0
007F80
003F00
ENDCHAR
STARTCHAR $0122
ENCODING 290
SWIDTH 888 0
DWIDTH 38 0
BBX 33 41 1 -8
BITMAP
000FFC0000
00FFFFC000
00FFFFE000
03C007F000
03C003F800
03C000FC00
1E00003E00
1C00003F00
7C00001F00
7C00000000
7800000000
7800000000
F000000000
E000000000
E000000000
E000000000
E000000000
E007FFFF80
F80FFFFF80
F80FFFFF80
7800000780
7C00000700
7C00000700
3C00000700
1E00000700
0780007C00
03C000FC00
03F001F000
03F003E000
00FFFFE000
0007F80000
0003F80000
0000000000
0000C00000
0000C00000
0001C00000
0003800000
0007800000
0007800000
0003800000
0001800000
ENDCHAR
STARTCHAR $0123
ENCODING 291
SWIDTH 666 0
DWIDTH 28 0
BBX 24 42 1 -9
BITMAP
001800
001800
001800
001800
001800
003000
007000
007000
000000
00FF87
01FF87
07FFCF
0F00FF
1C003F
3C003F
7C001F
78000F
E0000F
E0000F
E0000F
E0000F
E0000F
F0000F
F0000F
F8000F
78000F
7C001F
3C003F
1C003F
0F007F
07FFCF
03FFCF
00FE0F
78000F
78000F
38001E
1C003C
1F807C
1FE0F8
07FFF0
07FFE0
007F80
ENDCHAR
STARTCHAR $0124
ENCODING 292
SWIDTH 666 0
DWIDTH 28 0
BBX 22 39 3 3
BITMAP
007000
00FF00
00FF00
03CF00
038780
0383C0
000000
000000
E0003C
E0003C
E0003C
E0003C
E0003C
E0003C
E0003C
E0003C
E0003C
E0003C
E0003C
E0003C
E0003C
F0003C
FFFFFC
FFFFFC
FFFFFC
F0003C
E0003C
E0003C
E0003C
E0003C
E0003C
E0003C
E0003C
E0003C
E0003C
E0003C
E0003C
E0003C
E00008
ENDCHAR
STARTCHAR $0125
ENCODING 293
SWIDTH 592 0
DWIDTH 25 0
BBX 20 39 3 3
BITMAP
00C000
01F800
03F800
079E00
0C0F00
0C0F80
000000
000000
E00000
E00000
E00000
E00000
E00000
E00000
E00000
E00000
F3FE00
FFFF80
FE07C0
FC03C0
FC01C0
F000C0
E000C0
E000C0
E00070
E00070
E00070
E00070
E00070
E00070
E00070
E00070
E00070
E00070
E00070
E00070
E00070
E00070
E00070
ENDCHAR
STARTCHAR $0126
ENCODING 294
SWIDTH 666 0
DWIDTH 28 0
BBX 29 32 0 0
BITMAP
1C000380
1C000380
1C000380
1C000380
1C000780
FFFFFFF8
FFFFFFF0
FFFFFFE0
1E000380
1C000380
1C000380
1C000380
1E000380
1FFFFF80
1FFFFF80
1FFFFF80
1FFFFF80
1E000380
1C000380
1C000380
1C000380
1C000380
1C000380
1C000380
1C000380
1C000380
1C000380
1C000380
1C000380
1C000380
1C000380
1C000180
ENDCHAR
STARTCHAR $0127
ENCODING 295
SWIDTH 592 0
DWIDTH 25 0
BBX 24 32 0 0
BITMAP
1C0000
1C0000
1E0000
FF8000
FF8000
FF8000
3E0000
1C0000
1C7F80
1FFFF0
1FC8F0
1F8078
1F003C
1C003C
1C003E
1C001F
1C000F
1C000F
1C000F
1C000F
1C000F
1C000F
1C000F
1C000F
1C000F
1C000F
1C000F
1C000F
1C000F
1C000F
1C0004
1C0004
ENDCHAR
STARTCHAR $0128
ENCODING 296
SWIDTH 222 0
DWIDTH 10 0
BBX 12 39 -1 3
BITMAP
1C00
FC10
FC30
63F0
63F0
00C0
0000
0000
0300
0700
0700
0700
0700
0700
0700
0700
0700
0700
0700
0700
0700
0700
0700
0700
0700
0700
0700
0700
0700
0700
0700
0700
0700
0700
0700
0700
0700
0700
0700
ENDCHAR
STARTCHAR $0129
ENCODING 297
SWIDTH 185 0
DWIDTH 8 0
BBX 12 32 -1 0
BITMAP
7C00
FFF0
FFF0
CFC0
87C0
0000
0000
0000
0300
0700
0700
0700
0700
0700
0700
0700
0700
0700
0700
0700
0700
0700
0700
0700
0700
0700
0700
0700
0700
0700
0700
0200
ENDCHAR
STARTCHAR $012A
ENCODING 298
SWIDTH 222 0
DWIDTH 10 0
BBX 16 37 -3 4
BITMAP
FFFF
FFFF
FFFE
0000
0000
0000
0180
0380
0380
0380
0380
0380
0380
0380
0380
0380
0380
0380
0380
0380
0380
0380
0380
0380
0380
0380
0380
0380
0380
0380
0380
0380
0380
0380
0380
0380
0180
ENDCHAR
STARTCHAR $012B
ENCODING 299
SWIDTH 185 0
DWIDTH 8 0
BBX 13 30 -3 2
BITMAP
FFF8
FFF8
FFF8
0000
0000
0000
0180
0380
0380
0380
0380
0380
0380
0380
0380
0380
0380
0380
0380
0380
0380
0380
0380
0380
0380
0380
0380
0380
0380
0380
ENDCHAR
STARTCHAR $012C
ENCODING 300
SWIDTH 222 0
DWIDTH 10 0
BBX 12 39 -1 3
BITMAP
E070
E070
E070
7FC0
7FC0
0780
0000
0000
0300
0700
0700
0700
0700
0700
0700
0700
0700
0700
0700
0700
0700
0700
0700
0700
0700
0700
0700
0700
0700
0700
0700
0700
0700
0700
0700
0700
0700
0700
0700
ENDCHAR
STARTCHAR $012D
ENCODING 301
SWIDTH 185 0
DWIDTH 8 0
BBX 12 32 -1 0
BITMAP
8070
C0E0
E0C0
7FC0
7FC0
0000
0000
0000
0300
0700
0700
0700
0700
0700
0700
0700
0700
0700
0700
0700
0700
0700
0700
0700
0700
0700
0700
0700
0700
0700
0700
0200
ENDCHAR
STARTCHAR $012E
ENCODING 302
SWIDTH 222 0
DWIDTH 10 0
BBX 6 42 0 -11
BITMAP
1C
1C
1C
1C
1C
1C
1C
1C
1C
1C
1C
1C
1C
1C
1C
1C
1C
1C
1C
1C
1C
1C
1C
1C
1C
1C
1C
1C
1C
1C
1C
1C
1C
78
E0
E0
E0
E0
E0
FC
FC
7C
ENDCHAR
STARTCHAR $012F
ENCODING 303
SWIDTH 185 0
DWIDTH 8 0
BBX 8 42 -1 -11
BITMAP
07
07
07
07
04
00
00
00
03
07
07
07
07
07
07
07
07
07
07
07
07
07
07
07
07
07
07
07
07
07
0F
1E
1C
78
78
78
F0
70
78
7F
3F
1F
ENDCHAR
STARTCHAR $0130
ENCODING 304
SWIDTH 222 0
DWIDTH 10 0
BBX 3 39 3 3
BITMAP
E0
E0
E0
E0
E0
00
00
00
E0
E0
E0
E0
E0
E0
E0
E0
E0
E0
E0
E0
E0
E0
E0
E0
E0
E0
E0
E0
E0
E0
E0
E0
E0
E0
E0
E0
E0
E0
E0
ENDCHAR
STARTCHAR $0131
ENCODING 305
SWIDTH 185 0
DWIDTH 8 0
BBX 3 24 3 0
BITMAP
E0
E0
E0
E0
E0
E0
E0
E0
E0
E0
E0
E0
E0
E0
E0
E0
E0
E0
E0
E0
E0
E0
E0
E0
ENDCHAR
STARTCHAR $0132
ENCODING 306
SWIDTH 666 0
DWIDTH 28 0
BBX 22 32 3 0
BITMAP
E0003C
E0003C
E0003C
E0003C
E0003C
E0003C
E0003C
E0003C
E0003C
E0003C
E0003C
E0003C
E0003C
E0003C
E0003C
E0003C
E0003C
E0003C
E0003C
E0003C
E0003C
E0003C
E0003C
E0003C
E3803C
E3803C
E3C03C
E3F0F8
E3F0F8
E0FFF0
E07F80
C03F00
ENDCHAR
STARTCHAR $0133
ENCODING 307
SWIDTH 407 0
DWIDTH 18 0
BBX 11 39 3 -6
BITMAP
E0C0
E0C0
E0C0
E0C0
E0C0
0000
0000
0000
E0C0
E0E0
E0C0
E0C0
E0E0
E0C0
E0C0
E0C0
E0C0
E0C0
E0C0
E0E0
E0C0
E0C0
E0C0
E0C0
E0E0
E0C0
E0C0
E0C0
E0C0
E0C0
E0C0
C0E0
00C0
00C0
03C0
03C0
1F80
1C00
1C00
ENDCHAR
STARTCHAR $0134
ENCODING 308
SWIDTH 481 0
DWIDTH 21 0
BBX 23 39 0 3
BITMAP
000780
000FC0
000FC0
001CF0
001878
00703E
000000
000000
000180
000780
000780
000780
000780
000780
000780
000780
000780
000780
000780
000780
000780
000780
000780
000780
000780
000780
000780
000780
000780
000780
000780
F00780
F00780
7C0F80
7C0F00
3E0E00
1FFC00
0FF800
07F000
ENDCHAR
STARTCHAR $0135
ENCODING 309
SWIDTH 185 0
DWIDTH 8 0
BBX 12 39 -1 -6
BITMAP
1F00
3F80
7F80
F8F0
F0F0
0000
0000
0000
0300
0700
0700
0700
0700
0700
0700
0700
0700
0700
0700
0700
0700
0700
0700
0700
0700
0700
0700
0700
0700
0700
0700
0700
0F00
1C00
1C00
3C00
F800
F000
E000
ENDCHAR
STARTCHAR $0136
ENCODING 310
SWIDTH 592 0
DWIDTH 25 0
BBX 20 41 3 -8
BITMAP
E00070
E000F0
E001F0
E003F0
E007C0
E00FC0
E00F00
E00F00
E01E00
E03800
E07800
E0F800
E3F000
E3E000
E3C000
E38000
F78000
FEC000
FC7000
FC7000
FC7800
F01E00
E00F00
E00F00
E00700
E00780
E003C0
E001E0
E001F0
E001F0
E00070
C00060
000000
007000
007000
007000
00C000
00C000
00E000
00C000
00C000
ENDCHAR
STARTCHAR $0137
ENCODING 311
SWIDTH 518 0
DWIDTH 22 0
BBX 17 41 3 -8
BITMAP
E00000
E00000
E00000
E00000
E00000
E00000
E00000
E00000
E00F80
E01F00
E01E00
E01E00
E03800
E07000
E07000
E0E000
E3C000
E38000
E30000
E70000
FF8000
FFC000
FFF000
FFF000
F8F800
F07800
E03C00
E00E00
E00E00
E00E00
E00780
C00300
000000
00C000
038000
038000
038000
038000
038000
070000
060000
ENDCHAR
STARTCHAR $0139
ENCODING 313
SWIDTH 444 0
DWIDTH 19 0
BBX 17 39 1 5
BITMAP
078000
0F0000
1F0000
FC0000
FC0000
E00000
000000
000000
780000
780000
780000
780000
780000
780000
780000
780000
780000
780000
780000
780000
780000
780000
780000
780000
780000
780000
780000
780000
780000
780000
780000
780000
780000
780000
780000
7C0000
7FFF80
7FFF80
3FFF00
ENDCHAR
STARTCHAR $013A
ENCODING 314
SWIDTH 185 0
DWIDTH 8 0
BBX 9 39 1 5
BITMAP
0780
3F00
7F00
F800
F000
E000
0000
0000
7800
7800
7800
7800
7800
7800
7800
7800
7800
7800
7800
7800
7800
7800
7800
7800
7800
7800
7800
7800
7800
7800
7800
7800
7800
7800
7800
7800
7800
7800
3000
ENDCHAR
STARTCHAR $013B
ENCODING 315
SWIDTH 444 0
DWIDTH 19 0
BBX 16 41 3 -8
BITMAP
E000
E000
E000
E000
E000
E000
E000
E000
E000
E000
E000
E000
E000
E000
E000
E000
E000
E000
E000
E000
E000
E000
E000
E000
E000
E000
E000
E000
F000
FFFE
FFFF
FFFE
0000
0380
0380
0380
0380
0380
0380
0700
0600
ENDCHAR
STARTCHAR $013C
ENCODING 316
SWIDTH 185 0
DWIDTH 8 0
BBX 5 41 1 -8
BITMAP
78
78
78
78
78
78
78
78
78
78
78
78
78
78
78
78
78
78
78
78
78
78
78
78
78
78
78
78
78
78
70
30
00
78
78
78
E0
E0
E0
E0
C0
ENDCHAR
STARTCHAR $013D
ENCODING 317
SWIDTH 444 0
DWIDTH 19 0
BBX 16 32 3 0
BITMAP
E0C0
E0C0
E0C0
E3C0
E380
E380
E380
E380
E000
E000
E000
E000
E000
E000
E000
E000
E000
E000
E000
E000
E000
E000
E000
E000
E000
E000
E000
E000
F000
FFFE
FFFF
FFFE
ENDCHAR
STARTCHAR $013E
ENCODING 318
SWIDTH 185 0
DWIDTH 8 0
BBX 10 32 3 0
BITMAP
E0C0
E1C0
E3C0
E380
E380
E380
E780
E700
E000
E000
E000
E000
E000
E000
E000
E000
E000
E000
E000
E000
E000
E000
E000
E000
E000
E000
E000
E000
E000
E000
E000
C000
ENDCHAR
STARTCHAR $013F
ENCODING 319
SWIDTH 444 0
DWIDTH 19 0
BBX 16 32 3 0
BITMAP
E000
E000
E000
E000
E000
E000
E000
E000
E000
E000
E000
E000
E030
E070
E070
E070
E070
E000
E000
E000
E000
E000
E000
E000
E000
E000
E000
E000
F000
FFFE
FFFF
FFFE
ENDCHAR
STARTCHAR $0140
ENCODING 320
SWIDTH 259 0
DWIDTH 11 0
BBX 8 32 3 0
BITMAP
E0
E0
E0
E0
E0
E0
E0
E0
E0
E0
E0
E0
E6
E7
E7
E7
E7
E0
E0
E0
E0
E0
E0
E0
E0
E0
E0
E0
E0
E0
E0
C0
ENDCHAR
STARTCHAR $0141
ENCODING 321
SWIDTH 518 0
DWIDTH 22 0
BBX 20 32 1 0
BITMAP
1C0000
1C0000
1C0000
1C0000
1C0000
1C0000
1C0000
1C0000
1C0800
1C1800
1C7800
1CF800
1FF000
1F8000
1F8000
3F0000
7C0000
FC0000
DC0000
9C0000
1C0000
1C0000
1C0000
1C0000
1C0000
1C0000
1C0000
1C0000
1C0000
1FFFF0
1FFFF0
1FFFE0
ENDCHAR
STARTCHAR $0142
ENCODING 322
SWIDTH 296 0
DWIDTH 13 0
BBX 9 32 1 0
BITMAP
1C00
1C00
1C00
1C00
1C00
1C00
1C00
1C00
1C00
1C00
1C00
1C80
1F80
1C00
3C00
FC00
FC00
BC00
1C00
1C00
1C00
1C00
1C00
1C00
1C00
1C00
1C00
1C00
1C00
1C00
1C00
1C00
ENDCHAR
STARTCHAR $0143
ENCODING 323
SWIDTH 740 0
DWIDTH 32 0
BBX 25 39 3 5
BITMAP
0007C000
000F8000
000F8000
001C0000
00180000
00300000
00000000
00000000
F8000380
FC000380
FC000380
FC000380
FE000380
E7000380
E7800380
E3800380
E3800380
E0C00380
E0F00380
E0F00380
E0700380
E0180380
E01C0380
E01E0380
E03F0380
E00F8380
E00F8380
E0038380
E0018380
E001C380
E000F380
E000FF80
E0007F80
E0003F80
E0003F80
E0001F80
E0000780
E0000780
E0000380
ENDCHAR
STARTCHAR $0144
ENCODING 324
SWIDTH 592 0
DWIDTH 25 0
BBX 20 33 3 1
BITMAP
000700
001F00
003E00
007C00
03F800
03E000
000000
000000
000000
E3F800
E7FC00
FFFF80
FC07C0
F801C0
F801C0
E000C0
E000C0
E00070
E00070
E00070
E00070
E00070
E00070
E00070
E00070
E00070
E00070
E00070
E00070
E00070
E00070
E00070
E00070
ENDCHAR
STARTCHAR $0145
ENCODING 325
SWIDTH 740 0
DWIDTH 32 0
BBX 25 41 3 -8
BITMAP
FC000380
FC000380
FC000380
FC000380
FC000380
E7000380
E7800380
E7800380
E3800380
E0C00380
E0E00380
E0F00380
E0700380
E0380380
E0180380
E01E0380
E01F0380
E00F8380
E0078380
E0038380
E001C380
E000C380
E000E380
E000F380
E0003380
E0003F80
E0003F80
E0001F80
E0000F80
E0000780
E0000380
C0000180
00000000
00180000
00180000
00180000
00180000
00380000
00700000
00300000
00100000
ENDCHAR
STARTCHAR $0146
ENCODING 326
SWIDTH 592 0
DWIDTH 25 0
BBX 20 33 3 -9
BITMAP
E3F800
FFFF80
FFFFC0
FC07C0
FC01C0
FC01C0
E000C0
E000C0
E00070
E00070
E00070
E00070
E00070
E00070
E00070
E00070
E00070
E00070
E00070
E00070
E00070
E00070
E00070
E00020
000000
00F000
00E000
00C000
00C000
00C000
00C000
01C000
038000
ENDCHAR
STARTCHAR $0147
ENCODING 327
SWIDTH 740 0
DWIDTH 32 0
BBX 25 39 3 3
BITMAP
0381C000
01C18000
00E38000
007E0000
003E0000
00380000
00000000
00000000
F8000380
FC000380
FC000380
FC000380
FE000380
E7000380
E7800380
E3800380
E3800380
E0C00380
E0F00380
E0F00380
E0700380
E0180380
E01C0380
E01E0380
E03F0380
E00F8380
E00F8380
E0038380
E0018380
E001C380
E000F380
E000FF80
E0007F80
E0003F80
E0003F80
E0001F80
E0000780
E0000780
E0000380
ENDCHAR
STARTCHAR $0148
ENCODING 328
SWIDTH 592 0
DWIDTH 25 0
BBX 20 32 3 0
BITMAP
1C0E00
079E00
07BC00
03F800
03F000
000000
000000
000000
E1FC00
FFFF80
FF4F80
FC07C0
F800C0
F000C0
E000C0
E000E0
E00070
E00070
E00070
E00070
E00070
E00070
E00070
E00070
E00070
E00070
E00070
E00070
E00070
E00070
E00070
C00060
ENDCHAR
STARTCHAR $014A
ENCODING 330
SWIDTH 740 0
DWIDTH 32 0
BBX 25 42 3 -11
BITMAP
FC000380
FC000380
FC000380
FC000380
FC000380
E7000380
E7800380
E7800380
E3800380
E0C00380
E0E00380
E0F00380
E0700380
E0380380
E0180380
E01E0380
E01F0380
E00F8380
E0078380
E0038380
E001C380
E000C380
E000E380
E000F380
E0003380
E0003F80
E0003F80
E0001F80
E0000F80
E0000780
E0000380
C0000380
00000380
00000380
00C00380
00600300
00700F00
00783F00
003C3C00
001FF800
001FF800
000FC000
ENDCHAR
STARTCHAR $014B
ENCODING 331
SWIDTH 592 0
DWIDTH 25 0
BBX 20 32 3 -8
BITMAP
E3F800
FFFF80
FFFFC0
FC07C0
FC01C0
FC01C0
E000C0
E000C0
E00070
E00070
E00070
E00070
E00070
E00070
E00070
E00070
E00070
E00070
E00070
E00070
E00070
E00070
E00070
E00070
000070
0000C0
0000C0
0001C0
0001C0
000F80
000700
000200
ENDCHAR
STARTCHAR $014C
ENCODING 332
SWIDTH 851 0
DWIDTH 36 0
BBX 33 37 1 4
BITMAP
007FFF0000
007FFF0000
007FFF0000
0000000000
0000000000
0000000000
000FFC0000
000FFE0000
00FFFF8000
03E007E000
03C000F000
0780007800
0C00001C00
1C00001E00
3C00001F00
7C00000F00
7800000780
7800000780
F000000380
F000000380
E000000380
E000000380
E000000380
E000000380
E000000380
7800000380
7800000380
7800000700
7800000700
7C00000F00
1F00001F00
1FC0003E00
03C0007800
01C003E000
00FFFF8000
007FFF0000
001FF80000
ENDCHAR
STARTCHAR $014D
ENCODING 333
SWIDTH 666 0
DWIDTH 28 0
BBX 25 30 1 2
BITMAP
07FFC000
07FFC000
03FFC000
00000000
00000000
00000000
007F8000
00FF8000
03FFF000
0F007800
0E003800
7C003C00
78000F00
F8000F00
F8000F00
E0000F00
E0000F80
E0000380
E0000F00
E0000F00
F0000F00
F8000F00
78000F00
7C001F00
7E003C00
1F007C00
1FFFF800
07FFF000
07FFE000
00FF8000
ENDCHAR
STARTCHAR $014E
ENCODING 334
SWIDTH 851 0
DWIDTH 36 0
BBX 33 37 1 4
BITMAP
00180F0000
001FFE0000
001FFC0000
000FF80000
0007F00000
0000000000
000FFC0000
000FFE0000
00FFFF8000
03E007E000
03C000F000
0780007800
0C00001C00
1C00001E00
3C00001F00
7C00000F00
7800000780
7800000780
F000000380
F000000380
E000000380
E000000380
E000000380
E000000380
E000000380
7800000380
7800000380
7800000700
7800000700
7C00000F00
1F00001F00
1FC0003E00
03C0007800
01C003E000
00FFFF8000
007FFF0000
001FF80000
ENDCHAR
STARTCHAR $014F
ENCODING 335
SWIDTH 666 0
DWIDTH 28 0
BBX 25 32 1 0
BITMAP
0380C000
0380C000
0181C000
00FF8000
00FF8000
00300000
00000000
00000000
00FF8000
03FFF000
0748F000
1F007800
7C003F00
78001F00
78000F00
F8000F00
F8000F00
E0000F00
E0000380
E0000380
E0000700
F0000F00
F8000F00
F8000F00
7C000E00
7C003C00
3F003C00
1F80F800
0F80F800
07FFF000
00FF8000
00FF0000
ENDCHAR
STARTCHAR $0150
ENCODING 336
SWIDTH 851 0
DWIDTH 36 0
BBX 33 39 1 3
BITMAP
0000407800
0001C0C000
0003C0C000
000787C000
000F8F8000
00180F0000
0000000000
0000000000
000FFC0000
00FFFF8000
01E817C000
03C007E000
07E000F800
0C00007C00
1C00007C00
3C00001F00
7C00001F00
7C00000780
7800000380
7800000380
F000000380
E000000380
E000000380
E000000380
E000000380
E000000380
E000000380
7800000380
7800000780
7800000700
7C00001F00
3E00001F00
0F00003E00
0380007C00
03C001F800
01E003F800
007FFF0000
001FFC0000
003FF80000
ENDCHAR
STARTCHAR $0151
ENCODING 337
SWIDTH 666 0
DWIDTH 28 0
BBX 25 32 1 0
BITMAP
000E0F00
007E1F00
007C3F00
00F8F800
00F0F000
00C0E000
00000000
00000000
00FF8000
03FFF000
0748F000
1F007800
7C003F00
78001F00
78000F00
F8000F00
F8000F00
E0000F00
E0000380
E0000380
E0000700
F0000F00
F8000F00
F8000F00
7C000E00
7C003C00
3F003C00
1F80F800
0F80F800
07FFF000
00FF8000
00FF0000
ENDCHAR
STARTCHAR $0152
ENCODING 338
SWIDTH 1185 0
DWIDTH 50 0
BBX 47 32 1 0
BITMAP
001FFC03FFFE
00FFFF83FFFE
00FFFF83FFFE
03C007F38000
03C003FF8000
038000FF8000
1E00003F8000
1C00003F8000
7C00001F8000
7C0000078000
780000078000
780000078000
F00000038000
E0000003FFF8
E0000003FFF8
E0000003FFF8
E0000003FFF8
E00000038000
780000038000
780000038000
780000078000
7C0000078000
7C00000F8000
3C00001F8000
1E00003F8000
0780007F8000
03C003FF8000
03F007E38000
03F007C3C000
00FFFF03FFFE
003FF803FFFC
001FF801FFE8
ENDCHAR
STARTCHAR $0153
ENCODING 339
SWIDTH 1148 0
DWIDTH 49 0
BBX 45 24 1 0
BITMAP
00FF8007F800
07FFC07FFF00
07FFC0FFFF80
1F80F0F807C0
1C0078E003C0
7C0038E001C0
70001F8000E0
70000F800060
F0000F800020
E0000FFFFFF8
E0000FFFFFF8
E0000FFFFFF8
E0000F000000
F0000F800000
F0000F800000
F8000F800000
78000F800060
7C001DC000E0
1F0030FC07C0
1F0060FC07C0
0FFFC03FFF80
03FFC01FFE00
01FF800FF800
00FF8007F000
ENDCHAR
STARTCHAR $0154
ENCODING 340
SWIDTH 592 0
DWIDTH 25 0
BBX 22 39 3 5
BITMAP
001E00
007E00
007C00
03F800
03F000
00C000
000000
000000
FFFC00
FFFF80
E54F80
E007C0
E00070
E00070
E00070
E00078
E0007C
E0003C
E0003C
E0007C
E00078
E00070
E00070
E00060
E007C0
E3FF80
E0F000
E07000
E07000
E01800
E01E00
E03E00
E01F00
E00F80
E00780
E007C0
E000E0
E000F0
E000F0
ENDCHAR
STARTCHAR $0155
ENCODING 341
SWIDTH 296 0
DWIDTH 13 0
BBX 9 32 3 1
BITMAP
0780
3F00
7F00
F800
F000
8000
0000
0000
E180
FF80
FF00
FC00
F800
F000
E000
E000
E000
E000
E000
E000
E000
E000
E000
E000
E000
E000
E000
E000
E000
E000
E000
C000
ENDCHAR
STARTCHAR $0156
ENCODING 342
SWIDTH 592 0
DWIDTH 25 0
BBX 22 41 3 -8
BITMAP
FFF800
FFFF80
FFFFC0
E007C0
E001C0
E00070
E00070
E00070
E0007C
E0003C
E0003C
E0007C
E00078
E00070
E00070
E00070
E001C0
E1FFC0
E0F000
E0F000
E07000
E01800
E01C00
E01E00
E03F00
E00F80
E00F80
E00380
E00180
E001C0
E000F0
C000E0
000000
00C000
00C000
00C000
00C000
00C000
00E000
018000
018000
ENDCHAR
STARTCHAR $0157
ENCODING 343
SWIDTH 296 0
DWIDTH 13 0
BBX 10 33 1 -9
BITMAP
7CC0
7FC0
7FC0
7F80
7C00
7C00
7800
7800
7800
7800
7800
7800
7800
7800
7800
7800
7800
7800
7800
7800
7800
7800
7800
3800
0000
7800
7800
7000
7000
E000
E000
E000
E000
ENDCHAR
STARTCHAR $0158
ENCODING 344
SWIDTH 592 0
DWIDTH 25 0
BBX 22 39 3 3
BITMAP
1C0F80
061F00
073E00
03F800
03F000
00E000
000000
000000
FFFC00
FFFF80
E54F80
E007C0
E00070
E00070
E00070
E00078
E0007C
E0003C
E0003C
E0007C
E00078
E00070
E00070
E00060
E007C0
E3FF80
E0F000
E07000
E07000
E01800
E01E00
E03E00
E01F00
E00F80
E00780
E007C0
E000E0
E000F0
E000F0
ENDCHAR
STARTCHAR $0159
ENCODING 345
SWIDTH 296 0
DWIDTH 13 0
BBX 13 32 -1 0
BITMAP
FC18
7CF0
3EF0
1FC0
0FC0
03C0
0000
0000
0318
07F8
07E8
07C0
07E0
0780
0780
0700
0700
0700
0700
0700
0700
0700
0700
0700
0700
0700
0700
0700
0700
0700
0700
0200
ENDCHAR
STARTCHAR $015A
ENCODING 346
SWIDTH 481 0
DWIDTH 21 0
BBX 18 39 1 3
BITMAP
000800
007800
007800
03F800
03F000
03C000
000000
000000
03F000
0FFE00
0F5E00
7C0F80
780780
F00780
E00780
E00180
F00000
F80000
7C0000
3E0000
1F8000
0FC000
07FC00
03FE00
007F00
000F80
000FC0
0003C0
0001C0
0001C0
E000C0
F001C0
F001C0
FC0380
7C0780
3E0F80
1FFE00
0FF800
07F000
ENDCHAR
STARTCHAR $015B
ENCODING 347
SWIDTH 370 0
DWIDTH 16 0
BBX 16 32 0 1
BITMAP
0018
00F0
00F0
07C0
07C0
0380
0000
0000
03C0
0FF8
0F78
7C18
7838
7800
7800
7C00
7C00
3F80
03F0
01F0
0078
001E
000F
000F
E00F
780F
781E
3818
1838
0FF8
07E0
03C0
ENDCHAR
STARTCHAR $015C
ENCODING 348
SWIDTH 481 0
DWIDTH 21 0
BBX 18 37 1 4
BITMAP
03F000
077800
077800
0C0E00
0C0600
000000
0FF000
0FF800
1FFE00
7C0F80
7C0F80
780780
F00780
E00000
E00000
F00000
F80000
7C0000
1F8000
1F8000
0FF800
03FE00
007F00
007F00
0007C0
0001C0
0001C0
0000C0
0000C0
E000C0
E000C0
F803C0
FC0780
7E0F80
1FFF00
1FFE00
03F000
ENDCHAR
STARTCHAR $015D
ENCODING 349
SWIDTH 370 0
DWIDTH 16 0
BBX 16 32 0 0
BITMAP
0380
07C0
07E0
1C78
1C3E
7C3E
0000
0000
03C0
0FF8
0F78
7C18
7838
7800
7800
7C00
7C00
3F80
03F0
01F0
0078
001E
000F
000F
E00F
780F
781E
3818
1838
0FF8
07E0
03C0
ENDCHAR
STARTCHAR $015E
ENCODING 350
SWIDTH 481 0
DWIDTH 21 0
BBX 18 41 1 -8
BITMAP
07F000
0FFF00
1FFF00
3C0F00
7C0780
7C0780
E00380
E00180
E00000
F00000
7C0000
7C0000
1F8000
0FF800
0FF800
03FE00
007F00
000F80
0007C0
0003C0
0001C0
0000C0
C000C0
E000C0
E001C0
E00180
E00F80
780F00
780F00
7FFF00
07F800
03F800
00E000
03F000
03F800
01F800
000800
000800
01B800
03F000
01F000
ENDCHAR
STARTCHAR $015F
ENCODING 351
SWIDTH 370 0
DWIDTH 16 0
BBX 13 33 1 -9
BITMAP
1F80
3FF0
7FF0
F870
F070
E070
E000
E000
F800
7F00
3F40
1FE0
01F0
00F8
0078
0018
0018
C018
E070
E070
FFF0
FFF0
7FE0
3FC0
0300
07C0
07C0
07F0
07F0
0070
1C70
1FE0
03C0
ENDCHAR
STARTCHAR $0160
ENCODING 352
SWIDTH 481 0
DWIDTH 21 0
BBX 18 37 1 4
BITMAP
1C1E00
07F000
07F000
03C000
03C000
000000
0FF000
0FF800
1FFE00
7C0F80
7C0F80
780780
F00780
E00000
E00000
F00000
F80000
7C0000
1F8000
1F8000
0FF800
03FE00
007F00
007F00
0007C0
0001C0
0001C0
0000C0
0000C0
E000C0
E000C0
F803C0
FC0780
7E0F80
1FFF00
1FFE00
03F000
ENDCHAR
STARTCHAR $0161
ENCODING 353
SWIDTH 370 0
DWIDTH 16 0
BBX 16 32 0 0
BITMAP
7C1E
3C7E
1E7C
0FC0
07C0
03C0
0000
0000
03C0
0FF8
0F78
7C18
7838
7800
7800
7C00
7C00
3F80
03F0
01F0
0078
001E
000F
000F
E00F
780F
781E
3818
1838
0FF8
07E0
03C0
ENDCHAR
STARTCHAR $0162
ENCODING 354
SWIDTH 444 0
DWIDTH 19 0
BBX 17 41 0 -8
BITMAP
FFFF80
FFFF80
FFFF80
00C000
00C000
00E000
00C000
00E000
00C000
00E000
00C000
00C000
00E000
00C000
00C000
00C000
00C000
00C000
00C000
00E000
00C000
00C000
00C000
00C000
00E000
00C000
00C000
00C000
00C000
00C000
00C000
00E000
00E000
03F000
03F000
01F000
001800
041800
07B800
03F000
01F000
ENDCHAR
STARTCHAR $0163
ENCODING 355
SWIDTH 333 0
DWIDTH 14 0
BBX 13 41 0 -8
BITMAP
0780
0780
0780
0780
0780
0780
0F80
0F80
FFF8
FFF8
0FC8
0F80
0780
0780
0780
0780
0780
0780
0780
0780
0780
0780
0780
0780
0780
0780
0780
0780
0780
0780
0780
0780
0700
0780
1FC0
1FE0
0070
0C70
0C60
07C0
07C0
ENDCHAR
STARTCHAR $0164
ENCODING 356
SWIDTH 444 0
DWIDTH 19 0
BBX 17 39 0 3
BITMAP
7C0E00
3E1E00
1F3C00
03F800
03F000
00E000
000000
000000
FFFF80
FFFF80
05E800
00C000
00E000
00C000
00C000
00C000
00C000
00C000
00C000
00E000
00C000
00C000
00C000
00C000
00E000
00C000
00C000
00C000
00C000
00C000
00C000
00E000
00C000
00C000
00C000
00C000
00C000
00C000
006000
ENDCHAR
STARTCHAR $0165
ENCODING 357
SWIDTH 333 0
DWIDTH 14 0
BBX 13 32 0 0
BITMAP
0798
0798
0798
0798
0798
07B8
0F80
0F80
FFF8
FFF8
0FC8
0F80
0780
0780
0780
0780
0780
0780
0780
0780
0780
0780
0780
0780
0780
0780
0780
0780
0780
0780
0780
0380
ENDCHAR
STARTCHAR $0168
ENCODING 360
SWIDTH 666 0
DWIDTH 28 0
BBX 22 39 3 3
BITMAP
008000
07C100
07E300
047F00
043F80
000000
000000
000000
E0003C
E0003C
E0003C
E0003C
E0003C
E0003C
E0003C
E0003C
E0003C
E0003C
E0003C
E0003C
E0003C
E0003C
E0003C
E0003C
E0003C
E0003C
E0003C
E0003C
E0003C
E00038
E00070
F80070
F80070
7C0070
7C00C0
3E01C0
1FFF80
03FF00
03FE00
ENDCHAR
STARTCHAR $0169
ENCODING 361
SWIDTH 592 0
DWIDTH 25 0
BBX 20 32 3 0
BITMAP
030000
0FFF00
0FFE00
0C7C00
043800
000000
000000
000000
E00070
E00070
E00070
E00070
E00070
E00070
E00070
E00070
E00070
E00070
E00070
E00070
E00070
E00070
E00070
E00070
E000F0
F800F0
FC01F0
3C07F0
1C07F0
0FFF70
07F070
03E060
ENDCHAR
STARTCHAR $016A
ENCODING 362
SWIDTH 666 0
DWIDTH 28 0
BBX 22 37 3 4
BITMAP
1FFF80
1FFF80
1FFF80
000000
000000
000000
C0001C
E0003C
E0003C
E0003C
E0003C
E0003C
E0003C
E0003C
E0003C
E0003C
E0003C
E0003C
E0003C
E0003C
E0003C
E0003C
E0003C
E0003C
E0003C
E0003C
E0003C
E00038
E00038
F00070
F80070
F80070
7C0070
7E01C0
1FFF80
1FFF80
03FE00
ENDCHAR
STARTCHAR $016B
ENCODING 363
SWIDTH 592 0
DWIDTH 25 0
BBX 20 30 3 2
BITMAP
1FFF80
1FFF80
1FFF80
000000
000000
000000
C00020
E00070
E00070
E00070
E00070
E00070
E00070
E00070
E00070
E00070
E00070
E00070
E00070
E00070
E00070
E00070
F000F0
F000F0
FC01F0
7C01F0
3FFF70
1FFE70
0FFE70
07F030
ENDCHAR
STARTCHAR $016C
ENCODING 364
SWIDTH 666 0
DWIDTH 28 0
BBX 22 39 3 3
BITMAP
070780
070780
070780
03FE00
03FE00
006000
000000
000000
E0003C
E0003C
E0003C
E0003C
E0003C
E0003C
E0003C
E0003C
E0003C
E0003C
E0003C
E0003C
E0003C
E0003C
E0003C
E0003C
E0003C
E0003C
E0003C
E0003C
E0003C
E00038
E00070
F80070
F80070
7C0070
7C00C0
3E01C0
1FFF80
03FF00
03FE00
ENDCHAR
STARTCHAR $016D
ENCODING 365
SWIDTH 592 0
DWIDTH 25 0
BBX 20 32 3 0
BITMAP
1C0700
1C0F00
1E0E00
0FFC00
07F800
00E000
000000
000000
E00070
E00070
E00070
E00070
E00070
E00070
E00070
E00070
E00070
E00070
E00070
E00070
E00070
E00070
E00070
E00070
E000F0
F800F0
FC01F0
3C07F0
1C07F0
0FFF70
07F070
03E060
ENDCHAR
STARTCHAR $016E
ENCODING 366
SWIDTH 666 0
DWIDTH 28 0
BBX 22 42 3 0
BITMAP
00F000
008800
008800
030E00
030F00
030F00
038800
038800
00F000
000000
000000
E00008
E0003C
E0003C
E0003C
E0003C
E0003C
E0003C
E0003C
E0003C
E0003C
E0003C
E0003C
E0003C
E0003C
E0003C
E0003C
E0003C
E0003C
E0003C
E0003C
E0003C
E00038
F00070
F00070
F00070
7C0070
7C00C0
3C01C0
1FFFC0
0FFF80
03FF00
ENDCHAR
STARTCHAR $016F
ENCODING 367
SWIDTH 592 0
DWIDTH 25 0
BBX 20 34 3 2
BITMAP
00F000
013800
031800
070800
070800
031800
03F000
03F000
000000
000000
000000
E00070
E00070
E00070
E00070
E00070
E00070
E00070
E00070
E00070
E00070
E00070
E00070
E00070
E00070
E00070
E000F0
E000F0
F000F0
F800F0
7C07F0
3FFFF0
0FFE70
03F070
ENDCHAR
STARTCHAR $0170
ENCODING 368
SWIDTH 666 0
DWIDTH 28 0
BBX 22 39 3 5
BITMAP
00783C
00F0F8
00F1F8
03C3F0
0383C0
038300
000000
000000
E0003C
E0003C
E0003C
E0003C
E0003C
E0003C
E0003C
E0003C
E0003C
E0003C
E0003C
E0003C
E0003C
E0003C
E0003C
E0003C
E0003C
E0003C
E0003C
E0003C
E0003C
E00038
E00070
F80070
F80070
7C0070
7C00C0
3E01C0
1FFF80
03FF00
03FE00
ENDCHAR
STARTCHAR $0171
ENCODING 369
SWIDTH 592 0
DWIDTH 25 0
BBX 20 33 3 1
BITMAP
000030
007070
007070
03C1F0
03C1C0
03C7C0
060300
040100
000000
E00070
E00070
E00070
E00070
E00070
E00070
E00070
E00070
E00070
E00070
E00070
E00070
E00070
E00070
E00070
E00070
E000F0
E000F0
F801F0
F801F0
7C07F0
1FFF70
1FFE70
03F070
ENDCHAR
STARTCHAR $0172
ENCODING 370
SWIDTH 666 0
DWIDTH 28 0
BBX 22 41 3 -8
BITMAP
E0003C
E0003C
E0003C
E0003C
E0003C
E0003C
E0003C
E0003C
E0003C
E0003C
E0003C
E0003C
E0003C
E0003C
E0003C
E0003C
E0003C
E0003C
E0003C
E0003C
E0003C
E00038
F00070
F00070
F80070
780070
7C00E0
3C01C0
1C01C0
0FFF80
03FF00
01FE00
003000
007000
00E000
00E000
007000
007E00
003E00
001F00
001F00
ENDCHAR
STARTCHAR $0173
ENCODING 371
SWIDTH 592 0
DWIDTH 25 0
BBX 20 33 3 -9
BITMAP
E00070
E00070
E00070
E00070
E00070
E00070
E00070
E00070
E00070
E00070
E00070
E00070
E00070
E00070
E00070
E00070
F000F0
F800F0
7C01F0
3E03F0
1FFF70
0FFE70
07F070
03F060
0001C0
000180
000700
000780
000780
0007C0
0001F0
0001F0
0000F0
ENDCHAR
STARTCHAR $0174
ENCODING 372
SWIDTH 962 0
DWIDTH 41 0
BBX 39 39 0 3
BITMAP
00003C0000
00007E0000
00007F0000
0001F78000
0001C38000
0007C1E000
0000000000
0000000000
E0003C000C
70003C000E
78003C000E
78007C000E
78007F000E
18007F000C
1C007F001C
1C007F0038
1C00CF0038
1C00C30038
1C00C38070
1E00C38070
0F00C38070
0701C38070
070383C070
070781C070
030780C060
038780C0C0
038780C1C0
038700E1C0
038700E1C0
038F007BC0
038F007B80
01CE007B80
00EE007B80
00FC007B80
00F8003F80
0078003F80
0078003F00
0078003F00
0038001F00
ENDCHAR
STARTCHAR $0175
ENCODING 373
SWIDTH 814 0
DWIDTH 35 0
BBX 34 32 0 0
BITMAP
0001F00000
0001F80000
0003F80000
001E0C0000
000E070000
0000000000
0000000000
0000000000
E0000001C0
70000001C0
7800000180
7800C00380
7C01F00380
1C01F00380
1C01F00380
1C03F00300
0C07F00700
0707FC0700
07073C1C00
07073C3C00
07073C3C00
030F3C3C00
038F1E3C00
038E0F3C00
03880F7800
03F80F6000
00F8076000
00F8034000
00F8034000
00F003C000
007003C000
002001C000
ENDCHAR
STARTCHAR $0176
ENCODING 374
SWIDTH 592 0
DWIDTH 25 0
BBX 25 39 0 3
BITMAP
00180000
007F0000
007F0000
00C70000
03C18000
03C1F000
00000000
00000000
F8000F80
78000F00
7C000F00
7C000F00
1C003C00
1C007C00
1E007C00
0F007800
07007000
0780F000
0380C000
0380C000
03C18000
03C78000
01F78000
00F78000
00FF0000
007F0000
003E0000
00180000
00180000
00180000
00180000
00380000
00180000
00180000
00180000
00180000
00180000
00180000
00380000
ENDCHAR
STARTCHAR $0177
ENCODING 375
SWIDTH 518 0
DWIDTH 22 0
BBX 22 39 0 -6
BITMAP
007800
00FF00
00FF00
07C700
078180
000000
000000
000000
F8003C
78007C
780078
780078
1C0070
1C0070
1C0060
1E00C0
0F00C0
0707C0
070780
070780
038780
038F80
038F00
038F00
01EE00
00FE00
00F800
007800
007800
007000
007000
00F000
00F000
00C000
00C000
00C000
038000
038000
038000
ENDCHAR
STARTCHAR $0178
ENCODING 376
SWIDTH 592 0
DWIDTH 25 0
BBX 25 39 0 3
BITMAP
00C78000
00C78000
00C78000
00C78000
00C18000
00000000
00000000
00000000
F8000F80
78000F00
7C000F00
7C000F00
1C003C00
1C007C00
1E007C00
0F007800
07007000
0780F000
0380C000
0380C000
03C18000
03C78000
01F78000
00F78000
00FF0000
007F0000
003E0000
00180000
00180000
00180000
00180000
00380000
00180000
00180000
00180000
00180000
00180000
00180000
00380000
ENDCHAR
STARTCHAR $0179
ENCODING 377
SWIDTH 481 0
DWIDTH 21 0
BBX 20 39 0 5
BITMAP
000F00
007F00
007E00
00F800
00F000
00C000
000000
000000
7FFFC0
7FFFC0
0549C0
0001C0
0003C0
000780
000780
000F80
000F00
001F00
001E00
003C00
001800
007800
007000
007000
00E000
03C000
03C000
038000
078000
078000
0F0000
1E0000
1C0000
7C0000
780000
7C0000
FFFFF0
FFFFF0
FFFFF0
ENDCHAR
STARTCHAR $017A
ENCODING 378
SWIDTH 407 0
DWIDTH 18 0
BBX 17 33 0 1
BITMAP
000800
007F00
007E00
00F800
03F000
03E000
038000
030000
000000
1FFF80
3FFF80
7FFF80
000E00
000E00
000E00
003C00
007800
007800
00F000
01F000
03C000
03C000
038000
038000
070000
0F0000
7E0000
7C0000
780000
780000
FFFF80
FFFF80
FFFF80
ENDCHAR
STARTCHAR $017B
ENCODING 379
SWIDTH 481 0
DWIDTH 21 0
BBX 20 39 0 3
BITMAP
007000
007000
007000
007000
003000
000000
000000
000000
7FFFC0
7FFFC0
0549C0
0001C0
0003C0
000780
000780
000F80
000F00
001F00
001E00
003C00
001800
007800
007000
007000
00E000
03C000
03C000
038000
078000
078000
0F0000
1E0000
1C0000
7C0000
780000
7C0000
FFFFF0
FFFFF0
FFFFF0
ENDCHAR
STARTCHAR $017C
ENCODING 380
SWIDTH 407 0
DWIDTH 18 0
BBX 17 32 0 0
BITMAP
00C000
00C000
00C000
00C000
00C000
000000
000000
000000
7FFF80
7FFF80
055F00
000E00
000C00
001800
003800
007000
007000
00C000
01C000
03E000
03C000
038000
070000
070000
3F0000
7C0000
7C0000
780000
780000
FFFF80
FFFF80
FFFF00
ENDCHAR
STARTCHAR $017D
ENCODING 381
SWIDTH 481 0
DWIDTH 21 0
BBX 20 39 0 3
BITMAP
1F0780
079F00
07BE00
03FC00
03F800
007000
000000
000000
7FFFC0
7FFFC0
0549C0
0001C0
0003C0
000780
000780
000F80
000F00
001F00
001E00
003C00
001800
007800
007000
007000
00E000
03C000
03C000
038000
078000
078000
0F0000
1E0000
1C0000
7C0000
780000
7C0000
FFFFF0
FFFFF0
FFFFF0
ENDCHAR
STARTCHAR $017E
ENCODING 382
SWIDTH 407 0
DWIDTH 18 0
BBX 17 32 0 0
BITMAP
7C1E00
067E00
077C00
03F800
03F000
000000
000000
000000
7FFF80
7FFF80
055F00
000E00
000C00
001800
003800
007000
007000
00C000
01C000
03E000
03C000
038000
070000
070000
3F0000
7C0000
7C0000
780000
780000
FFFF80
FFFF80
FFFF00
ENDCHAR
STARTCHAR $017F
ENCODING 383
SWIDTH 296 0
DWIDTH 13 0
BBX 12 32 0 0
BITMAP
0070
01F0
03F0
07C0
0780
0780
0F00
0F00
FF00
FF00
0F00
0F00
0700
0700
0700
0700
0700
0700
0700
0700
0700
0700
0700
0700
0700
0700
0700
0700
0700
0700
0700
0200
ENDCHAR
STARTCHAR $018E
ENCODING 398
SWIDTH 518 0
DWIDTH 22 0
BBX 17 32 3 0
BITMAP
FFFF80
FFFF80
FFFF80
000780
000780
000780
000780
000780
000780
000780
000780
000780
000780
FFFF80
FFFF80
FFFF80
FFFF80
000780
000780
000780
000780
000780
000780
000780
000780
000780
000780
000780
000780
FFFF80
FFFF80
FFFF00
ENDCHAR
STARTCHAR $0192
ENCODING 402
SWIDTH 555 0
DWIDTH 24 0
BBX 22 41 1 -4
BITMAP
00007C
0000FC
0001FC
000380
000780
000F00
000F00
000F00
000F00
00FFF0
01FFF0
03FFF0
003C00
001800
001800
001800
001800
001800
001000
003000
001000
007000
007000
007000
007000
007000
006000
004000
00C000
00C000
00C000
00E000
00C000
00C000
038000
038000
038000
FF0000
FF0000
FE0000
FC0000
ENDCHAR
STARTCHAR $01A0
ENCODING 416
SWIDTH 851 0
DWIDTH 36 0
BBX 33 32 1 0
BITMAP
000FFC0380
00FFFF8380
00FFFF8380
03C007F380
03C003FF00
03C000FF00
1E00003F00
1C00003F00
7C00001F00
7C00000700
7800000700
7800000780
F000000380
E000000380
E000000380
E000000380
E000000380
E000000380
7800000380
7800000380
7800000780
7C00000700
7C00000C00
3E00001C00
1F00003C00
0780007C00
03C003FC00
03F007E000
03F007C000
00FFFF0000
003FF80000
001FF80000
ENDCHAR
STARTCHAR $01A1
ENCODING 417
SWIDTH 666 0
DWIDTH 28 0
BBX 26 24 1 0
BITMAP
00FF80C0
07FFE080
07FFF080
1F80FF80
1C007F80
7C003F00
78001F00
78000F00
F8000F00
F0000F80
E0000780
E0000780
E0000700
F0000F00
F0000F00
F8000F00
78000F00
7C001C00
1F003C00
1F007C00
0FFFF800
03FFF000
01FF8000
00FF8000
ENDCHAR
STARTCHAR $01AF
ENCODING 431
SWIDTH 703 0
DWIDTH 30 0
BBX 26 32 3 0
BITMAP
E0003CC0
E0003C80
E0003E80
E0003F80
E0003F80
E0003F00
E0003E00
E0003C00
E0003C00
E0003C00
E0003C00
E0003C00
E0003C00
E0003C00
E0003C00
E0003C00
E0003C00
E0003C00
E0003C00
E0003C00
E0003C00
E0003800
F0007000
F0007000
F8007000
78007000
7C01E000
3C07C000
1C07C000
0FFF8000
03F80000
01F80000
ENDCHAR
STARTCHAR $01B0
ENCODING 432
SWIDTH 666 0
DWIDTH 28 0
BBX 25 24 3 0
BITMAP
E0007380
E0007380
E0007300
E0007F00
E0007F00
E0007F00
E0007E00
E0007C00
E0007000
E0007000
E0007000
E0007000
E0007000
E0007000
E0007000
E0007000
F000F000
F800F000
7C01F000
3E03F000
1FFF7000
0FFE7000
07F07000
03F02000
ENDCHAR
STARTCHAR $01CD
ENCODING 461
SWIDTH 740 0
DWIDTH 32 0
BBX 29 39 1 3
BITMAP
03C07000
0070E000
0071C000
001F8000
000F8000
000F0000
00000000
00000000
000E0000
001F8000
001F8000
001F8000
0038C000
0070C000
0070C000
0070C000
00F0C000
00C07000
00C07000
01E07000
03C03800
03803C00
03803C00
03803E00
07003F00
07FFFF00
0FFFFF00
1FFFFF00
1FFFFF00
1E000380
1C000380
3C0001C0
780000C0
780000E0
E00000E0
E00000F0
E0000078
E0000078
E0000030
ENDCHAR
STARTCHAR $01CE
ENCODING 462
SWIDTH 666 0
DWIDTH 28 0
BBX 25 32 1 0
BITMAP
0381F000
03C18000
01E38000
007E0000
003E0000
00380000
00000000
00000000
00FF8380
03FFF380
0748F380
1F007F80
7C003F80
78001F80
78000F80
F8000F80
F8000F80
E0000380
E0000380
E0000380
E0000380
F0000780
F8000F80
F8000F80
7C000F80
7C003F80
3F003F80
1F80F380
0F80E380
07FFC380
00FF8380
00FF0180
ENDCHAR
STARTCHAR $01CF
ENCODING 463
SWIDTH 222 0
DWIDTH 10 0
BBX 13 39 -1 3
BITMAP
E078
78E0
3CC0
1FC0
0F80
0780
0000
0000
0300
0700
0700
0700
0700
0700
0700
0700
0700
0700
0700
0700
0700
0700
0700
0700
0700
0700
0700
0700
0700
0700
0700
0700
0700
0700
0700
0700
0700
0700
0700
ENDCHAR
STARTCHAR $01D0
ENCODING 464
SWIDTH 185 0
DWIDTH 8 0
BBX 13 32 -3 0
BITMAP
FC78
3CF0
1EF0
0FC0
07C0
0000
0000
0000
0180
0380
0380
0380
0380
0380
0380
0380
0380
0380
0380
0380
0380
0380
0380
0380
0380
0380
0380
0380
0380
0380
0380
0180
ENDCHAR
STARTCHAR $01D1
ENCODING 465
SWIDTH 851 0
DWIDTH 36 0
BBX 33 37 1 4
BITMAP
00183F0000
000FF80000
000FF80000
0007F00000
0001C00000
0000000000
000FFC0000
000FFE0000
00FFFF8000
03E007E000
03C000F000
0780007800
0C00001C00
1C00001E00
3C00001F00
7C00000F00
7800000780
7800000780
F000000380
F000000380
E000000380
E000000380
E000000380
E000000380
E000000380
7800000380
7800000380
7800000700
7800000700
7C00000F00
1F00001F00
1FC0003E00
03C0007800
01C003E000
00FFFF8000
007FFF0000
001FF80000
ENDCHAR
STARTCHAR $01D2
ENCODING 466
SWIDTH 666 0
DWIDTH 28 0
BBX 25 32 1 0
BITMAP
0381F000
03C18000
01E38000
007E0000
003E0000
00380000
00000000
00000000
00FF8000
03FFF000
0748F000
1F007800
7C003F00
78001F00
78000F00
F8000F00
F8000F00
E0000F00
E0000380
E0000380
E0000700
F0000F00
F8000F00
F8000F00
7C000E00
7C003C00
3F003C00
1F80F800
0F80F800
07FFF000
00FF8000
00FF0000
ENDCHAR
STARTCHAR $01D3
ENCODING 467
SWIDTH 666 0
DWIDTH 28 0
BBX 22 39 3 3
BITMAP
1F0780
078F00
038E00
00FC00
00F800
007000
000000
000000
E0003C
E0003C
E0003C
E0003C
E0003C
E0003C
E0003C
E0003C
E0003C
E0003C
E0003C
E0003C
E0003C
E0003C
E0003C
E0003C
E0003C
E0003C
E0003C
E0003C
E0003C
E00038
E00070
F80070
F80070
7C0070
7C00C0
3E01C0
1FFF80
03FF00
03FE00
ENDCHAR
STARTCHAR $01D4
ENCODING 468
SWIDTH 592 0
DWIDTH 25 0
BBX 20 32 3 0
BITMAP
1C0E00
079E00
07BC00
03F800
03F000
000000
000000
000000
E00070
E00070
E00070
E00070
E00070
E00070
E00070
E00070
E00070
E00070
E00070
E00070
E00070
E00070
E00070
E00070
E000F0
F800F0
FC01F0
3C07F0
1C07F0
0FFF70
07F070
03E060
ENDCHAR
STARTCHAR $01D7
ENCODING 471
SWIDTH 666 0
DWIDTH 28 0
BBX 22 47 3 2
BITMAP
000F80
007F00
007E00
00F800
00F000
00E000
000000
000000
018E00
038F00
038F00
038E00
000000
000000
000000
000000
E0003C
E0003C
E0003C
E0003C
E0003C
E0003C
E0003C
E0003C
E0003C
E0003C
E0003C
E0003C
E0003C
E0003C
E0003C
E0003C
E0003C
E0003C
E0003C
E0003C
E00038
E00078
E00070
F80070
F80070
780070
7C01C0
3FFF80
1FFF80
03FE00
03FE00
ENDCHAR
STARTCHAR $01D8
ENCODING 472
SWIDTH 592 0
DWIDTH 25 0
BBX 20 41 3 2
BITMAP
000F00
001F00
003E00
007C00
03F800
03E000
000000
000000
000000
031800
071800
071800
033800
000000
000000
000000
000000
C00030
E00070
E00070
E00070
E00070
E00070
E00070
E00070
E00070
E00070
E00070
E00070
E00070
E00070
E00070
E00070
F000F0
F000F0
F001F0
7C03F0
1FFF70
1FFE70
07F070
07F060
ENDCHAR
STARTCHAR $01D9
ENCODING 473
SWIDTH 666 0
DWIDTH 28 0
BBX 22 47 3 1
BITMAP
1F0780
078F00
038E00
00FC00
00F800
007000
000000
000000
018E00
038F00
038F00
038E00
000000
000000
000000
000000
E0003C
E0003C
E0003C
E0003C
E0003C
E0003C
E0003C
E0003C
E0003C
E0003C
E0003C
E0003C
E0003C
E0003C
E0003C
E0003C
E0003C
E0003C
E0003C
E0003C
E00038
E00078
E00070
F80070
F80070
780070
7C01C0
3FFF80
1FFF80
03FE00
03FE00
ENDCHAR
STARTCHAR $01DA
ENCODING 474
SWIDTH 592 0
DWIDTH 25 0
BBX 20 39 3 3
BITMAP
1F0E00
079E00
07BC00
03F800
03F000
000000
000000
000000
031800
073800
071800
031800
000000
000000
000000
000000
E00070
E00070
E00070
E00070
E00070
E00070
E00070
E00070
E00070
E00070
E00070
E00070
E00070
E00070
E00070
F000F0
F000F0
FC01F0
7C01F0
3E03F0
1FFE70
0FF870
07F070
ENDCHAR
STARTCHAR $01DB
ENCODING 475
SWIDTH 666 0
DWIDTH 28 0
BBX 22 47 3 2
BITMAP
038000
03C000
01E000
00F800
00F800
003000
000000
000000
018E00
038F00
038F00
038E00
000000
000000
000000
000000
E0003C
E0003C
E0003C
E0003C
E0003C
E0003C
E0003C
E0003C
E0003C
E0003C
E0003C
E0003C
E0003C
E0003C
E0003C
E0003C
E0003C
E0003C
E0003C
E0003C
E00038
E00078
E00070
F80070
F80070
780070
7C01C0
3FFF80
1FFF80
03FE00
03FE00
ENDCHAR
STARTCHAR $01DC
ENCODING 476
SWIDTH 592 0
DWIDTH 25 0
BBX 20 41 3 2
BITMAP
040000
0F8000
0F8000
03C000
03F000
00F000
000000
000000
000000
031800
071800
071800
033800
000000
000000
000000
000000
C00030
E00070
E00070
E00070
E00070
E00070
E00070
E00070
E00070
E00070
E00070
E00070
E00070
E00070
E00070
E00070
F000F0
F000F0
F001F0
7C03F0
1FFF70
1FFE70
07F070
07F060
ENDCHAR
STARTCHAR $01DD
ENCODING 477
SWIDTH 666 0
DWIDTH 28 0
BBX 24 24 1 0
BITMAP
00FF80
07FFC0
07FFC0
1F81F8
1C00FC
7C003C
70001E
30000F
00000F
00000F
05481F
FFFFFF
FFFFFF
F0001F
F0000F
F0000F
78000F
7C001C
1F003C
1F007C
0FFFC0
03FFC0
01FF80
00FF80
ENDCHAR
STARTCHAR $01E6
ENCODING 486
SWIDTH 888 0
DWIDTH 38 0
BBX 33 37 1 4
BITMAP
00183F0000
000FF80000
000FF80000
0007F00000
0001C00000
0000000000
000FFC0000
000FFE0000
00FFFFC000
03E007E000
03C000F000
0780007800
0C00001C00
1C00001E00
3C00000F00
7C00000200
7800000000
7800000000
F000000000
F000000000
E000000000
E000000000
E000000000
E000000000
E00FFFFF80
F80FFFFF80
F800000780
7800000700
7800000700
7C00000700
1C00001F00
1FC0003E00
03C0007800
01C000E000
00FFFFC000
007FFFC000
000FF80000
ENDCHAR
STARTCHAR $01E7
ENCODING 487
SWIDTH 666 0
DWIDTH 28 0
BBX 24 41 1 -8
BITMAP
0381C0
03C180
01E380
00FE00
00FE00
007800
000000
000000
00FF8F
03FFCF
0749FF
1F00FF
7C003F
78001F
78000F
E0000F
E0000F
E0000F
E0000F
E0000F
E0000F
F0000F
F8000F
F8000F
7C000F
7C003F
3F003F
1F80FF
0F80FF
07FFCF
00FF0F
38FE0F
78000F
7C000F
1C003E
1E003C
1FC078
0FFFF8
07FFF0
007FC0
007F80
ENDCHAR
STARTCHAR $01EA
ENCODING 490
SWIDTH 851 0
DWIDTH 36 0
BBX 33 41 1 -8
BITMAP
000FFC0000
00FFFF8000
00FFFF8000
03C007F000
03C003F800
03C000FC00
1E00003E00
1C00003F00
7C00001F00
7C00000700
7800000700
7800000780
F000000380
E000000380
E000000380
E000000380
E000000380
E000000380
7800000380
7800000380
7800000780
7C00000700
7C00000C00
3E00001C00
1F00003C00
0780007C00
03C003FC00
03F007E000
03F007C000
00FFFF0000
003FF80000
001FF80000
0000700000
0001C00000
0001800000
0003C00000
0007E00000
0001F80000
0001FC0000
0000780000
0000780000
ENDCHAR
STARTCHAR $01EB
ENCODING 491
SWIDTH 666 0
DWIDTH 28 0
BBX 25 33 1 -9
BITMAP
00FF8000
07FFE000
07FFF000
1F80F800
1C007C00
7C003E00
78001F00
78000F00
F8000F00
F0000F80
E0000780
E0000780
E0000700
F0000F00
F0000F00
F8000F00
78000F00
7C001C00
1F003C00
1F007C00
0FFFF800
03FFF000
01FF8000
00FF8000
000E0000
001E0000
00180000
00180000
00180000
001C0000
001F8000
001F8000
00078000
ENDCHAR
STARTCHAR $01F0
ENCODING 496
SWIDTH 185 0
DWIDTH 8 0
BBX 12 39 -1 -6
BITMAP
E0F0
79E0
3FC0
1FC0
0F80
0000
0000
0000
0300
0700
0700
0700
0700
0700
0700
0700
0700
0700
0700
0700
0700
0700
0700
0700
0700
0700
0700
0700
0700
0700
0700
0700
0F00
1C00
1C00
3C00
F800
F000
E000
ENDCHAR
STARTCHAR $01F4
ENCODING 500
SWIDTH 888 0
DWIDTH 38 0
BBX 33 39 1 3
BITMAP
00000C0000
00007E0000
00007F0000
0003F80000
0003F00000
0003C00000
0000000000
0000000000
000FFC0000
00FFFFC000
01E817E000
03C007E000
07E000F800
0C00007C00
1C00007C00
3C00001F00
7C00001E00
7C00000000
7800000000
7800000000
F000000000
E000000000
E000000000
E000000000
E000000000
E00FFFFF80
E00FFFFF80
F80FFFFF80
F807FFFF80
7800000700
7C00000700
3C00000F00
0C00001E00
0380007C00
03C000F800
01E001F800
007FFFC000
000FFC0000
0007F80000
ENDCHAR
STARTCHAR $01F5
ENCODING 501
SWIDTH 666 0
DWIDTH 28 0
BBX 24 41 1 -7
BITMAP
000780
001F80
001F80
001C00
007800
007000
000000
000000
00FF8F
03FFCF
0749FF
1F00FF
7C003F
78001F
78000F
E0000F
E0000F
E0000F
E0000F
E0000F
E0000F
F0000F
F8000F
F8000F
7C000F
7C003F
3F003F
1F80FF
0F80FF
07FFCF
00FF0F
38FE0F
78000F
7C000F
1C003E
1E003C
1FC078
0FFFF8
07FFF0
007FC0
007F80
ENDCHAR
STARTCHAR $01FA
ENCODING 506
SWIDTH 740 0
DWIDTH 32 0
BBX 29 50 1 2
BITMAP
00007000
0001F000
0003E000
00078000
000F8000
00180000
00000000
00000000
000F8000
00118000
00318000
0070C000
0070C000
00308000
00118000
00138000
001F8000
00000000
000E0000
000F0000
000F8000
001F8000
001F8000
003FC000
0070C000
0070C000
0070C000
00F06000
00F07000
00C07000
00C07800
01C07C00
03803C00
03803C00
07003F00
07803F00
07FFFF00
0FFFFF00
1FFFFF00
1E000300
1C000380
1C000380
780000C0
780000C0
780000E0
E00000F0
E00000F8
E00000F8
E0000070
E0000060
ENDCHAR
STARTCHAR $01FB
ENCODING 507
SWIDTH 666 0
DWIDTH 28 0
BBX 25 41 1 2
BITMAP
0001C000
000F8000
000F8000
001E0000
007E0000
00700000
00000000
00000000
007E0000
00E70000
00C70000
00878000
00E60000
00F80000
00780000
00100000
00000000
00FF8300
03FFE380
07FFF380
0F007F80
1F007F80
3E003F80
7C003F80
78000F80
F8000F80
F0000780
E0000380
E0000380
E0000380
E0000780
F8000F80
F8000F80
7C000F80
7C003F80
3E003F80
1F807380
0FFFC380
07FFC380
00FFC380
00FF8180
ENDCHAR
STARTCHAR $01FC
ENCODING 508
SWIDTH 1000 0
DWIDTH 42 0
BBX 37 39 1 5
BITMAP
0000007800
000001F800
000003F800
000007C000
00000F8000
00000C0000
0000000000
0000000000
00000FFFF0
00003FFFF8
00003FC100
00007F8000
00007F8000
0000738000
0000638000
0001C38000
0001C38000
0007C38000
000F838000
000F838000
000F038000
001E038000
001C03FFF8
003803FFF8
007803FFF0
00F0038000
01FFFF8000
03FFFF8000
03FFFF8000
03FFFF8000
0F80038000
1F80038000
1F00038000
1C00038000
3C00038000
7C00038000
F80003FFF8
F00003FFF8
E00003FFF8
ENDCHAR
STARTCHAR $01FD
ENCODING 509
SWIDTH 1148 0
DWIDTH 49 0
BBX 45 32 1 1
BITMAP
000000780000
000001F80000
000003F80000
000007C00000
00000F800000
00000C000000
000000000000
000000000000
00FF8383FE00
03FFF39FFF80
0748F3DF0F80
1F007FFC07C0
7C003FC00060
78001FC00038
78000FC00038
F80007C00038
F80003800038
E00003FFFFF8
E00003FFFFF8
E00003FFFFF0
E00003800000
F00007800000
F8000F800000
F8000F800000
7C000FE00070
7C003FE00060
3F003FFC01C0
1F80FFFC07C0
0F80FFFC07C0
07FFC3BFFF80
00FF8383F800
00FF0181F000
ENDCHAR
STARTCHAR $01FE
ENCODING 510
SWIDTH 851 0
DWIDTH 36 0
BBX 33 42 1 -3
BITMAP
00000C0000
00007C0000
00007C0000
0003F80000
0003F00000
0003C00000
0000000E00
0000001E00
001FFC1C00
00FFFFF800
01E817F800
03C007F800
07E000F800
0C0001FC00
1C0003FC00
3C00071F00
7C000F1F00
7C001F0780
78003E0380
78003C0380
F000780380
E000700380
E000E00380
E001C00380
E007C00380
E00F800380
E00F000380
780E000380
780E000780
7818000700
7C70001F00
3CF0001F00
0CF0003E00
03C0007C00
03C001F800
03E003F800
07FFFF0000
0F1FFC0000
1F3FF80000
3E00000000
3C00000000
1C00000000
ENDCHAR
STARTCHAR $01FF
ENCODING 511
SWIDTH 666 0
DWIDTH 28 0
BBX 24 32 1 3
BITMAP
0007C0
000F80
000F80
001C00
007800
007000
00000C
00001E
00FFBF
03FFFC
0748FC
1F007C
7C01FC
78019C
78038E
F80F8F
F80F8F
E01F0F
E01E0F
E03C0F
E0180F
E0700F
F0E00F
F0C00F
7FE00E
7F803C
3F803C
1F80F8
1F80F8
1FFFF0
7CFF80
38FF00
ENDCHAR
STARTCHAR $0200
ENCODING 512
SWIDTH 740 0
DWIDTH 32 0
BBX 29 39 1 5
BITMAP
1C180000
078F8000
078FC000
03C7C000
03C1C000
00604000
00000000
00000000
000E0000
001F8000
001F8000
001F8000
0038C000
0070C000
0070C000
0070C000
00F0C000
00C07000
00C07000
01E07000
03C03800
03803C00
03803C00
03803E00
07003F00
07FFFF00
0FFFFF00
1FFFFF00
1FFFFF00
1E000380
1C000380
3C0001C0
780000C0
780000E0
E00000E0
E00000F0
E0000078
E0000078
E0000030
ENDCHAR
STARTCHAR $0201
ENCODING 513
SWIDTH 666 0
DWIDTH 28 0
BBX 25 32 1 0
BITMAP
7C700000
7C780000
3E780000
0F0F0000
07078000
03838000
00000000
00000000
00FF8380
03FFF380
0748F380
1F007F80
7C003F80
78001F80
78000F80
F8000F80
F8000F80
E0000380
E0000380
E0000380
E0000380
F0000780
F8000F80
F8000F80
7C000F80
7C003F80
3F003F80
1F80F380
0F80E380
07FFC380
00FF8380
00FF0180
ENDCHAR
STARTCHAR $0204
ENCODING 516
SWIDTH 518 0
DWIDTH 22 0
BBX 20 41 0 2
BITMAP
004000
F87000
F87000
7C1800
7C0E00
070F80
030300
030100
000000
0FFFF0
0FFFF0
1FFFF0
1C0000
1C0000
1C0000
1C0000
1C0000
1C0000
1C0000
1C0000
1C0000
1C0000
1C0000
1E0000
1FFFF0
1FFFF0
1E0000
1C0000
1C0000
1C0000
1C0000
1C0000
1C0000
1C0000
1C0000
1C0000
1E0000
1FFFF0
1FFFF0
1FFFF0
0FFFE0
ENDCHAR
STARTCHAR $0205
ENCODING 517
SWIDTH 666 0
DWIDTH 28 0
BBX 24 32 1 0
BITMAP
7C7000
7C7800
3E7800
1F0F00
0F0780
038380
000000
000000
00FF80
03FFF0
0748F0
1F0078
7C003C
78001C
78000E
F0000F
F0000F
FFFFFF
FFFFFF
FFFFFE
F00000
E00000
F00000
F00000
7C000E
7C003C
3F0038
1F80F0
0F80E0
07FFC0
00FF00
00FE00
ENDCHAR
STARTCHAR $0208
ENCODING 520
SWIDTH 222 0
DWIDTH 10 0
BBX 16 39 -6 5
BITMAP
E0F0
7C78
3E78
1F0E
0F07
0303
0000
0000
0070
0070
0070
0070
0070
0070
0070
0070
0070
0070
0070
0070
0070
0070
0070
0070
0070
0070
0070
0070
0070
0070
0070
0070
0070
0070
0070
0070
0070
0070
0030
ENDCHAR
STARTCHAR $0209
ENCODING 521
SWIDTH 185 0
DWIDTH 8 0
BBX 17 33 -8 1
BITMAP
600000
F81000
F81000
7C1E00
7C0F00
078F80
038180
030000
000000
001800
001800
001800
003800
001800
001800
001800
001800
001800
001800
003800
001800
001800
001800
001800
003800
001800
001800
001800
001800
001800
001800
003800
001800
ENDCHAR
STARTCHAR $020C
ENCODING 524
SWIDTH 851 0
DWIDTH 36 0
BBX 33 39 1 3
BITMAP
0307800000
03C7C00000
01E7C00000
00F0F80000
00F87C0000
00383C0000
0000000000
0000000000
000FFC0000
00FFFF8000
01E817C000
03C007E000
07E000F800
0C00007C00
1C00007C00
3C00001F00
7C00001F00
7C00000780
7800000380
7800000380
F000000380
E000000380
E000000380
E000000380
E000000380
E000000380
E000000380
7800000380
7800000780
7800000700
7C00001F00
3E00001F00
0F00003E00
0380007C00
03C001F800
01E003F800
007FFF0000
001FFC0000
003FF80000
ENDCHAR
STARTCHAR $020D
ENCODING 525
SWIDTH 666 0
DWIDTH 28 0
BBX 25 32 1 0
BITMAP
7C700000
7C780000
3E780000
0F0F0000
07078000
03838000
00000000
00000000
00FF8000
03FFF000
0748F000
1F007800
7C003F00
78001F00
78000F00
F8000F00
F8000F00
E0000F00
E0000380
E0000380
E0000700
F0000F00
F8000F00
F8000F00
7C000E00
7C003C00
3F003C00
1F80F800
0F80F800
07FFF000
00FF8000
00FF0000
ENDCHAR
STARTCHAR $0210
ENCODING 528
SWIDTH 592 0
DWIDTH 25 0
BBX 24 39 1 5
BITMAP
E0F000
7C7800
3E7800
1F0E00
0F0700
030300
000000
000000
7FFE00
7FFFC0
7D49E0
7800F0
780038
78003C
78003C
78003C
78003F
78000F
78003F
78003E
78003C
78003C
78003C
78003C
7801F0
78FFC0
787E00
783800
781800
780C00
780E00
780F00
780780
7801C0
7800C0
7800E0
780078
780078
300078
ENDCHAR
STARTCHAR $0211
ENCODING 529
SWIDTH 296 0
DWIDTH 13 0
BBX 17 32 -5 0
BITMAP
E0C000
F8F000
F8F000
1C1E00
0C0F00
070F00
000000
000000
00C180
00FF80
00FE00
00FE00
00F800
00F000
00F000
00C000
00C000
00C000
00C000
00E000
00C000
00C000
00C000
00C000
00E000
00C000
00C000
00C000
00C000
00C000
00C000
00C000
ENDCHAR
STARTCHAR $0214
ENCODING 532
SWIDTH 666 0
DWIDTH 28 0
BBX 22 41 3 2
BITMAP
800000
C0C000
E0E000
707800
783E00
1F3E00
070300
070100
000000
E00038
E00038
E0003C
E0003C
E0003C
E0003C
E0003C
E0003C
E0003C
E0003C
E0003C
E0003C
E0003C
E0003C
E0003C
E0003C
E0003C
E0003C
E0003C
E0003C
E0003C
E00038
F00078
F00070
F80070
780070
780060
7C01C0
1FFF80
1FFF00
03FF00
01FF00
ENDCHAR
STARTCHAR $0215
ENCODING 533
SWIDTH 592 0
DWIDTH 25 0
BBX 22 32 1 1
BITMAP
E0F000
7C7800
3E7800
1F0E00
0F0700
030300
000000
000000
78003C
78003C
78003C
78003C
78003C
78003C
78003C
78003C
78003C
78003C
78003C
78003C
78003C
78003C
78003C
78003C
7C007C
7C007C
3F00FC
1F81FC
0F81FC
07FFBC
03F808
01F808
ENDCHAR
STARTCHAR $0218
ENCODING 536
SWIDTH 481 0
DWIDTH 21 0
BBX 18 41 1 -8
BITMAP
07F000
0FFF00
1FFF00
3C0F00
7C0780
7C0780
E00380
E00180
E00000
F00000
7C0000
7C0000
1F8000
0FF800
0FF800
03FE00
007F00
000F80
0007C0
0003C0
0001C0
0000C0
C000C0
E000C0
E001C0
F80180
FC0F80
3C0F00
1C0F00
0FFF00
07F000
03E000
000000
00C000
00C000
00C000
038000
038000
038000
038000
018000
ENDCHAR
STARTCHAR $0219
ENCODING 537
SWIDTH 370 0
DWIDTH 16 0
BBX 16 33 0 -9
BITMAP
07C0
0FF8
1FF8
3C18
7C18
7C38
7800
7800
7C00
1F80
07C0
03F0
0078
003E
001E
001F
F00F
780F
780E
380C
1FF8
0FF8
07E0
03C0
0000
0380
0380
0380
0380
0380
0380
0380
0300
ENDCHAR
STARTCHAR $021A
ENCODING 538
SWIDTH 444 0
DWIDTH 19 0
BBX 17 41 0 -8
BITMAP
FFFF80
FFFF80
FFFF80
00C000
00C000
00E000
00C000
00E000
00C000
00E000
00C000
00C000
00E000
00C000
00C000
00C000
00C000
00C000
00C000
00E000
00C000
00C000
00C000
00C000
00E000
00C000
00C000
00C000
00C000
00C000
00C000
00C000
000000
00C000
00C000
00C000
038000
038000
038000
038000
018000
ENDCHAR
STARTCHAR $021B
ENCODING 539
SWIDTH 333 0
DWIDTH 14 0
BBX 13 41 0 -8
BITMAP
0780
0780
0780
0780
0780
0780
0F80
0F80
FFF8
FFF8
0FC8
0F80
0780
0780
0780
0780
0780
0780
0780
0780
0780
0780
0780
0780
0780
0780
0780
0780
0780
0780
0780
0380
0000
0380
0300
0300
0700
0700
0700
0700
0600
ENDCHAR
STARTCHAR $0237
ENCODING 567
SWIDTH 185 0
DWIDTH 8 0
BBX 8 32 -1 -8
BITMAP
07
07
07
07
07
07
07
07
07
07
07
07
07
07
07
07
07
07
07
07
07
07
07
07
07
0C
1C
1C
18
F0
E0
C0
ENDCHAR
STARTCHAR $0258
ENCODING 600
SWIDTH 666 0
DWIDTH 28 0
BBX 24 24 1 0
BITMAP
00FF80
07FFE0
07FFF0
1F80F8
1C007C
7C003C
70001E
70000F
F0000F
FFFFFF
FFFFFF
FFFFFF
00000F
00000F
00000F
00000F
78000F
7C001C
1F00F0
1F00E0
0FFFC0
03FFC0
01FF00
00FE00
ENDCHAR
STARTCHAR $0259
ENCODING 601
SWIDTH 666 0
DWIDTH 28 0
BBX 24 24 1 0
BITMAP
00FF80
07FFC0
07FFC0
1F81F8
1C00FC
7C003C
70001E
30000F
00000F
00000F
05481F
FFFFFF
FFFFFF
F0001F
F0000F
F0000F
78000F
7C001C
1F003C
1F007C
0FFFC0
03FFC0
01FF80
00FF80
ENDCHAR
STARTCHAR $02BE
ENCODING 702
SWIDTH 518 0
DWIDTH 22 0
BBX 16 17 3 14
BITMAP
1FC0
3FF8
7FF8
E01E
E00F
E00F
000F
0007
0007
0007
000F
E00E
F00C
7FF8
7FF0
7FE0
0780
ENDCHAR
STARTCHAR $02BF
ENCODING 703
SWIDTH 518 0
DWIDTH 22 0
BBX 16 17 3 14
BITMAP
07F0
3FF8
7FF8
781E
700F
E00F
E000
E000
8000
E000
E000
E007
700E
1FFE
1FFC
0FF0
03C0
ENDCHAR
STARTCHAR $02C6
ENCODING 710
SWIDTH 518 0
DWIDTH 22 0
BBX 12 5 5 27
BITMAP
1F00
3F80
7F80
F8F0
F0F0
ENDCHAR
STARTCHAR $02C7
ENCODING 711
SWIDTH 518 0
DWIDTH 22 0
BBX 12 5 5 27
BITMAP
E0F0
79E0
3FC0
1FC0
0F80
ENDCHAR
STARTCHAR $02D8
ENCODING 728
SWIDTH 444 0
DWIDTH 19 0
BBX 12 6 3 27
BITMAP
E070
E070
E070
7FC0
7FC0
0780
ENDCHAR
STARTCHAR $02D9
ENCODING 729
SWIDTH 222 0
DWIDTH 10 0
BBX 3 5 3 27
BITMAP
E0
E0
E0
E0
E0
ENDCHAR
STARTCHAR $02DA
ENCODING 730
SWIDTH 333 0
DWIDTH 14 0
BBX 8 8 3 27
BITMAP
7C
FE
E7
C3
83
83
7C
3C
ENDCHAR
STARTCHAR $02DB
ENCODING 731
SWIDTH 296 0
DWIDTH 13 0
BBX 6 11 3 -9
BITMAP
78
F0
E0
E0
E0
E0
E0
E0
FC
7C
04
ENDCHAR
STARTCHAR $02DC
ENCODING 732
SWIDTH 444 0
DWIDTH 19 0
BBX 12 6 3 27
BITMAP
1C00
FC40
FC60
C3F0
83F0
00C0
ENDCHAR
STARTCHAR $02DD
ENCODING 733
SWIDTH 555 0
DWIDTH 24 0
BBX 17 8 6 27
BITMAP
030000
070F80
070F80
1C1E00
1C1E00
FC7000
E06000
E04000
ENDCHAR
STARTCHAR $0300
ENCODING 768
SWIDTH 0 0
DWIDTH 0 0
BBX 9 6 -20 28
BITMAP
FC00
7C00
3E00
1F80
0F80
0380
ENDCHAR
STARTCHAR $0301
ENCODING 769
SWIDTH 0 0
DWIDTH 0 0
BBX 9 6 -17 28
BITMAP
0780
3F00
7F00
F800
F000
E000
ENDCHAR
STARTCHAR $0302
ENCODING 770
SWIDTH 0 0
DWIDTH 0 0
BBX 12 5 -20 27
BITMAP
1F00
3F80
7F80
F8F0
F0F0
ENDCHAR
STARTCHAR $0303
ENCODING 771
SWIDTH 0 0
DWIDTH 0 0
BBX 12 6 -20 27
BITMAP
7C00
FC40
FE60
CFF0
87F0
00C0
ENDCHAR
STARTCHAR $0304
ENCODING 772
SWIDTH 0 0
DWIDTH 0 0
BBX 13 3 -22 27
BITMAP
FFF8
FFF8
FFF8
ENDCHAR
STARTCHAR $0305
ENCODING 773
SWIDTH 0 0
DWIDTH 0 0
BBX 12 3 -16 30
BITMAP
FFF0
FFF0
FFF0
ENDCHAR
STARTCHAR $0306
ENCODING 774
SWIDTH 0 0
DWIDTH 0 0
BBX 12 5 -20 27
BITMAP
8070
C070
E070
7FC0
7FC0
ENDCHAR
STARTCHAR $0307
ENCODING 775
SWIDTH 0 0
DWIDTH 0 0
BBX 3 5 -16 27
BITMAP
E0
E0
E0
E0
E0
ENDCHAR
STARTCHAR $0308
ENCODING 776
SWIDTH 0 0
DWIDTH 0 0
BBX 9 5 -18 27
BITMAP
E380
E380
E380
E380
E380
ENDCHAR
STARTCHAR $0309
ENCODING 777
SWIDTH 0 0
DWIDTH 0 0
BBX 8 8 -18 27
BITMAP
7F
F3
E3
07
07
07
1E
1C
ENDCHAR
STARTCHAR $030A
ENCODING 778
SWIDTH 0 0
DWIDTH 0 0
BBX 9 8 -18 27
BITMAP
7C00
FE00
E700
C380
C380
E380
7F00
3F00
ENDCHAR
STARTCHAR $030B
ENCODING 779
SWIDTH 0 0
DWIDTH 0 0
BBX 15 6 -18 28
BITMAP
1F0E
3E7E
7C7C
E0F8
E0F0
80C0
ENDCHAR
STARTCHAR $030C
ENCODING 780
SWIDTH 0 0
DWIDTH 0 0
BBX 12 5 -20 27
BITMAP
E070
79E0
3FC0
1FC0
0F80
ENDCHAR
STARTCHAR $030F
ENCODING 783
SWIDTH 0 0
DWIDTH 0 0
BBX 16 8 -25 27
BITMAP
8000
C0C0
E0E0
7078
783E
1F3E
0603
0401
ENDCHAR
STARTCHAR $0311
ENCODING 785
SWIDTH 0 0
DWIDTH 0 0
BBX 12 6 -20 27
BITMAP
0400
3FC0
7FE0
E0F0
E0F0
8070
ENDCHAR
STARTCHAR $0323
ENCODING 803
SWIDTH 0 0
DWIDTH 0 0
BBX 3 5 -16 -7
BITMAP
E0
E0
E0
E0
E0
ENDCHAR
STARTCHAR $0326
ENCODING 806
SWIDTH 0 0
DWIDTH 0 0
BBX 5 8 -17 -7
BITMAP
78
78
78
E0
E0
E0
E0
E0
ENDCHAR
STARTCHAR $0327
ENCODING 807
SWIDTH 0 0
DWIDTH 0 0
BBX 8 9 -17 -7
BITMAP
60
FC
FE
FF
FF
07
8F
CF
FE
ENDCHAR
STARTCHAR $0328
ENCODING 808
SWIDTH 0 0
DWIDTH 0 0
BBX 8 11 -18 -9
BITMAP
1C
38
78
78
70
F0
78
78
7F
1F
04
ENDCHAR
STARTCHAR $032C
ENCODING 812
SWIDTH 0 0
DWIDTH 0 0
BBX 12 5 -20 -7
BITMAP
E0F0
7F80
3F80
1F00
0C00
ENDCHAR
STARTCHAR $032D
ENCODING 813
SWIDTH 0 0
DWIDTH 0 0
BBX 12 5 -20 -7
BITMAP
1F80
3BC0
79E0
E070
E030
ENDCHAR
STARTCHAR $032E
ENCODING 814
SWIDTH 0 0
DWIDTH 0 0
BBX 12 5 -20 -7
BITMAP
E070
FFE0
FFC0
7FC0
7F80
ENDCHAR
STARTCHAR $032F
ENCODING 815
SWIDTH 0 0
DWIDTH 0 0
BBX 12 6 -20 -6
BITMAP
0400
3FC0
7FE0
E070
E070
8070
ENDCHAR
STARTCHAR $0330
ENCODING 816
SWIDTH 0 0
DWIDTH 0 0
BBX 12 4 -20 -5
BITMAP
7C40
FFF0
FFF0
00C0
ENDCHAR
STARTCHAR $0331
ENCODING 817
SWIDTH 0 0
DWIDTH 0 0
BBX 13 3 -22 -5
BITMAP
FFF8
FFF8
FFF8
ENDCHAR
STARTCHAR $0332
ENCODING 818
SWIDTH 0 0
DWIDTH 0 0
BBX 12 3 -16 -5
BITMAP
FFF0
FFF0
FFF0
ENDCHAR
STARTCHAR $0333
ENCODING 819
SWIDTH 0 0
DWIDTH 0 0
BBX 12 9 -16 -9
BITMAP
FFF0
FFF0
FFF0
0000
0000
0000
FFF0
FFF0
FFF0
ENDCHAR
STARTCHAR $0338
ENCODING 824
SWIDTH 0 0
DWIDTH 0 0
BBX 13 34 -16 -5
BITMAP
0018
0018
0018
0018
0070
0070
0070
0070
00C0
00E0
01C0
03C0
03E0
0380
0380
0380
0780
0700
0700
0700
0F00
1F00
1E00
1C00
3C00
7800
7800
7800
7800
7000
E000
E000
E000
E000
ENDCHAR
STARTCHAR $033F
ENCODING 831
SWIDTH 0 0
DWIDTH 0 0
BBX 12 9 -16 32
BITMAP
FFF0
FFF0
FFF0
0000
0000
0000
FFF0
FFF0
FFF0
ENDCHAR
STARTCHAR $034D
ENCODING 845
SWIDTH 0 0
DWIDTH 0 0
BBX 25 12 -22 -12
BITMAP
00C0C000
07C0E000
07C0F000
3F803C00
7F003F00
FFFFFF00
FFFFFF80
FFFFFF80
1F007F00
03C0F800
01C09000
00C08000
ENDCHAR
STARTCHAR $0361
ENCODING 865
SWIDTH 259 0
DWIDTH 11 0
BBX 12 5 5 30
BITMAP
1FC0
FFF0
FFF0
E070
E030
ENDCHAR
STARTCHAR $0391
ENCODING 913
SWIDTH 740 0
DWIDTH 32 0
BBX 29 32 1 0
BITMAP
000F0000
001F8000
001F8000
001F8000
001F8000
0031C000
0070C000
0070C000
00F0C000
00E07000
00C07000
00C07000
03E03800
03803C00
03803C00
03803C00
07003F00
07FFFF00
0FFFFF00
0FFFFF00
1C000780
1C000380
1C000380
1C000180
780000C0
780000C0
F00000E0
E00000F8
E00000F8
E0000078
E0000060
C0000020
ENDCHAR
STARTCHAR $0392
ENCODING 914
SWIDTH 592 0
DWIDTH 25 0
BBX 20 32 3 0
BITMAP
FFF000
FFFF00
FFFF00
E00F00
E00780
E00780
E003C0
E001C0
E001C0
E00180
E00380
E00780
E00780
FFFF80
FFFF80
FFFF00
FFFF80
E007C0
E001C0
E000E0
E00070
E00070
E00070
E00070
E00070
E000C0
E001C0
E007C0
F007C0
FFFF80
FFF800
FFF800
ENDCHAR
STARTCHAR $0393
ENCODING 915
SWIDTH 481 0
DWIDTH 21 0
BBX 16 32 3 0
BITMAP
FFFF
FFFF
FFFE
E000
E000
E000
E000
E000
E000
E000
E000
E000
E000
E000
E000
E000
E000
E000
E000
E000
E000
E000
E000
E000
E000
E000
E000
E000
E000
E000
E000
C000
ENDCHAR
STARTCHAR $0394
ENCODING 916
SWIDTH 629 0
DWIDTH 27 0
BBX 26 29 0 1
BITMAP
001F0000
001F0000
001F0000
001F0000
007F8000
007F8000
0073C000
0071C000
00C1C000
00E0F000
01C0F000
03C07000
03E07000
03803800
03803800
03803C00
07003C00
07003E00
0F001F00
0E000F00
1C000F80
1C000780
3C000380
7C000380
7C000380
7FFFFFC0
FFFFFFC0
FFFFFF80
FFFFFF80
ENDCHAR
STARTCHAR $0395
ENCODING 917
SWIDTH 518 0
DWIDTH 22 0
BBX 17 32 3 0
BITMAP
FFFF80
FFFF80
FFFF80
E00000
E00000
E00000
E00000
E00000
E00000
E00000
E00000
E00000
E00000
FFFF00
FFFF00
FFFF80
FFFF80
E00000
E00000
E00000
E00000
E00000
E00000
E00000
E00000
E00000
E00000
E00000
F00000
FFFF80
FFFF80
FFFF00
ENDCHAR
STARTCHAR $0396
ENCODING 918
SWIDTH 481 0
DWIDTH 21 0
BBX 20 32 0 0
BITMAP
7FFFC0
7FFFC0
3FFFC0
0001C0
0001C0
0007C0
000780
000780
000F00
001F00
001E00
001E00
003800
007800
007000
006000
00C000
01C000
038000
038000
038000
078000
070000
070000
3C0000
7C0000
7C0000
780000
780000
FFFFF0
FFFFF0
FFFFE0
ENDCHAR
STARTCHAR $0397
ENCODING 919
SWIDTH 666 0
DWIDTH 28 0
BBX 22 32 3 0
BITMAP
E0003C
E0003C
E0003C
E0003C
E0003C
E0003C
E0003C
E0003C
E0003C
E0003C
E0003C
E0003C
E0003C
FFFFFC
FFFFFC
FFFFFC
FFFFFC
E0003C
E0003C
E0003C
E0003C
E0003C
E0003C
E0003C
E0003C
E0003C
E0003C
E0003C
E0003C
E0003C
E00008
C00008
ENDCHAR
STARTCHAR $0398
ENCODING 920
SWIDTH 851 0
DWIDTH 36 0
BBX 33 32 1 0
BITMAP
000FFC0000
00FFFF8000
00FFFF8000
03C007F000
03C003F800
03C000FC00
1E00003E00
1C00003F00
7C00001F00
7C00000700
7800000700
7800000780
F000000380
E00FFC0380
E00FFE0380
E01FFF0380
E01FFF0380
E000000380
7800000380
7800000380
7800000780
7C00000700
7C00000F00
3E00001F00
1F00003F00
0780007C00
03C003FC00
03F007E000
03F007C000
00FFFF0000
003FF80000
001FF80000
ENDCHAR
STARTCHAR $0399
ENCODING 921
SWIDTH 222 0
DWIDTH 10 0
BBX 3 32 3 0
BITMAP
E0
E0
E0
E0
E0
E0
E0
E0
E0
E0
E0
E0
E0
E0
E0
E0
E0
E0
E0
E0
E0
E0
E0
E0
E0
E0
E0
E0
E0
E0
E0
C0
ENDCHAR
STARTCHAR $039A
ENCODING 922
SWIDTH 592 0
DWIDTH 25 0
BBX 20 32 3 0
BITMAP
E00070
E000F0
E001F0
E003F0
E007C0
E00FC0
E00F00
E00F00
E01E00
E03800
E07800
E0F800
E3F000
E3E000
E3C000
E38000
F78000
FEC000
FC7000
FC7000
FC7800
F01E00
E00F00
E00F00
E00700
E00780
E003C0
E001E0
E001F0
E001F0
E00070
C00060
ENDCHAR
STARTCHAR $039B
ENCODING 923
SWIDTH 740 0
DWIDTH 32 0
BBX 29 32 1 0
BITMAP
000F0000
001F8000
001F8000
001F8000
001F8000
0033C000
0071C000
0070C000
00F0C000
00E07000
00C07000
00C07000
03E03800
03803C00
03803C00
03803C00
07003F00
07000F00
0F000F00
0E000F00
1C000780
1C000380
1C000380
1C000180
780000C0
780000C0
F00000E0
E00000F8
E00000F8
E0000078
E0000060
C0000020
ENDCHAR
STARTCHAR $039C
ENCODING 924
SWIDTH 925 0
DWIDTH 39 0
BBX 33 32 3 0
BITMAP
FC00003F80
FC00003F80
FC00003F80
FC00003F80
FC00003F80
E700007F80
E700007380
E700006380
E70000E380
E38000C380
E38001C380
E38003C380
E1E0038380
E0C0038380
E0C0038380
E060070380
E0700F0380
E0700F0380
E0703E0380
E0703C0380
E0183C0380
E0183C0380
E00C7C0380
E00E7C0380
E00F700380
E00F700380
E00FE00380
E00FC00380
E007C00380
E007C00380
E001800380
C001000100
ENDCHAR
STARTCHAR $039D
ENCODING 925
SWIDTH 740 0
DWIDTH 32 0
BBX 25 32 3 0
BITMAP
FC000380
FC000380
FC000380
FC000380
FC000380
E7000380
E7800380
E7800380
E3800380
E0C00380
E0E00380
E0F00380
E0700380
E0380380
E0180380
E01E0380
E01F0380
E00F8380
E0078380
E0038380
E001C380
E000C380
E000E380
E000F380
E0003380
E0003F80
E0003F80
E0001F80
E0000F80
E0000780
E0000380
C0000180
ENDCHAR
STARTCHAR $039E
ENCODING 926
SWIDTH 666 0
DWIDTH 28 0
BBX 25 32 1 0
BITMAP
FFFFFF80
FFFFFF80
FFFFFF00
00000000
00000000
00000000
00000000
00000000
00000000
00000000
00000000
00000000
00000000
0FFFF800
1FFFF800
1FFFFC00
0FFFFC00
00000000
00000000
00000000
00000000
00000000
00000000
00000000
00000000
00000000
00000000
00000000
00000000
FFFFFF80
FFFFFF80
FFFFFF80
ENDCHAR
STARTCHAR $039F
ENCODING 927
SWIDTH 851 0
DWIDTH 36 0
BBX 33 32 1 0
BITMAP
000FFC0000
00FFFF8000
00FFFF8000
03C007F000
03C003F800
03C000FC00
1E00003E00
1C00003F00
7C00001F00
7C00000700
7800000700
7800000780
F000000380
E000000380
E000000380
E000000380
E000000380
E000000380
7800000380
7800000380
7800000780
7C00000700
7C00000F00
3E00001F00
1F00003F00
0780007C00
03C003FC00
03F007E000
03F007C000
00FFFF0000
003FF80000
001FF80000
ENDCHAR
STARTCHAR $03A0
ENCODING 928
SWIDTH 629 0
DWIDTH 27 0
BBX 22 29 3 1
BITMAP
FFFFFC
FFFFFC
FFFFFC
E0003C
E0003C
E0003C
E0003C
E0003C
E0003C
E0003C
E0003C
E0003C
E0003C
E0003C
E0003C
E0003C
E0003C
E0003C
E0003C
E0003C
E0003C
E0003C
E0003C
E0003C
E0003C
E0003C
E0003C
E00018
E00008
ENDCHAR
STARTCHAR $03A1
ENCODING 929
SWIDTH 592 0
DWIDTH 25 0
BBX 20 32 3 0
BITMAP
FFFF00
FFFFC0
FFFFC0
E001C0
E000C0
E00070
E00070
E00070
E00070
E00070
E00070
E00070
E00070
E000F0
E001E0
F00FC0
FFFF80
FFF800
F00000
F00000
E00000
E00000
E00000
E00000
E00000
E00000
E00000
E00000
E00000
E00000
E00000
C00000
ENDCHAR
STARTCHAR $03A3
ENCODING 931
SWIDTH 444 0
DWIDTH 19 0
BBX 18 29 0 1
BITMAP
FFFFC0
FFFFC0
FFFFC0
780000
780000
7C0000
3F0000
1F0000
070000
078000
038000
038000
03E000
03C000
03C000
03C000
038000
038000
070000
060000
0C0000
1C0000
3C0000
7C0000
7C0000
FFFFC0
FFFFC0
FFFFC0
FFFFC0
ENDCHAR
STARTCHAR $03A4
ENCODING 932
SWIDTH 444 0
DWIDTH 19 0
BBX 17 32 0 0
BITMAP
FFFF80
FFFF80
FFFF80
00C000
00C000
00E000
00C000
00E000
00C000
00E000
00C000
00C000
00E000
00C000
00C000
00C000
00C000
00C000
00C000
00E000
00C000
00C000
00C000
00C000
00E000
00C000
00C000
00C000
00C000
00C000
00C000
00C000
ENDCHAR
STARTCHAR $03A5
ENCODING 933
SWIDTH 592 0
DWIDTH 25 0
BBX 25 32 0 0
BITMAP
F8000F80
78000F00
78000F00
7C000F00
7C003F00
3C003C00
1F003C00
1F007C00
07007000
0780F000
0380F000
0381F000
03E3C000
03C78000
01C78000
00EF8000
00FF0000
007F0000
003E0000
003C0000
00180000
00180000
00180000
00180000
00380000
00180000
00180000
00180000
00180000
00180000
00180000
00180000
ENDCHAR
STARTCHAR $03A6
ENCODING 934
SWIDTH 814 0
DWIDTH 35 0
BBX 29 32 3 0
BITMAP
000F0000
000F0000
000F0000
000F0000
000F0000
000F0000
007FE000
00FFF000
03FFFF00
1F0F0FC0
3C0F03C0
F80F03E0
F00F00F0
E00F0078
E00F0078
E00F0078
E00F0078
E00F0078
F80F00E0
F80F01C0
7F0F07C0
1F0F0FC0
0FFFFF00
0FFFFF00
00FFF000
000F0000
000F0000
000F0000
000F0000
000F0000
00070000
00020000
ENDCHAR
STARTCHAR $03A7
ENCODING 935
SWIDTH 592 0
DWIDTH 25 0
BBX 22 32 1 0
BITMAP
E0003C
78007C
78007C
7C0078
7C0070
1C00F0
0700E0
0700C0
078180
038780
03CF00
03EE00
01FC00
00F800
007800
007800
00FE00
00FE00
01FF00
03FF00
03C780
038780
0703C0
0701C0
1F00E0
1C0070
7C0078
78007C
78007C
F0003C
E00004
C00004
ENDCHAR
STARTCHAR $03A8
ENCODING 936
SWIDTH 777 0
DWIDTH 33 0
BBX 29 32 3 0
BITMAP
E00F0078
E00F0078
E00F0078
E00F0078
E00F0078
E00F0078
E00F0078
E00F0078
E00F0078
E00F0078
E00F00F8
E00F00F8
F00F00C0
780F01C0
780F03C0
7C0F07C0
7C0F0F80
3F8F1F00
03FFFE00
01FFFC00
00FFC000
00FFC000
000F0000
000F0000
000F0000
000F0000
000F0000
000F0000
000F0000
000F0000
00070000
00020000
ENDCHAR
STARTCHAR $03A9
ENCODING 937
SWIDTH 814 0
DWIDTH 35 0
BBX 32 30 1 2
BITMAP
001FF000
00FFFE00
00FFFF00
07F83F80
0FF03F80
1F8007C0
1E0001F8
1C0000F8
7C00007C
7800003C
6000003C
E000003C
E000003C
E000003E
E000003F
E000003F
E000003E
E000003C
F800003C
F800003C
7800007C
7C000078
7C000078
3E0000F8
1F0001F8
07C00FC0
7FE01FE0
7FF03FF8
7FF03FF8
7FF03FF0
ENDCHAR
STARTCHAR $03B1
ENCODING 945
SWIDTH 703 0
DWIDTH 30 0
BBX 24 24 3 0
BITMAP
03F80F
07FF8F
07FF8F
1F878C
1C01BC
7C01FC
F000FC
F000FC
F0007C
E00078
E00070
E00070
E00070
E00070
E00070
E000F0
F000F0
7800FC
7F01FC
3F039E
0FFF0F
03FE07
03FC03
01F801
ENDCHAR
STARTCHAR $03B2
ENCODING 946
SWIDTH 481 0
DWIDTH 21 0
BBX 16 41 1 -7
BITMAP
03F0
0FF8
1FF8
1C18
1C0E
7C0E
780F
780F
780F
780F
781F
781E
783C
7BF8
7BF0
7BF0
7BF0
7878
783E
781F
780F
780F
780F
780F
780F
780F
780F
780F
780F
7C1F
7FF8
7FF8
7FF0
7800
7800
7800
F800
F000
E000
E000
C000
ENDCHAR
STARTCHAR $03B3
ENCODING 947
SWIDTH 481 0
DWIDTH 21 0
BBX 22 30 0 -4
BITMAP
FC003C
7C003C
3E003C
1F0078
0F0070
070070
0780F0
0780E0
0380C0
03C0C0
01C180
00C180
00E780
00FF80
00FF80
007F80
007F00
007F00
007E00
007C00
007800
007800
007000
007000
007000
007000
007000
007000
007000
001000
ENDCHAR
STARTCHAR $03B4
ENCODING 948
SWIDTH 703 0
DWIDTH 30 0
BBX 24 32 3 0
BITMAP
1FFFF0
1FFFF0
1FFFE0
0FC000
07C000
03F000
007C00
007E00
01FF80
03FFC0
0749E0
1C00F0
780038
F0003C
E0003E
E0001F
E0000F
E0000F
E0000F
E0000F
E0000F
E0000F
F0000F
F0001F
F8003E
78003C
3F00F8
1F81F0
0F81E0
07FFC0
00FF00
00FE00
ENDCHAR
STARTCHAR $03B5
ENCODING 949
SWIDTH 481 0
DWIDTH 21 0
BBX 16 26 3 1
BITMAP
07F0
3FFF
7FFF
780E
7006
E000
E000
E000
E000
7000
7D40
7FC0
7FE0
F800
F800
E000
E000
E000
E000
E000
E000
F000
7C0F
7E0F
7FFE
07F0
ENDCHAR
STARTCHAR $03B6
ENCODING 950
SWIDTH 407 0
DWIDTH 18 0
BBX 12 39 3 -6
BITMAP
FFF0
FFF0
FFF0
03C0
0380
0380
1E00
1C00
1C00
7C00
7800
7800
F000
E000
E000
E000
E000
E000
E000
E000
E000
E000
E000
E000
E000
E000
E000
7800
7800
7FC0
1FC0
1FE0
00E0
0070
0070
0070
0070
0070
0030
ENDCHAR
STARTCHAR $03B7
ENCODING 951
SWIDTH 592 0
DWIDTH 25 0
BBX 20 32 3 -8
BITMAP
E3F800
FFFF80
FFFFC0
FC07C0
FC01C0
FC01C0
E000C0
E000C0
E00070
E00070
E00070
E00070
E00070
E00070
E00070
E00070
E00070
E00070
E00070
E00070
E00070
E00070
E00070
E00070
000070
000070
000070
000070
000070
000070
000070
000060
ENDCHAR
STARTCHAR $03B8
ENCODING 952
SWIDTH 555 0
DWIDTH 24 0
BBX 17 32 3 0
BITMAP
07F000
0FF800
1FF800
3C1E00
7C0F00
7C0F00
E00F00
E00700
E00780
E00780
E00780
E00780
E00780
FFFF80
FFFF80
FFFF80
FFFF80
E00780
E00780
E00780
E00780
E00780
E00780
E00780
E00F00
780F00
7C1E00
3C1800
1C3800
0FF800
07E000
03C000
ENDCHAR
STARTCHAR $03B9
ENCODING 953
SWIDTH 333 0
DWIDTH 14 0
BBX 6 24 5 0
BITMAP
E0
E0
E0
E0
E0
E0
E0
E0
E0
E0
E0
E0
E0
E0
E0
E0
70
78
78
78
7C
1C
0C
0C
ENDCHAR
STARTCHAR $03BA
ENCODING 954
SWIDTH 518 0
DWIDTH 22 0
BBX 17 24 3 0
BITMAP
E00F80
E01F00
E01E00
E01C00
E01800
E03000
E07000
E0F000
E1C000
E3E000
E34000
E70000
FF8000
FFC000
FFC000
FFE000
F8F000
E07800
E03800
E01C00
E00E00
E00F00
E00F80
E00F80
ENDCHAR
STARTCHAR $03BB
ENCODING 955
SWIDTH 592 0
DWIDTH 25 0
BBX 20 32 3 0
BITMAP
1C0000
1F8000
1F8000
03C000
03C000
00E000
007000
007000
007000
007000
007800
007800
00F800
00F800
00F800
00FE00
03CF00
038F00
038F00
078F00
070780
0F0780
1F0780
1F0780
3C07C0
7C01C0
7C01C0
7800C0
7800C0
F000C0
E000F0
C000E0
ENDCHAR
STARTCHAR $03BC
ENCODING 956
SWIDTH 592 0
DWIDTH 25 0
BBX 20 32 3 -8
BITMAP
E00070
E00070
E00070
E00070
E00070
E00070
E00070
E00070
E00070
E00070
E00070
E00070
E00070
E00070
E00070
E00070
F000F0
F800F0
FC01F0
FE03F0
FFFF70
E3FE70
E3FC70
E1F820
E00000
E00000
E00000
E00000
E00000
E00000
E00000
C00000
ENDCHAR
STARTCHAR $03BD
ENCODING 957
SWIDTH 481 0
DWIDTH 21 0
BBX 17 24 1 0
BITMAP
E00F00
E00F00
E00F00
F00700
F80780
F80780
780780
780780
780780
1C0780
1C0700
1C0700
1C0F00
1C0F00
1E0F00
0F1E00
073E00
077800
07F000
07F000
03F000
03C000
038000
018000
ENDCHAR
STARTCHAR $03BE
ENCODING 958
SWIDTH 407 0
DWIDTH 18 0
BBX 11 39 3 -6
BITMAP
FFC0
FFC0
FFC0
7800
7000
E000
E000
E000
E000
F000
7C00
7C00
1F80
1F80
1F80
3F80
7C00
FC00
F000
F000
E000
E000
E000
E000
E000
E000
E000
F800
F800
7F80
1F80
1FC0
00C0
00C0
00C0
00C0
00C0
00C0
0060
ENDCHAR
STARTCHAR $03BF
ENCODING 959
SWIDTH 666 0
DWIDTH 28 0
BBX 25 24 1 0
BITMAP
00FF8000
07FFE000
07FFF000
1F80F800
1C007C00
7C003E00
78001F00
78000F00
F8000F00
F0000F80
E0000780
E0000780
E0000700
F0000F00
F0000F00
F8000F00
78000F00
7C001C00
1F003C00
1F007C00
0FFFF800
03FFF000
01FF8000
00FF8000
ENDCHAR
STARTCHAR $03C0
ENCODING 960
SWIDTH 666 0
DWIDTH 28 0
BBX 22 24 3 0
BITMAP
FFFFFC
FFFFFC
FFFFFC
1C01F0
1C00C0
1C00C0
1C00C0
1C00C0
1C00C0
1C00C0
1C00C0
1C00C0
1C00C0
1C00C0
1C00C0
1C00C0
1C00C0
1C00C0
1C00C0
1C00E0
1C0070
1C0070
0C0030
0C0020
ENDCHAR
STARTCHAR $03C1
ENCODING 961
SWIDTH 592 0
DWIDTH 25 0
BBX 20 30 3 -4
BITMAP
03F800
0FFF00
1FFF00
3C0F00
7C0780
7C03C0
E001C0
E000C0
E000C0
E00070
E00070
E00070
E00070
E00070
E00060
E000C0
E000C0
E007C0
FC0FC0
FE0F80
FFFF00
FFFE00
E3F000
E1F000
E00000
E00000
E00000
E00000
E00000
E00000
ENDCHAR
STARTCHAR $03C2
ENCODING 962
SWIDTH 555 0
DWIDTH 24 0
BBX 17 32 3 -8
BITMAP
03F000
0FF800
1FF800
3C0E00
7C0700
7C0780
E00300
E00100
E00000
E00000
E00000
E00000
E00000
E00000
E00000
E00000
F00000
780000
7C0000
3E0000
1FF800
0FFE00
03FF00
01FF00
000780
000780
000780
000780
000780
000780
000180
000100
ENDCHAR
STARTCHAR $03C3
ENCODING 963
SWIDTH 740 0
DWIDTH 32 0
BBX 26 25 3 2
BITMAP
000003C0
00FFFFC0
00FFFFC0
07FFF800
0FFFF000
1F81F000
3C007C00
78007E00
F8003F00
F0000F00
E0000F00
E0000F00
E0000F00
E0000F00
E0000F00
E0000F00
F0000F00
F8001F00
78003E00
38003C00
1F00F800
0F01F000
07FFE000
03FFC000
00FE0000
ENDCHAR
STARTCHAR $03C4
ENCODING 964
SWIDTH 481 0
DWIDTH 21 0
BBX 13 24 3 0
BITMAP
FFF8
FFF8
FFF8
0F80
0700
0700
0700
0700
0700
0700
0700
0700
0700
0700
0780
0380
0380
0380
00C0
00E0
00F8
00F8
0008
0008
ENDCHAR
STARTCHAR $03C5
ENCODING 965
SWIDTH 555 0
DWIDTH 24 0
BBX 17 24 3 0
BITMAP
E00F00
E00F80
E00F80
E00780
E00780
E00780
E00780
E00780
E00780
E00780
E00780
E00780
E00780
E00780
E00780
E00F80
E00F80
E00F00
F80F00
F80F00
7FFE00
1FF800
07E000
03C000
ENDCHAR
STARTCHAR $03C6
ENCODING 966
SWIDTH 703 0
DWIDTH 30 0
BBX 24 30 3 -4
BITMAP
0407F0
0C0FF8
1C0FF8
3C1E3C
7C1E3C
7C380E
E0180F
E0380F
E0180F
E0380F
E0180F
E0180F
E0380F
E0780F
E0780F
F0780F
F8783F
7C783C
1F78F0
1F7CE0
0FFFC0
03FFC0
03FF00
01FE00
007800
007800
007800
007800
007800
001800
ENDCHAR
STARTCHAR $03C7
ENCODING 967
SWIDTH 555 0
DWIDTH 24 0
BBX 17 30 3 -4
BITMAP
E00780
F80F80
F80F80
780F00
780F00
7C0F00
3C1800
1C3800
1F1800
0F3800
077800
07F000
03F000
03E000
03C000
03C000
03E000
03F000
037000
077000
077800
0F1800
1E1C00
1C1E00
3C3F00
780F00
780F80
700F80
700780
E00380
ENDCHAR
STARTCHAR $03C8
ENCODING 968
SWIDTH 703 0
DWIDTH 30 0
BBX 24 37 3 -3
BITMAP
001800
001800
001800
001800
001800
003800
001800
003800
E0180F
E0380F
E0180F
E0180F
E0380F
E0180F
E0180F
E0180F
E0180F
E0180F
E0180F
E0380F
E0180F
E0180F
E0180F
E0180F
E0380F
E0180F
FC1C3C
3C1FF8
1C3FF8
0FFFF0
03FF80
01FF00
001800
001800
001800
001800
001000
ENDCHAR
STARTCHAR $03C9
ENCODING 969
SWIDTH 703 0
DWIDTH 30 0
BBX 25 24 3 0
BITMAP
E0000F00
E0000F00
E0000F00
E0000F00
E0000700
E0000700
E0000380
E0000380
E0180380
E0380380
E0180380
E0180380
E0380380
E0180380
E0180380
E0180300
E0380300
E0780F00
787E0F00
787F1E00
7FFFFC00
1FC7F800
0F83F000
0F81E000
ENDCHAR
STARTCHAR $03D1
ENCODING 977
SWIDTH 592 0
DWIDTH 25 0
BBX 18 33 3 1
BITMAP
07F000
0FF800
1FF800
381E00
700F00
E00F00
E00780
E00780
E00780
F00780
7C0780
7F0780
1FFFC0
00FFC0
007FC0
001FC0
000780
C00780
E00780
E00780
E00780
E00780
E00780
E00780
E00780
E00780
E00F00
F80F00
F80F00
7C1F00
1FF800
1FF800
03F000
ENDCHAR
STARTCHAR $03D5
ENCODING 981
SWIDTH 666 0
DWIDTH 28 0
BBX 25 37 1 -3
BITMAP
00180000
00180000
00180000
00180000
00180000
00380000
001C0000
003E0000
00FF8000
03FFF000
077EF000
1F1E7800
7C383C00
78181C00
78180E00
E0180F00
E0180F00
E0180F00
E0180380
E0380380
E0180700
F0180F00
F8180F00
F8180F00
7C380F00
7C183F00
3F1C3C00
1F9FF800
0FBFF800
07FFF000
00FF8000
00FF0000
00180000
00180000
00180000
00180000
00100000
ENDCHAR
STARTCHAR $03D6
ENCODING 982
SWIDTH 703 0
DWIDTH 30 0
BBX 25 32 3 0
BITMAP
00FF0000
0FFFC000
1FFFC000
1F81F000
0C00F800
00003800
00003C00
00003E00
E0000F00
E0000F00
E0000F00
E0000F00
E0000F00
E0000780
E0000780
E0000380
E0180380
E0180380
E0180380
E0380380
E0180380
E0180380
E0180380
E0180300
E0380300
E07E0F00
E07E0F00
787F8E00
78FF9C00
7FC7F800
1F81F000
1F81E000
ENDCHAR
STARTCHAR $03F0
ENCODING 1008
SWIDTH 592 0
DWIDTH 25 0
BBX 22 24 1 0
BITMAP
600030
7C0078
3C0078
1C007C
1C0078
1F00F8
0700F0
0700E0
0701C0
071FC0
077F80
07FF80
07F780
0F8780
1F8780
1F01C0
1C00C0
7C00C0
7C00E0
7C00F0
FC0078
F8007C
78003C
38003C
ENDCHAR
STARTCHAR $03F1
ENCODING 1009
SWIDTH 703 0
DWIDTH 30 0
BBX 24 33 3 -9
BITMAP
00FF00
07FFC0
07FFC0
1F81F0
1C00F8
7C0078
F0003E
F0003F
F0000F
E0000F
E0000F
E0000F
E0000F
E0000F
E0000F
F0000F
F8003F
F8003C
FF00F0
FF00E0
7FFFC0
7FFFC0
7FFF00
3EFE00
1F0000
078000
03FE00
03FF80
03FF80
001FF8
00007C
00007E
000007
ENDCHAR
STARTCHAR $03F4
ENCODING 1012
SWIDTH 814 0
DWIDTH 35 0
BBX 33 32 1 0
BITMAP
000FFC0000
00FFFF8000
00FFFF8000
03C007F000
03C003F800
03C000FC00
1E00003E00
1C00003F00
7C00001F00
7C00000700
7800000700
7800000780
F000000380
FFFFFFFF80
FFFFFFFF80
FFFFFFFF80
FFFFFFFF80
E000000780
7800000380
7800000380
7800000780
7C00000700
7C00000F00
3E00001F00
1F00003F00
0780007C00
03C003FC00
03F007E000
03F007C000
00FFFF0000
003FF80000
001FF80000
ENDCHAR
STARTCHAR $03F5
ENCODING 1013
SWIDTH 629 0
DWIDTH 27 0
BBX 23 24 1 0
BITMAP
00FF80
07FFE0
07FFF0
1F80F8
1C007C
7C003E
700000
700000
F00000
FFFF80
FFFF80
FFFF80
F00000
F00000
F00000
F80000
780000
7C001E
1F003E
1F007C
0FFFF8
03FFF0
01FF80
00FF80
ENDCHAR
STARTCHAR $0E3F
ENCODING 3647
SWIDTH 592 0
DWIDTH 25 0
BBX 20 37 3 0
BITMAP
00C000
00C000
00E000
FFF000
FFF800
FFFE00
E00F80
E00780
E00780
E007C0
E001C0
E001C0
E003C0
E00780
E00780
E00F80
F00F80
FFFF00
FFFF80
FFFF80
F007C0
E001C0
E000C0
E000C0
E00070
E00070
E00070
E000F0
E000E0
E000C0
E007C0
FFFFC0
FFFF80
FFFC00
00E000
00C000
004000
ENDCHAR
STARTCHAR $1E0C
ENCODING 7692
SWIDTH 740 0
DWIDTH 32 0
BBX 26 39 3 -6
BITMAP
FFFF0000
FFFFC000
FFFFC000
E001F800
E000FC00
E0003E00
E0001F00
E0000F00
E0000380
E0000380
E00003C0
E00003C0
E00000C0
E00000C0
E00000C0
E00000C0
E00000C0
E00000C0
E00000C0
E00001C0
E0000380
E0000380
E0000380
E0000300
E0000F00
E0003F00
E000FC00
E001F800
F001F800
FFFFC000
FFFF0000
FFFE0000
00000000
00000000
00C00000
00C00000
00C00000
00C00000
00600000
ENDCHAR
STARTCHAR $1E0D
ENCODING 7693
SWIDTH 703 0
DWIDTH 30 0
BBX 25 37 1 -3
BITMAP
00000380
00000380
00000380
00000380
00000380
00000380
00000380
00000380
00FF8380
03FFF380
0748F380
1F007F80
7C003F80
78001F80
78000F80
F8000F80
F8000F80
E0000380
E0000380
E0000380
E0000380
F0000380
F8000380
F8000380
7C000F80
7C003F80
3F003F80
1F80F380
0F80E380
07FFC380
00FF8380
00FF0180
00000000
00180000
00180000
00180000
00100000
ENDCHAR
STARTCHAR $1E0E
ENCODING 7694
SWIDTH 740 0
DWIDTH 32 0
BBX 26 37 3 -3
BITMAP
FFFF0000
FFFFC000
FFFFC000
E001F800
E000FC00
E0003E00
E0001F00
E0000F00
E0000380
E0000380
E00003C0
E00003C0
E00000C0
E00000C0
E00000C0
E00000C0
E00000C0
E00000C0
E00000C0
E00001C0
E0000380
E0000380
E0000380
E0000300
E0000F00
E0003F00
E000FC00
E001F800
F001F800
FFFFC000
FFFF0000
FFFE0000
00000000
00000000
3FFF8000
7FFF8000
7FFF8000
ENDCHAR
STARTCHAR $1E0F
ENCODING 7695
SWIDTH 703 0
DWIDTH 30 0
BBX 25 37 1 -3
BITMAP
00000380
00000380
00000380
00000380
00000380
00000380
00000380
00000380
00FF8380
03FFF380
0748F380
1F007F80
7C003F80
78001F80
78000F80
F8000F80
F8000F80
E0000380
E0000380
E0000380
E0000380
F0000380
F8000380
F8000380
7C000F80
7C003F80
3F003F80
1F80F380
0F80E380
07FFC380
00FF8380
00FF0180
00000000
00000000
03FFE000
03FFF000
01FFF000
ENDCHAR
STARTCHAR $1E24
ENCODING 7716
SWIDTH 666 0
DWIDTH 28 0
BBX 22 39 3 -6
BITMAP
E0003C
E0003C
E0003C
E0003C
E0003C
E0003C
E0003C
E0003C
E0003C
E0003C
E0003C
E0003C
E0003C
FFFFFC
FFFFFC
FFFFFC
FFFFFC
E0003C
E0003C
E0003C
E0003C
E0003C
E0003C
E0003C
E0003C
E0003C
E0003C
E0003C
E0003C
E0003C
E00008
C00008
000000
000000
007000
007000
007000
007000
003000
ENDCHAR
STARTCHAR $1E25
ENCODING 7717
SWIDTH 592 0
DWIDTH 25 0
BBX 20 39 3 -6
BITMAP
E00000
E00000
E00000
E00000
E00000
E00000
E00000
E00000
E1FC00
FFFF80
FF4F80
FC07C0
F800C0
F000C0
E000C0
E000E0
E00070
E00070
E00070
E00070
E00070
E00070
E00070
E00070
E00070
E00070
E00070
E00070
E00070
E00070
E00070
C00060
000000
000000
00C000
00C000
00C000
00C000
006000
ENDCHAR
STARTCHAR $1E26
ENCODING 7718
SWIDTH 666 0
DWIDTH 28 0
BBX 22 39 3 3
BITMAP
038F00
038F00
038F00
038E00
038600
000000
000000
000000
E0003C
E0003C
E0003C
E0003C
E0003C
E0003C
E0003C
E0003C
E0003C
E0003C
E0003C
E0003C
E0003C
F0003C
FFFFFC
FFFFFC
FFFFFC
F0003C
E0003C
E0003C
E0003C
E0003C
E0003C
E0003C
E0003C
E0003C
E0003C
E0003C
E0003C
E0003C
E00008
ENDCHAR
STARTCHAR $1E27
ENCODING 7719
SWIDTH 592 0
DWIDTH 25 0
BBX 20 39 3 3
BITMAP
071800
071800
071800
071800
040800
000000
000000
000000
E00000
E00000
E00000
E00000
E00000
E00000
E00000
E00000
F3FE00
FFFF80
FE07C0
FC03C0
FC01C0
F000C0
E000C0
E000C0
E00070
E00070
E00070
E00070
E00070
E00070
E00070
E00070
E00070
E00070
E00070
E00070
E00070
E00070
E00070
ENDCHAR
STARTCHAR $1E2A
ENCODING 7722
SWIDTH 666 0
DWIDTH 28 0
BBX 22 39 3 -6
BITMAP
E0003C
E0003C
E0003C
E0003C
E0003C
E0003C
E0003C
E0003C
E0003C
E0003C
E0003C
E0003C
E0003C
FFFFFC
FFFFFC
FFFFFC
FFFFFC
E0003C
E0003C
E0003C
E0003C
E0003C
E0003C
E0003C
E0003C
E0003C
E0003C
E0003C
E0003C
E0003C
E00008
C00008
000000
000000
070180
078380
03FF80
03FF00
007E00
ENDCHAR
STARTCHAR $1E2B
ENCODING 7723
SWIDTH 592 0
DWIDTH 25 0
BBX 20 39 3 -6
BITMAP
E00000
E00000
E00000
E00000
E00000
E00000
E00000
E00000
E1FC00
FFFF80
FF4F80
FC07C0
F800C0
F000C0
E000C0
E000E0
E00070
E00070
E00070
E00070
E00070
E00070
E00070
E00070
E00070
E00070
E00070
E00070
E00070
E00070
E00070
C00060
000000
000000
1C0700
1E0F00
03FE00
03FE00
03F800
ENDCHAR
STARTCHAR $1E2E
ENCODING 7726
SWIDTH 222 0
DWIDTH 10 0
BBX 10 47 0 2
BITMAP
03C0
0780
0780
3C00
3C00
1C00
0000
0000
E180
E380
E380
E380
0000
0000
0000
0000
1C00
1C00
1C00
1C00
1C00
1C00
1C00
1C00
1C00
1C00
1C00
1C00
1C00
1C00
1C00
1C00
1C00
1C00
1C00
1C00
1C00
1C00
1C00
1C00
1C00
1C00
1C00
1C00
1C00
1C00
0C00
ENDCHAR
STARTCHAR $1E2F
ENCODING 7727
SWIDTH 185 0
DWIDTH 8 0
BBX 10 41 0 2
BITMAP
0080
07C0
07C0
1F80
1C00
7C00
6000
2000
0000
E380
E380
E380
E180
0000
0000
0000
0000
1C00
1C00
1C00
1C00
1C00
1C00
1C00
1C00
1C00
1C00
1C00
1C00
1C00
1C00
1C00
1C00
1C00
1C00
1C00
1C00
1C00
1C00
1C00
0C00
ENDCHAR
STARTCHAR $1E36
ENCODING 7734
SWIDTH 444 0
DWIDTH 19 0
BBX 16 39 3 -6
BITMAP
E000
E000
E000
E000
E000
E000
E000
E000
E000
E000
E000
E000
E000
E000
E000
E000
E000
E000
E000
E000
E000
E000
E000
E000
E000
E000
E000
E000
F000
FFFE
FFFF
FFFE
0000
0000
0380
0380
0380
0380
0380
ENDCHAR
STARTCHAR $1E37
ENCODING 7735
SWIDTH 185 0
DWIDTH 8 0
BBX 3 39 3 -6
BITMAP
E0
E0
E0
E0
E0
E0
E0
E0
E0
E0
E0
E0
E0
E0
E0
E0
E0
E0
E0
E0
E0
E0
E0
E0
E0
E0
E0
E0
E0
E0
E0
C0
00
00
E0
E0
E0
E0
E0
ENDCHAR
STARTCHAR $1E38
ENCODING 7736
SWIDTH 444 0
DWIDTH 19 0
BBX 22 45 -3 -6
BITMAP
FFFF00
FFFF00
FFFE00
000000
000000
000000
018000
038000
038000
038000
038000
038000
038000
038000
038000
038000
038000
038000
038000
038000
038000
038000
038000
038000
038000
038000
038000
038000
038000
038000
038000
038000
038000
038000
03FFFC
03FFFC
01FFF8
000000
000000
000000
000000
000E00
000F00
000F00
000E00
ENDCHAR
STARTCHAR $1E39
ENCODING 7737
SWIDTH 185 0
DWIDTH 8 0
BBX 13 45 -3 -6
BITMAP
FFF8
FFF8
FFF8
0000
0000
0000
0180
0380
0380
0380
0380
0380
0380
0380
0380
0380
0380
0380
0380
0380
0380
0380
0380
0380
0380
0380
0380
0380
0380
0380
0380
0380
0380
0380
0380
0380
0180
0000
0000
0000
0000
0380
0380
0380
0180
ENDCHAR
STARTCHAR $1E42
ENCODING 7746
SWIDTH 925 0
DWIDTH 39 0
BBX 33 39 3 -6
BITMAP
FC00003F80
FC00003F80
FC00003F80
FC00003F80
FC00003F80
E700007F80
E700007380
E700006380
E70000E380
E38000C380
E38001C380
E38003C380
E1E0038380
E0C0038380
E0C0038380
E060070380
E0700F0380
E0700F0380
E0703E0380
E0703C0380
E0183C0380
E0183C0380
E00C7C0380
E00E7C0380
E00F700380
E00F700380
E00FE00380
E00FC00380
E007C00380
E007C00380
E001800380
C001000100
0000000000
0000000000
0001800000
0003800000
0007800000
0007800000
0003000000
ENDCHAR
STARTCHAR $1E43
ENCODING 7747
SWIDTH 925 0
DWIDTH 39 0
BBX 34 32 3 -8
BITMAP
E7F00FF800
FFFF1FFE00
FFFF3FFF00
F80FF80F00
F007F00780
E007E00380
E003C00380
E001C00380
E001C001C0
E000C001C0
E000C001C0
E000C001C0
E000C001C0
E000C001C0
E000C001C0
E000C001C0
E000C001C0
E000C001C0
E000C001C0
E000C001C0
E000C001C0
E000C001C0
E000C001C0
E000C000C0
0000000000
0000000000
0000C00000
0000C00000
0000C00000
0000C00000
0000C00000
0000C00000
ENDCHAR
STARTCHAR $1E44
ENCODING 7748
SWIDTH 740 0
DWIDTH 32 0
BBX 25 39 3 3
BITMAP
00180000
00180000
00180000
00180000
00080000
00000000
00000000
00000000
F8000380
FC000380
FC000380
FC000380
FE000380
E7000380
E7800380
E3800380
E3800380
E0C00380
E0F00380
E0F00380
E0700380
E0180380
E01C0380
E01E0380
E03F0380
E00F8380
E00F8380
E0038380
E0018380
E001C380
E000F380
E000FF80
E0007F80
E0003F80
E0003F80
E0001F80
E0000780
E0000780
E0000380
ENDCHAR
STARTCHAR $1E45
ENCODING 7749
SWIDTH 592 0
DWIDTH 25 0
BBX 20 30 3 2
BITMAP
00C000
00C000
00C000
00C000
00C000
000000
C1FC00
E3FE00
FFFF80
FC07C0
FC01C0
F800C0
F000C0
E000E0
E000F0
E00070
E00070
E00070
E00070
E00070
E00070
E00070
E00070
E00070
E00070
E00070
E00070
E00070
E00070
E00030
ENDCHAR
STARTCHAR $1E46
ENCODING 7750
SWIDTH 740 0
DWIDTH 32 0
BBX 25 39 3 -6
BITMAP
FC000380
FC000380
FC000380
FC000380
FC000380
E7000380
E7800380
E7800380
E3800380
E0C00380
E0E00380
E0F00380
E0700380
E0380380
E0180380
E01E0380
E01F0380
E00F8380
E0078380
E0038380
E001C380
E000C380
E000E380
E000F380
E0003380
E0003F80
E0003F80
E0001F80
E0000F80
E0000780
E0000380
C0000180
00000000
00000000
00180000
00180000
00180000
00180000
00380000
ENDCHAR
STARTCHAR $1E47
ENCODING 7751
SWIDTH 592 0
DWIDTH 25 0
BBX 20 32 3 -8
BITMAP
E3F800
FFFF80
FFFFC0
FC07C0
FC01C0
FC01C0
E000C0
E000C0
E00070
E00070
E00070
E00070
E00070
E00070
E00070
E00070
E00070
E00070
E00070
E00070
E00070
E00070
E00070
E00020
000000
000000
004000
00C000
00C000
00C000
00C000
00C000
ENDCHAR
STARTCHAR $1E58
ENCODING 7768
SWIDTH 592 0
DWIDTH 25 0
BBX 22 39 3 3
BITMAP
00C000
00C000
00C000
00C000
00C000
000000
000000
000000
FFFC00
FFFF80
E54F80
E007C0
E00070
E00070
E00070
E00078
E0007C
E0003C
E0003C
E0007C
E00078
E00070
E00070
E00060
E007C0
E3FF80
E0F000
E07000
E07000
E01800
E01E00
E03E00
E01F00
E00F80
E00780
E007C0
E000E0
E000F0
E000F0
ENDCHAR
STARTCHAR $1E59
ENCODING 7769
SWIDTH 296 0
DWIDTH 13 0
BBX 9 30 3 2
BITMAP
7800
7800
7800
7800
7000
0000
C180
E380
FF80
FC00
FC00
F800
F000
E000
E000
E000
E000
E000
E000
E000
E000
E000
E000
E000
E000
E000
E000
E000
E000
E000
ENDCHAR
STARTCHAR $1E5A
ENCODING 7770
SWIDTH 592 0
DWIDTH 25 0
BBX 22 39 3 -6
BITMAP
FFF800
FFFF80
FFFFC0
E007C0
E001C0
E00070
E00070
E00070
E0007C
E0003C
E0003C
E0007C
E00078
E00070
E00070
E00070
E001C0
E1FFC0
E0F000
E0F000
E07000
E01800
E01C00
E01E00
E03F00
E00F80
E00F80
E00380
E00180
E001C0
E000F0
C000E0
000000
000000
00C000
00C000
00C000
00C000
006000
ENDCHAR
STARTCHAR $1E5B
ENCODING 7771
SWIDTH 296 0
DWIDTH 13 0
BBX 9 32 3 -8
BITMAP
E380
FF80
FF80
FC00
FC00
FC00
E000
E000
E000
E000
E000
E000
E000
E000
E000
E000
E000
E000
E000
E000
E000
E000
E000
E000
0000
0000
C000
E000
E000
E000
E000
C000
ENDCHAR
STARTCHAR $1E5C
ENCODING 7772
SWIDTH 592 0
DWIDTH 25 0
BBX 22 45 3 -6
BITMAP
1FFF80
1FFF80
1FFF80
000000
000000
000000
FFFC00
FFFE00
FFFF80
F007C0
E000E0
E00070
E00070
E00078
E00078
E0003C
E0003C
E0003C
E00070
E00070
E00070
E00070
E003E0
E007C0
E1FF80
E0F000
E07000
E03000
E01800
E01C00
E01E00
E01F00
E00780
E00180
E000C0
E000E0
C000F0
000000
000000
000000
000000
00C000
00E000
00C000
00C000
ENDCHAR
STARTCHAR $1E5D
ENCODING 7773
SWIDTH 296 0
DWIDTH 13 0
BBX 13 37 -1 -5
BITMAP
FFF8
FFF8
FFF8
0000
0000
0000
0310
0738
07F8
07E0
07C0
0780
0700
0700
0700
0700
0700
0700
0700
0700
0700
0700
0700
0700
0700
0700
0700
0700
0700
0600
0000
0000
0000
0700
0700
0700
0300
ENDCHAR
STARTCHAR $1E62
ENCODING 7778
SWIDTH 481 0
DWIDTH 21 0
BBX 18 37 1 -3
BITMAP
07F000
0FFF00
1FFF00
3C0F00
7C0780
7C0780
E00380
E00180
E00000
F00000
7C0000
7C0000
1F8000
0FF800
0FF800
03FE00
007F00
000F80
0007C0
0003C0
0001C0
0000C0
C000C0
E000C0
E001C0
F80180
FC0F80
3C0F00
1C0F00
0FFF00
07F000
03E000
000000
00C000
00C000
00C000
004000
ENDCHAR
STARTCHAR $1E63
ENCODING 7779
SWIDTH 370 0
DWIDTH 16 0
BBX 16 30 0 -4
BITMAP
07C0
0FF8
1FF8
3C18
7C18
7C38
7800
7800
7C00
1F80
07C0
03F0
0078
003E
001E
001F
F00F
780F
780E
380C
1FF8
0FF8
07E0
03C0
0000
0380
0380
0380
0380
0380
ENDCHAR
STARTCHAR $1E6C
ENCODING 7788
SWIDTH 444 0
DWIDTH 19 0
BBX 17 39 0 -6
BITMAP
FFFF80
FFFF80
FFFF80
00C000
00C000
00E000
00C000
00E000
00C000
00E000
00C000
00C000
00E000
00C000
00C000
00C000
00C000
00C000
00C000
00E000
00C000
00C000
00C000
00C000
00E000
00C000
00C000
00C000
00C000
00C000
00C000
00C000
000000
000000
00C000
00C000
00C000
00C000
006000
ENDCHAR
STARTCHAR $1E6D
ENCODING 7789
SWIDTH 333 0
DWIDTH 14 0
BBX 13 39 0 -6
BITMAP
0780
0780
0780
0780
0780
0780
0F80
0F80
FFF8
FFF8
0FC8
0F80
0780
0780
0780
0780
0780
0780
0780
0780
0780
0780
0780
0780
0780
0780
0780
0780
0780
0780
0780
0380
0000
0000
0780
0780
0780
0780
0780
ENDCHAR
STARTCHAR $1E6E
ENCODING 7790
SWIDTH 444 0
DWIDTH 19 0
BBX 17 37 0 -3
BITMAP
FFFF80
FFFF80
FFFF80
00C000
00C000
00E000
00C000
00E000
00C000
00E000
00C000
00C000
00E000
00C000
00C000
00C000
00C000
00C000
00C000
00E000
00C000
00C000
00C000
00C000
00E000
00C000
00C000
00C000
00C000
00C000
00C000
00C000
000000
000000
3FFF00
7FFF00
7FFE00
ENDCHAR
STARTCHAR $1E6F
ENCODING 7791
SWIDTH 333 0
DWIDTH 14 0
BBX 13 37 0 -3
BITMAP
0780
0780
0780
0780
0780
0780
0F80
0F80
FFF8
FFF8
0FC8
0F80
0780
0780
0780
0780
0780
0780
0780
0780
0780
0780
0780
0780
0780
0780
0780
0780
0780
0780
0780
0380
0000
0000
FFF8
FFF8
FFF0
ENDCHAR
STARTCHAR $1E80
ENCODING 7808
SWIDTH 962 0
DWIDTH 41 0
BBX 39 39 0 5
BITMAP
0007C00000
0000E00000
0000F00000
0000FC0000
00007F0000
00000C0000
0000000000
0000000000
E0003C000C
70003C000E
78003C000E
78007C000E
78007F000E
18007F000C
1C007F001C
1C007F0038
1C00CF0038
1C00C30038
1C00C38070
1E00C38070
0F00C38070
0701C38070
070383C070
070781C070
030780C060
038780C0C0
038780C1C0
038700E1C0
038700E1C0
038F007BC0
038F007B80
01CE007B80
00EE007B80
00FC007B80
00F8003F80
0078003F80
0078003F00
0078003F00
0038001F00
ENDCHAR
STARTCHAR $1E81
ENCODING 7809
SWIDTH 814 0
DWIDTH 35 0
BBX 34 33 0 1
BITMAP
0008000000
001F000000
001F000000
0007C00000
0001C00000
0001F00000
0000000000
0000000000
0000000000
E0000000C0
60000001C0
70000001C0
7800C00380
7800E00380
7C00F00380
7C01F00380
1C01F00380
1C07F00700
0707FC0700
0707BC0E00
07073C1C00
07073C3C00
070F3C3C00
030F3E3C00
038E0F3800
038E0F7800
03F80F7000
03F8076000
03F8076000
00F803E000
00F003C000
00F003C000
001003C000
ENDCHAR
STARTCHAR $1E82
ENCODING 7810
SWIDTH 962 0
DWIDTH 41 0
BBX 39 39 0 5
BITMAP
000003C000
0000078000
0000070000
00007C0000
0000780000
0000780000
0000000000
0000000000
E0003C000C
70003C000E
78003C000E
78007C000E
78007F000E
18007F000C
1C007F001C
1C007F0038
1C00CF0038
1C00C30038
1C00C38070
1E00C38070
0F00C38070
0701C38070
070383C070
070781C070
030780C060
038780C0C0
038780C1C0
038700E1C0
038700E1C0
038F007BC0
038F007B80
01CE007B80
00EE007B80
00FC007B80
00F8003F80
0078003F80
0078003F00
0078003F00
0038001F00
ENDCHAR
STARTCHAR $1E83
ENCODING 7811
SWIDTH 814 0
DWIDTH 35 0
BBX 34 33 0 1
BITMAP
0000030000
00001F0000
00003F0000
0001FC0000
0001F80000
0001E00000
0000000000
0000000000
0000000000
E0000000C0
60000001C0
70000001C0
7800C00380
7800E00380
7C00F00380
7C01F00380
1C01F00380
1C07F00700
0707FC0700
0707BC0E00
07073C1C00
07073C3C00
070F3C3C00
030F3E3C00
038E0F3800
038E0F7800
03F80F7000
03F8076000
03F8076000
00F803E000
00F003C000
00F003C000
001003C000
ENDCHAR
STARTCHAR $1E84
ENCODING 7812
SWIDTH 962 0
DWIDTH 41 0
BBX 39 39 0 3
BITMAP
0000C38000
0000C38000
0000C38000
0000C38000
0000C38000
0000000000
0000000000
0000000000
E0003C000C
70003C000E
78003C000E
78007C000E
78007F000E
18007F000C
1C007F001C
1C007F0038
1C00CF0038
1C00C30038
1C00C38070
1E00C38070
0F00C38070
0701C38070
070383C070
070781C070
030780C060
038780C0C0
038780C1C0
038700E1C0
038700E1C0
038F007BC0
038F007B80
01CE007B80
00EE007B80
00FC007B80
00F8003F80
0078003F80
0078003F00
0078003F00
0038001F00
ENDCHAR
STARTCHAR $1E85
ENCODING 7813
SWIDTH 814 0
DWIDTH 35 0
BBX 34 32 0 0
BITMAP
000F3C0000
000F3C0000
000F3C0000
000E3C0000
0006380000
0000000000
0000000000
0000000000
E0000001C0
70000001C0
7800000180
7800C00380
7C01F00380
1C01F00380
1C01F00380
1C03F00300
0C07F00700
0707FC0700
07073C1C00
07073C3C00
07073C3C00
030F3C3C00
038F1E3C00
038E0F3C00
03880F7800
03F80F6000
00F8076000
00F8034000
00F8034000
00F003C000
007003C000
002001C000
ENDCHAR
STARTCHAR $1E92
ENCODING 7826
SWIDTH 481 0
DWIDTH 21 0
BBX 20 39 0 -6
BITMAP
7FFFC0
7FFFC0
3FFFC0
0001C0
0001C0
0007C0
000780
000780
000F00
001F00
001E00
001E00
003800
007800
007000
006000
00C000
01C000
038000
038000
038000
078000
070000
070000
3C0000
7C0000
7C0000
780000
780000
FFFFF0
FFFFF0
FFFFE0
000000
000000
007000
007000
007000
007000
003000
ENDCHAR
STARTCHAR $1E93
ENCODING 7827
SWIDTH 407 0
DWIDTH 18 0
BBX 17 32 0 -8
BITMAP
7FFF80
7FFF80
3FFF80
000E00
000E00
001800
007800
007800
007000
00E000
01C000
03C000
03E000
078000
078000
1F0000
1F0000
7E0000
7C0000
780000
FFFF80
FFFF80
FFFF80
FFFF80
000000
000000
004000
00C000
00C000
00C000
00C000
00C000
ENDCHAR
STARTCHAR $1E97
ENCODING 7831
SWIDTH 333 0
DWIDTH 14 0
BBX 13 39 0 3
BITMAP
7CC0
7CC0
7CC0
7CC0
7CC0
0000
0000
0000
0380
0780
0780
0780
0780
0780
0780
1FE0
FFF8
FFF8
0780
0780
0780
0780
0780
0780
0780
0780
0780
0780
0780
0780
0780
0780
0780
0780
0780
0780
0780
0780
0780
ENDCHAR
STARTCHAR $1EA0
ENCODING 7840
SWIDTH 740 0
DWIDTH 32 0
BBX 29 39 1 -6
BITMAP
000F0000
001F8000
001F8000
001F8000
001F8000
0031C000
0070C000
0070C000
00F0C000
00E07000
00C07000
00C07000
03E03800
03803C00
03803C00
03803C00
07003F00
07FFFF00
0FFFFF00
0FFFFF00
1C000780
1C000380
1C000380
1C000180
780000C0
780000C0
F00000E0
E00000F8
E00000F8
E0000078
E0000060
C0000020
00000000
00000000
00070000
000F0000
000F0000
000F0000
00060000
ENDCHAR
STARTCHAR $1EA1
ENCODING 7841
SWIDTH 666 0
DWIDTH 28 0
BBX 25 30 1 -4
BITMAP
00FF8380
07FFE380
07FFF380
1F80FF80
1C007F80
7C003F80
78001F80
78000F80
F8000F80
F0000780
E0000380
E0000380
E0000380
F0000780
F0000780
F8000F80
78000F80
7C001F80
1F003380
1F006380
0FFFC380
03FFC380
01FF8380
00FF8100
00000000
00180000
00180000
00180000
00180000
00080000
ENDCHAR
STARTCHAR $1EA2
ENCODING 7842
SWIDTH 740 0
DWIDTH 32 0
BBX 29 41 1 2
BITMAP
001F8000
0010C000
0010C000
0001C000
0001C000
0007C000
00070000
00070000
00000000
00060000
000E0000
001F8000
003F8000
0019C000
0031C000
0070C000
0070C000
00F0C000
00F06000
00F07000
00C07000
00C07800
01803C00
03803C00
03803C00
07003F00
07FFFF00
0FFFFF00
0FFFFF00
1FFFFF00
1C000380
1C000380
1C000380
780000C0
780000C0
780000E0
E00000F0
E0000078
E0000078
E0000070
C0000060
ENDCHAR
STARTCHAR $1EA3
ENCODING 7843
SWIDTH 666 0
DWIDTH 28 0
BBX 25 33 1 1
BITMAP
007F0000
00E78000
00C78000
00078000
00078000
000F0000
00180000
00180000
00000000
00FF8380
01FF8380
07FFF380
0F007F80
1C003F80
3C003F80
7C001F80
78000F80
F8000F80
F0000380
F0000380
E0000380
E0000380
F0000380
F0000380
F8000F80
78000F80
7C001F80
3C003F80
1C003F80
0F007380
07FFC380
03FFC380
00FF8380
ENDCHAR
STARTCHAR $1EA4
ENCODING 7844
SWIDTH 740 0
DWIDTH 32 0
BBX 29 47 1 1
BITMAP
00004000
0000E000
0001F000
0007F000
000FC000
001F0000
00000000
00000000
000E0000
001F8000
003D8000
0078C000
01F07800
00000000
00000000
00000000
000F0000
001F8000
001F8000
003F8000
0019C000
0070C000
0070C000
0070C000
00F0E000
00E07000
00C07000
01C07800
03C07800
03803C00
03803C00
03803E00
07003F00
07FFFF00
1FFFFF00
1FFFFF00
1C000380
1C000380
1C0003C0
380000C0
780000C0
780000C0
E00000F8
E0000078
E0000078
E0000078
E0000060
ENDCHAR
STARTCHAR $1EA5
ENCODING 7845
SWIDTH 666 0
DWIDTH 28 0
BBX 25 37 1 5
BITMAP
0007C000
000F8000
000F8000
001C0000
00780000
00700000
00000000
00000000
007E0000
00E78000
01C18000
0380C000
00000000
007F0180
007F0380
00FFC380
07FFF380
1F007F80
3E003F80
7C001F80
7C000F80
78000F80
F8000F80
F8000F80
E0000380
E0000380
E0000380
E0000780
F0000780
F8000F80
78000F80
7C001F80
7C003F80
1F007380
0FFFC380
0FFFC380
007F8300
ENDCHAR
STARTCHAR $1EA6
ENCODING 7846
SWIDTH 740 0
DWIDTH 32 0
BBX 29 47 1 1
BITMAP
00400000
00F00000
00F00000
007E0000
003F0000
000F8000
00000000
00000000
000E0000
001F8000
003D8000
0078C000
01F07800
00000000
00000000
00000000
000F0000
001F8000
001F8000
003F8000
0019C000
0070C000
0070C000
0070C000
00F0E000
00E07000
00C07000
01C07800
03C07800
03803C00
03803C00
03803E00
07003F00
07FFFF00
1FFFFF00
1FFFFF00
1C000380
1C000380
1C0003C0
380000C0
780000C0
780000C0
E00000F8
E0000078
E0000078
E0000078
E0000060
ENDCHAR
STARTCHAR $1EA7
ENCODING 7847
SWIDTH 666 0
DWIDTH 28 0
BBX 25 37 1 5
BITMAP
03C00000
01F00000
00F00000
007E0000
003E0000
00000000
00000000
00000000
007E0000
00E78000
01C18000
0380C000
00000000
007F0180
007F0380
00FFC380
07FFF380
1F007F80
3E003F80
7C001F80
7C000F80
78000F80
F8000F80
F8000F80
E0000380
E0000380
E0000380
E0000780
F0000780
F8000F80
78000F80
7C001F80
7C003F80
1F007380
0FFFC380
0FFFC380
007F8300
ENDCHAR
STARTCHAR $1EA8
ENCODING 7848
SWIDTH 740 0
DWIDTH 32 0
BBX 29 48 1 2
BITMAP
0007F000
0007B800
0007B800
00063C00
00063800
00003800
00006000
00004000
00000000
00060000
000E0000
001F8000
0038C000
03F0F800
03F0F800
01C03800
00000000
00060000
000F8000
000F8000
001F8000
001F8000
0070C000
0070C000
0070C000
00F0C000
00E07000
00C07000
00C07000
01C03800
03803C00
03803C00
03803C00
07003F00
07FFFF00
07FFFF00
1FFFFF00
1C000780
1C000380
1C000380
3C000180
7C0000C0
780000E0
F00000E0
E00000F0
E0000078
E0000078
E0000070
ENDCHAR
STARTCHAR $1EA9
ENCODING 7849
SWIDTH 666 0
DWIDTH 28 0
BBX 25 39 1 3
BITMAP
000FC000
001E6000
001C7000
00007000
00007000
0000E000
0001C000
00018000
00000000
001E0000
005E0000
00CF8000
01E0C000
00000000
00000000
00000000
00FF8380
03FFF380
0F007F80
0E007F80
1C003F80
7C003F80
78001F80
78000F80
F8000F80
F0000380
E0000380
E0000380
E0000380
F0000780
F8000F80
F8000F80
7C000F80
7E003F80
1F007380
1F806380
03FFC380
03FF8380
007F0380
ENDCHAR
STARTCHAR $1EAA
ENCODING 7850
SWIDTH 740 0
DWIDTH 32 0
BBX 29 45 1 1
BITMAP
00100000
00F84000
00F84000
00C7F000
00C1F000
0001C000
000F0000
000F0000
001F8000
0039C000
0148F000
03C07800
00000000
00060000
000E0000
001F0000
001F8000
001F8000
0071C000
0070C000
0070C000
0070C000
00F0C000
00F0C000
00E07000
00C07000
01C03800
03803C00
03803C00
03803C00
07003F00
07FFFF00
0FFFFF00
1FFFFF00
1C000380
1C000380
3C000380
780000C0
780000C0
780000C0
780000C0
E00000F8
E0000078
E0000078
E0000078
ENDCHAR
STARTCHAR $1EAB
ENCODING 7851
SWIDTH 666 0
DWIDTH 28 0
BBX 25 36 1 3
BITMAP
00F18000
01FFC000
01FFC000
00060000
00000000
00000000
007E0000
007F0000
00C38000
03E1C000
01400000
00000000
00FF8300
07FFE380
07FFF380
1FFFFF80
1F007F80
7E003F80
7C001F80
78000F80
F8000F80
F0000780
E0000380
E0000380
E0000380
E0000380
E0000780
F8000F80
F8000F80
78000F80
7C003F80
3E007F80
0F007380
03FFC380
00FF8380
007F8100
ENDCHAR
STARTCHAR $1EAC
ENCODING 7852
SWIDTH 740 0
DWIDTH 32 0
BBX 29 47 1 -7
BITMAP
000F0000
001F8000
001FC000
0019C000
0070C000
01E07800
00000000
00000000
000E0000
001F8000
001F8000
001F8000
0038C000
0070C000
0070C000
0070C000
00F0C000
00C07000
00C07000
01E07000
03C03800
03803C00
03803C00
03803E00
07003F00
07FFFF00
0FFFFF00
1FFFFF00
1FFFFF00
1E000380
1C000380
3C0001C0
780000C0
780000E0
E00000E0
E00000F0
E0000078
E0000078
E0000030
00000000
00000000
00000000
000F0000
000F0000
000F0000
000E0000
00060000
ENDCHAR
STARTCHAR $1EAD
ENCODING 7853
SWIDTH 666 0
DWIDTH 28 0
BBX 25 37 1 -3
BITMAP
00180000
007F0000
007F0000
00C70000
03C18000
03C1C000
00000000
00000000
00FF8380
03FFF380
0748F380
1F007F80
7C003F80
78001F80
78000F80
F8000F80
F8000F80
E0000380
E0000380
E0000380
E0000380
F0000780
F8000F80
F8000F80
7C000F80
7C003F80
3F003F80
1F80F380
0F80E380
07FFC380
00FF8380
00FF0180
00000000
00180000
00180000
00180000
00100000
ENDCHAR
STARTCHAR $1EAE
ENCODING 7854
SWIDTH 740 0
DWIDTH 32 0
BBX 29 47 1 1
BITMAP
00003000
0000F000
0001F000
0007F000
000FC000
000F0000
00000000
00000000
00C07000
00E07000
0068F000
007FF000
000E0000
00000000
00000000
00000000
000F0000
001F8000
001F8000
003F8000
0019C000
0070C000
0070C000
0070C000
00F0E000
00E07000
00C07000
01C07800
03C07800
03803C00
03803C00
03803E00
07003F00
07FFFF00
1FFFFF00
1FFFFF00
1C000380
1C000380
1C0003C0
380000C0
780000C0
780000C0
E00000F8
E0000078
E0000078
E0000078
E0000060
ENDCHAR
STARTCHAR $1EAF
ENCODING 7855
SWIDTH 666 0
DWIDTH 28 0
BBX 25 39 1 3
BITMAP
00004000
0000C000
0001C000
0007C000
000FC000
003F0000
00300000
00100000
00000000
0380C000
03C98000
03FF8000
007E0000
00000000
00000000
00000000
00FF8380
03FFF380
0F007F80
0E007F80
1C003F80
7C003F80
78001F80
78000F80
F8000F80
F0000380
E0000380
E0000380
E0000380
F0000780
F8000F80
F8000F80
7C000F80
7E003F80
1F007380
1F806380
03FFC380
03FF8380
007F0380
ENDCHAR
STARTCHAR $1EB0
ENCODING 7856
SWIDTH 740 0
DWIDTH 32 0
BBX 29 47 1 1
BITMAP
00800000
00F00000
00F00000
007E0000
003F0000
000F0000
00000000
00000000
00C07000
00E07000
0068F000
007FF000
000E0000
00000000
00000000
00000000
000F0000
001F8000
001F8000
003F8000
0019C000
0070C000
0070C000
0070C000
00F0E000
00E07000
00C07000
01C07800
03C07800
03803C00
03803C00
03803E00
07003F00
07FFFF00
1FFFFF00
1FFFFF00
1C000380
1C000380
1C0003C0
380000C0
780000C0
780000C0
E00000F8
E0000078
E0000078
E0000078
E0000060
ENDCHAR
STARTCHAR $1EB1
ENCODING 7857
SWIDTH 666 0
DWIDTH 28 0
BBX 25 37 1 5
BITMAP
03800000
03F00000
01F00000
00780000
00380000
00000000
00000000
00000000
0180C000
03FF8000
017F0000
007E0000
00000000
007F0180
007F0380
00FFC380
07FFF380
1F007F80
3E003F80
7C001F80
7C000F80
78000F80
F8000F80
F8000F80
E0000380
E0000380
E0000380
E0000780
F0000780
F8000F80
78000F80
7C001F80
7C003F80
1F007380
0FFFC380
0FFFC380
007F8300
ENDCHAR
STARTCHAR $1EB2
ENCODING 7858
SWIDTH 740 0
DWIDTH 32 0
BBX 29 47 1 1
BITMAP
001F8000
001EC000
001CC000
0019C000
0011C000
0007C000
00070000
00070000
00CF7000
00E07000
0068F000
007FF000
000E0000
00000000
00000000
00000000
000F0000
001F8000
001F8000
003F8000
0019C000
0070C000
0070C000
0070C000
00F0E000
00E07000
00C07000
01C07800
03C07800
03803C00
03803C00
03803E00
07003F00
07FFFF00
1FFFFF00
1FFFFF00
1C000380
1C000380
1C0003C0
380000C0
780000C0
780000C0
E00000F8
E0000078
E0000078
E0000078
E0000060
ENDCHAR
STARTCHAR $1EB3
ENCODING 7859
SWIDTH 666 0
DWIDTH 28 0
BBX 25 37 1 4
BITMAP
007F0000
00E78000
00C78000
00078000
00078000
000F0000
00180000
00180000
0180C000
03FF8000
017F0000
007E0000
00000000
007F0180
007F0380
00FFC380
07FFF380
1F007F80
3E003F80
7C001F80
7C000F80
78000F80
F8000F80
F8000F80
E0000380
E0000380
E0000380
E0000780
F0000780
F8000F80
78000F80
7C001F80
7C003F80
1F007380
0FFFC380
0FFFC380
007F8300
ENDCHAR
STARTCHAR $1EB4
ENCODING 7860
SWIDTH 740 0
DWIDTH 32 0
BBX 29 45 1 1
BITMAP
00100000
00FFE000
00FFF000
00C7F000
0001C000
00000000
00402000
00E07000
00C07000
007FC000
001F0000
000E0000
00000000
00060000
000E0000
001F0000
001F8000
001F8000
0071C000
0070C000
0070C000
0070C000
00F0C000
00F0C000
00E07000
00C07000
01C03800
03803C00
03803C00
03803C00
07003F00
07FFFF00
0FFFFF00
1FFFFF00
1C000380
1C000380
3C000380
780000C0
780000C0
780000C0
780000C0
E00000F8
E0000078
E0000078
E0000078
ENDCHAR
STARTCHAR $1EB5
ENCODING 7861
SWIDTH 666 0
DWIDTH 28 0
BBX 25 37 1 4
BITMAP
00C00000
01F00000
03F1C000
019FC000
000FC000
00030000
00000000
00000000
0180C000
03FF8000
017F0000
007E0000
00000000
007F0180
007F0380
00FFC380
07FFF380
1F007F80
3E003F80
7C001F80
7C000F80
78000F80
F8000F80
F8000F80
E0000380
E0000380
E0000380
E0000780
F0000780
F8000F80
78000F80
7C001F80
7C003F80
1F007380
0FFFC380
0FFFC380
007F8300
ENDCHAR
STARTCHAR $1EB6
ENCODING 7862
SWIDTH 740 0
DWIDTH 32 0
BBX 29 47 1 -7
BITMAP
00C07000
00C07000
00E07000
007FF000
003FC000
000F0000
00000000
00000000
000E0000
001F8000
001F8000
001F8000
0038C000
0070C000
0070C000
0070C000
00F0C000
00C07000
00C07000
01E07000
03C03800
03803C00
03803C00
03803E00
07003F00
07FFFF00
0FFFFF00
1FFFFF00
1FFFFF00
1E000380
1C000380
3C0001C0
780000C0
780000E0
E00000E0
E00000F0
E0000078
E0000078
E0000030
00000000
00000000
00000000
000F0000
000F0000
000F0000
000E0000
00060000
ENDCHAR
STARTCHAR $1EB7
ENCODING 7863
SWIDTH 666 0
DWIDTH 28 0
BBX 25 37 1 -3
BITMAP
0380C000
0380C000
0181C000
00FF8000
00FF8000
00380000
00000000
00000000
00FF8380
03FFF380
0748F380
1F007F80
7C003F80
78001F80
78000F80
F8000F80
F8000F80
E0000380
E0000380
E0000380
E0000380
F0000780
F8000F80
F8000F80
7C000F80
7C003F80
3F003F80
1F80F380
0F80E380
07FFC380
00FF8380
00FF0180
00000000
00180000
00180000
00180000
00100000
ENDCHAR
STARTCHAR $1EB8
ENCODING 7864
SWIDTH 518 0
DWIDTH 22 0
BBX 17 39 3 -6
BITMAP
FFFF80
FFFF80
FFFF80
E00000
E00000
E00000
E00000
E00000
E00000
E00000
E00000
E00000
E00000
FFFF00
FFFF00
FFFF80
FFFF80
E00000
E00000
E00000
E00000
E00000
E00000
E00000
E00000
E00000
E00000
E00000
F00000
FFFF80
FFFF80
FFFF00
000000
000000
038000
038000
038000
038000
038000
ENDCHAR
STARTCHAR $1EB9
ENCODING 7865
SWIDTH 666 0
DWIDTH 28 0
BBX 24 30 1 -4
BITMAP
00FF80
07FFE0
07FFF0
1F80F8
1C007C
7C003C
70001E
70000F
F0000F
FFFFFF
FFFFFF
FFFFFF
F00000
E00000
E00000
F00000
78000F
7C001C
1F0030
1F0060
0FFFC0
03FFC0
01FF00
00FE00
000000
001800
001800
001800
001800
000800
ENDCHAR
STARTCHAR $1EBA
ENCODING 7866
SWIDTH 518 0
DWIDTH 22 0
BBX 17 41 3 2
BITMAP
07F000
063000
001000
001000
007000
006000
008000
008000
000000
FFFF80
FFFF80
FFFF80
F00000
E00000
E00000
E00000
E00000
E00000
E00000
E00000
E00000
E00000
F00000
F00000
FFFF80
FFFF80
F00000
E00000
E00000
E00000
E00000
E00000
E00000
E00000
E00000
E00000
E00000
FFFF80
FFFF80
FFFF80
FFFF80
ENDCHAR
STARTCHAR $1EBB
ENCODING 7867
SWIDTH 666 0
DWIDTH 28 0
BBX 24 33 1 1
BITMAP
007F00
00E700
00C700
000700
000700
000F00
001800
001800
000000
00FF80
01FF80
07FFF0
0F0078
1C003C
3C003C
7C001C
78000F
E0000F
FFFFFF
FFFFFF
FFFFFF
FFFFFF
E00000
E00000
E00000
78000F
7C001C
3C0038
1C0038
0F0070
07FFC0
03FFC0
00FE00
ENDCHAR
STARTCHAR $1EBC
ENCODING 7868
SWIDTH 518 0
DWIDTH 22 0
BBX 17 39 3 3
BITMAP
040000
0F8800
1F8800
18F800
00F800
003000
000000
000000
FFFF80
FFFF80
E54800
E00000
E00000
E00000
E00000
E00000
E00000
E00000
E00000
E00000
E00000
F00000
FFFF80
FFFF80
FFFF80
F00000
E00000
E00000
E00000
E00000
E00000
E00000
E00000
E00000
E00000
E00000
FFFF80
FFFF80
FFFF00
ENDCHAR
STARTCHAR $1EBD
ENCODING 7869
SWIDTH 666 0
DWIDTH 28 0
BBX 24 32 1 0
BITMAP
00C000
01F000
03F1C0
019FC0
000FC0
000300
000000
000000
00FF80
03FFF0
0748F0
1F0078
7C003C
78001C
78000E
F0000F
F0000F
FFFFFF
FFFFFF
FFFFFE
F00000
E00000
F00000
F00000
7C000E
7C003C
3F0038
1F80F0
0F80E0
07FFC0
00FF00
00FE00
ENDCHAR
STARTCHAR $1EBE
ENCODING 7870
SWIDTH 518 0
DWIDTH 22 0
BBX 17 47 3 1
BITMAP
000800
007F00
007E00
00F800
03F000
03C000
038000
030000
03C000
03F000
077800
1F1800
780E00
000000
000000
000000
FFFF80
FFFF80
F00000
F00000
E00000
E00000
E00000
E00000
E00000
E00000
E00000
E00000
E00000
F00000
FFFF80
FFFF80
FFFF80
E00000
E00000
E00000
E00000
E00000
E00000
E00000
E00000
E00000
E00000
FFFF80
FFFF80
FFFF80
FFFF80
ENDCHAR
STARTCHAR $1EBF
ENCODING 7871
SWIDTH 666 0
DWIDTH 28 0
BBX 24 37 1 5
BITMAP
0007C0
001F80
001F80
001C00
007800
007000
000000
000000
007E00
00EF80
01C980
0380C0
000000
007F00
007F00
00FFC0
07FFF0
1F007C
3E003C
7C001E
7C000F
70000F
F0000F
F0001F
FFFFFF
FFFFFF
F00000
E00000
E00000
F00000
78000C
7C001C
7C0038
1F0070
0FFFC0
0FFFC0
007E00
ENDCHAR
STARTCHAR $1EC0
ENCODING 7872
SWIDTH 518 0
DWIDTH 22 0
BBX 17 47 3 1
BITMAP
1C0000
3E0000
3F0000
0F8000
07C000
00E000
004000
006000
01C000
03F000
077800
1F1800
780E00
000000
000000
000000
FFFF80
FFFF80
F00000
F00000
E00000
E00000
E00000
E00000
E00000
E00000
E00000
E00000
E00000
F00000
FFFF80
FFFF80
FFFF80
E00000
E00000
E00000
E00000
E00000
E00000
E00000
E00000
E00000
E00000
FFFF80
FFFF80
FFFF80
FFFF80
ENDCHAR
STARTCHAR $1EC1
ENCODING 7873
SWIDTH 666 0
DWIDTH 28 0
BBX 24 37 1 5
BITMAP
03C000
01F000
00F000
007E00
003E00
000000
000000
000000
007E00
00EF80
01C980
0380C0
000000
007F00
007F00
00FFC0
07FFF0
1F007C
3E003C
7C001E
7C000F
70000F
F0000F
F0001F
FFFFFF
FFFFFF
F00000
E00000
E00000
F00000
78000C
7C001C
7C0038
1F0070
0FFFC0
0FFFC0
007E00
ENDCHAR
STARTCHAR $1EC2
ENCODING 7874
SWIDTH 518 0
DWIDTH 22 0
BBX 17 48 3 2
BITMAP
007800
00EF00
00CF00
00C700
000700
000F00
001800
001800
000000
03C000
03E000
07F000
0F3800
180E00
380E00
600C00
000000
FFFF80
FFFF80
FFFF80
F00000
E00000
E00000
E00000
E00000
E00000
E00000
E00000
E00000
E00000
E00000
FFFF00
FFFF80
FFFF80
E00000
E00000
E00000
E00000
E00000
E00000
E00000
E00000
E00000
E00000
E00000
FFFF00
FFFF80
FFFF80
ENDCHAR
STARTCHAR $1EC3
ENCODING 7875
SWIDTH 666 0
DWIDTH 28 0
BBX 24 39 1 3
BITMAP
000FC0
001E60
001C70
0000F0
0000C0
0000C0
000180
000180
000000
001E00
005E00
00CF80
01E7C0
000000
000000
000000
00FF80
03FFF0
0F007C
0E007C
1C003C
7C003C
78001E
78000F
E0000F
FFFFFF
FFFFFF
FFFFFE
FFFFFC
E00000
E00000
F8000E
7C000F
7E003C
1F0070
1F8060
03FFC0
03FF00
007E00
ENDCHAR
STARTCHAR $1EC4
ENCODING 7876
SWIDTH 518 0
DWIDTH 22 0
BBX 17 45 3 1
BITMAP
040000
0F8800
1F8800
18F800
00F800
003000
01C000
03E000
03F000
0F3800
0C1C00
780E00
000000
FFFF00
FFFF00
FFFF80
FFFF80
E00000
E00000
E00000
E00000
E00000
E00000
E00000
E00000
E00000
E00000
E00000
F00000
FFFF80
FFFF80
FFFF00
E00000
E00000
E00000
E00000
E00000
E00000
E00000
E00000
E00000
E00000
FFFF80
FFFF80
FFFF80
ENDCHAR
STARTCHAR $1EC5
ENCODING 7877
SWIDTH 666 0
DWIDTH 28 0
BBX 24 36 1 3
BITMAP
00F180
01FFC0
01FFC0
000600
000000
000000
007E00
007F00
00CF80
03E1C0
014000
000000
00FF80
07FFE0
07FFF0
1FFFF8
1F007C
7E003C
7C001F
78000F
F0000F
F0000F
FFFFFF
FFFFFF
FFFFFE
F00000
E00000
E00000
F00000
78000F
7C0038
3E0078
0F0070
03FFC0
00FF00
007E00
ENDCHAR
STARTCHAR $1EC6
ENCODING 7878
SWIDTH 518 0
DWIDTH 22 0
BBX 17 47 3 -7
BITMAP
03C000
07F000
07F000
1F9800
1C0E00
7C0E00
000000
000000
FFFF80
FFFF80
E54800
E00000
E00000
E00000
E00000
E00000
E00000
E00000
E00000
E00000
E00000
F00000
FFFF80
FFFF80
FFFF80
F00000
E00000
E00000
E00000
E00000
E00000
E00000
E00000
E00000
E00000
E00000
FFFF80
FFFF80
FFFF00
000000
000000
000000
038000
038000
038000
038000
038000
ENDCHAR
STARTCHAR $1EC7
ENCODING 7879
SWIDTH 666 0
DWIDTH 28 0
BBX 24 37 1 -3
BITMAP
001800
007F00
007F00
03C700
03C180
03C1C0
000000
000000
00FF80
03FFF0
0748F0
1F0078
7C003C
78001C
78000E
F0000F
F0000F
FFFFFF
FFFFFF
FFFFFE
F00000
E00000
F00000
F00000
7C000E
7C003C
3F0038
1F80F0
0F80E0
07FFC0
00FF00
00FE00
000000
001800
001800
001800
001000
ENDCHAR
STARTCHAR $1EC8
ENCODING 7880
SWIDTH 222 0
DWIDTH 10 0
BBX 9 41 0 2
BITMAP
7F00
F380
E380
0380
0380
0380
1E00
1C00
0000
0C00
0C00
1C00
1C00
1C00
1C00
1C00
1C00
1C00
1C00
1C00
1C00
1C00
1C00
1C00
1C00
1C00
1C00
1C00
1C00
1C00
1C00
1C00
1C00
1C00
1C00
1C00
1C00
1C00
1C00
1C00
0C00
ENDCHAR
STARTCHAR $1EC9
ENCODING 7881
SWIDTH 185 0
DWIDTH 8 0
BBX 8 33 0 1
BITMAP
7F
F3
E3
07
0C
1C
1C
1C
00
0C
0C
1C
1C
1C
1C
1C
1C
1C
1C
1C
1C
1C
1C
1C
1C
1C
1C
1C
1C
1C
1C
1C
0C
ENDCHAR
STARTCHAR $1ECA
ENCODING 7882
SWIDTH 222 0
DWIDTH 10 0
BBX 3 39 3 -6
BITMAP
E0
E0
E0
E0
E0
E0
E0
E0
E0
E0
E0
E0
E0
E0
E0
E0
E0
E0
E0
E0
E0
E0
E0
E0
E0
E0
E0
E0
E0
E0
E0
C0
00
00
E0
E0
E0
E0
E0
ENDCHAR
STARTCHAR $1ECB
ENCODING 7883
SWIDTH 185 0
DWIDTH 8 0
BBX 3 39 3 -6
BITMAP
E0
E0
E0
E0
E0
00
00
00
E0
E0
E0
E0
E0
E0
E0
E0
E0
E0
E0
E0
E0
E0
E0
E0
E0
E0
E0
E0
E0
E0
E0
C0
00
00
E0
E0
E0
E0
E0
ENDCHAR
STARTCHAR $1ECC
ENCODING 7884
SWIDTH 851 0
DWIDTH 36 0
BBX 33 37 1 -3
BITMAP
000FFC0000
00FFFF8000
00FFFF8000
03C007F000
03C003F800
03C000FC00
1E00003E00
1C00003F00
7C00001F00
7C00000700
7800000700
7800000780
F000000380
E000000380
E000000380
E000000380
E000000380
E000000380
7800000380
7800000380
7800000780
7C00000700
7C00000F00
3E00001F00
1F00003F00
0780007C00
03C003FC00
03F007E000
03F007C000
00FFFF0000
003FF80000
001FF80000
0000000000
0000C00000
0000C00000
0000C00000
0000C00000
ENDCHAR
STARTCHAR $1ECD
ENCODING 7885
SWIDTH 666 0
DWIDTH 28 0
BBX 25 30 1 -4
BITMAP
00FF8000
07FFE000
07FFF000
1F80F800
1C007C00
7C003E00
78001F00
78000F00
F8000F00
F0000F80
E0000780
E0000780
E0000700
F0000F00
F0000F00
F8000F00
78000F00
7C001C00
1F003C00
1F007C00
0FFFF800
03FFF000
01FF8000
00FF8000
00000000
00180000
00180000
00180000
00180000
00080000
ENDCHAR
STARTCHAR $1ECE
ENCODING 7886
SWIDTH 851 0
DWIDTH 36 0
BBX 33 41 1 2
BITMAP
0007F00000
000F300000
000E300000
0000300000
0000300000
0000300000
0000E00000
0000C00000
0000000000
0007F80000
004FF88000
00FFFF8000
03F007F000
07E0007800
07C0007C00
1F80007E00
1C00003F00
7C00000700
7C00000780
7800000780
7800000780
7000000380
E000000380
E000000380
E000000380
E000000380
E000000380
E000000380
F000000380
7800000780
7800000780
7C00000F00
7C00001F00
1F00003F00
0F80007C00
0F8000FC00
03E007F800
03FFFF8000
007FFF8000
003FF80000
001FF80000
ENDCHAR
STARTCHAR $1ECF
ENCODING 7887
SWIDTH 666 0
DWIDTH 28 0
BBX 25 33 1 1
BITMAP
007F0000
00E78000
00C78000
00070000
00070000
000F0000
00180000
00180000
00000000
00FF8000
01FF8000
07FFF000
0F007800
1C003C00
3C003E00
7C001F00
78000F00
F8000F00
F0000F00
F0000F80
E0000780
E0000780
F0000F00
F0000F00
F8000F00
78000F00
7C001C00
3C003C00
1C003C00
0F007800
07FFF000
03FFE000
00FF8000
ENDCHAR
STARTCHAR $1ED0
ENCODING 7888
SWIDTH 851 0
DWIDTH 36 0
BBX 33 45 1 3
BITMAP
00003F0000
0000FE0000
0001FC0000
0003F00000
0003C00000
0003C00000
0000000000
0000000000
0001F00000
0007780000
000E380000
001E3C0000
0000000000
0007F80000
000FF80000
001FFC0000
00FFFF8000
01C003F800
038000FC00
0780007C00
0C00003C00
1C00001F00
3C00000F00
7C00000700
7800000780
7800000380
F000000380
E000000380
E000000380
E000000380
E000000380
F000000380
F000000380
7800000380
7800000780
7800000780
7C00000700
1C00001F00
1F00001F00
0780007C00
0780007C00
03C003F800
00FFFF8000
003FFE0000
001FFC0000
ENDCHAR
STARTCHAR $1ED1
ENCODING 7889
SWIDTH 666 0
DWIDTH 28 0
BBX 25 37 1 5
BITMAP
0007C000
001F8000
001F8000
001C0000
00780000
00700000
00000000
00000000
007E0000
00E78000
01C18000
0380C000
00000000
007F0000
007F0000
00FFC000
07FFF000
1F007C00
3E003F00
7C001F00
7C000F00
78000F00
F8000F00
F8000F00
E0000F80
E0000380
E0000700
E0000F00
F0000F00
F8000F00
78000C00
7C001C00
7C003C00
1F007C00
0FFFF000
0FFFE000
007F8000
ENDCHAR
STARTCHAR $1ED2
ENCODING 7890
SWIDTH 851 0
DWIDTH 36 0
BBX 33 47 1 1
BITMAP
0010000000
0018000000
0018000000
001F000000
000F800000
0003F00000
0000600000
0000400000
0000000000
0001F00000
0003F00000
0006780000
000C3F0000
0000000000
0000000000
0000000000
000FFC0000
00FFFF0000
01F003E000
03F001F000
03C0007800
0F80007C00
1E00003E00
1C00001F00
7C00000700
7800000780
7800000380
7000000380
7000000380
E000000380
E000000380
E000000380
E000000380
F000000380
7000000380
7000000380
7C00000700
7C00000700
3C00000F00
1F00001F00
0F00003E00
0780007C00
03E003F800
01FFFF8000
00FFFF0000
001FFC0000
000FF80000
ENDCHAR
STARTCHAR $1ED3
ENCODING 7891
SWIDTH 666 0
DWIDTH 28 0
BBX 25 37 1 5
BITMAP
03C00000
01F00000
00F00000
007E0000
003E0000
00000000
00000000
00000000
007E0000
00E78000
01C18000
0380C000
00000000
007F0000
007F0000
00FFC000
07FFF000
1F007C00
3E003F00
7C001F00
7C000F00
78000F00
F8000F00
F8000F00
E0000F80
E0000380
E0000700
E0000F00
F0000F00
F8000F00
78000C00
7C001C00
7C003C00
1F007C00
0FFFF000
0FFFE000
007F8000
ENDCHAR
STARTCHAR $1ED4
ENCODING 7892
SWIDTH 851 0
DWIDTH 36 0
BBX 33 47 1 1
BITMAP
00007F0000
0000E70000
0000C70000
0000070000
00000F0000
00001C0000
00003C0000
00003C0000
0000000000
0001F00000
0003F00000
0006780000
000C3F0000
0000000000
0000000000
0000000000
000FFC0000
00FFFF0000
01F003E000
03F001F000
03C0007800
0F80007C00
1E00003E00
1C00001F00
7C00000700
7800000780
7800000380
7000000380
7000000380
E000000380
E000000380
E000000380
E000000380
F000000380
7000000380
7000000380
7C00000700
7C00000700
3C00000F00
1F00001F00
0F00003E00
0780007C00
03E003F800
01FFFF8000
00FFFF0000
001FFC0000
000FF80000
ENDCHAR
STARTCHAR $1ED5
ENCODING 7893
SWIDTH 666 0
DWIDTH 28 0
BBX 25 39 1 3
BITMAP
000FC000
001E6000
001C7000
00007000
00007000
0000E000
0001C000
00018000
00000000
001E0000
005E0000
00CF8000
01E0C000
00000000
00000000
00000000
00FF8000
03FFF000
0F007C00
0E007E00
1C003F00
7C003F00
78001F00
78000F00
F8000F00
F0000F80
E0000780
E0000780
E0000780
F0000F00
F8000F00
F8000F00
7C000F00
7E003C00
1F007C00
1F807C00
03FFF000
03FF8000
007F0000
ENDCHAR
STARTCHAR $1ED6
ENCODING 7894
SWIDTH 851 0
DWIDTH 36 0
BBX 33 43 1 2
BITMAP
000F8C0000
001FFE0000
001FFF0000
0000380000
0000300000
0000000000
0007E00000
0007F00000
000F7C0000
001E3F0000
0008100000
0000000000
0007F80000
007FFF8000
007FFF8000
00FFFF8000
03C003E000
038000F800
0E00003C00
0C00003C00
1C00001F00
7C00000700
7800000780
7800000780
7800000380
F000000380
E000000380
E000000380
E000000380
E000000380
E000000380
F800000780
7800000780
7C00000780
7C00000700
3E00000700
1F80003E00
0F80007C00
07E0007800
03C007F000
01E007E000
00FFFF8000
003FFC0000
ENDCHAR
STARTCHAR $1ED7
ENCODING 7895
SWIDTH 666 0
DWIDTH 28 0
BBX 25 36 1 3
BITMAP
00F18000
01FFC000
01FFC000
00060000
00000000
00000000
007E0000
007F0000
00CF8000
03E1C000
01400000
00000000
00FF8000
07FFE000
07FFF000
1FFFF800
1F007C00
7E003E00
7C001F00
78000F00
F8000F00
F0000F00
E0000F80
E0000F80
E0000300
E0000F00
E0000F00
F8000F00
F8000F00
78000F00
7C003C00
3E007C00
0F007800
03FFF000
00FF8000
007F8000
ENDCHAR
STARTCHAR $1ED8
ENCODING 7896
SWIDTH 851 0
DWIDTH 36 0
BBX 33 43 1 -5
BITMAP
0007F00000
000FF80000
000E380000
001C3C0000
00083F0000
0000000000
000FFC0000
000FFE0000
00FFFF8000
03E007E000
03C000F000
0780007800
0C00001C00
1C00001E00
3C00001F00
7C00000F00
7800000780
7800000780
F000000380
F000000380
E000000380
E000000380
E000000380
E000000380
E000000380
7800000380
7800000380
7800000700
7800000700
7C00000F00
1F00001F00
1FC0003E00
03C0007800
01C003E000
00FFFF8000
007FFF0000
001FF80000
0000000000
0000000000
0000C00000
0000C00000
0000C00000
0000C00000
ENDCHAR
STARTCHAR $1ED9
ENCODING 7897
SWIDTH 666 0
DWIDTH 28 0
BBX 25 37 1 -3
BITMAP
00180000
007F0000
007F0000
00C70000
03C18000
03C1C000
00000000
00000000
00FF8000
03FFF000
0748F000
1F007800
7C003F00
78001F00
78000F00
F8000F00
F8000F00
E0000F00
E0000380
E0000380
E0000700
F0000F00
F8000F00
F8000F00
7C000E00
7C003C00
3F003C00
1F80F800
0F80F800
07FFF000
00FF8000
00FF0000
00000000
00180000
00180000
00180000
00100000
ENDCHAR
STARTCHAR $1EDA
ENCODING 7898
SWIDTH 851 0
DWIDTH 36 0
BBX 33 39 1 3
BITMAP
00000C0000
00007C0000
00007C0000
0003F80000
0003F00000
0003C00000
0000000000
0000000000
000FFC0380
00FFFF8380
01E817C380
03C007E380
07E000FF00
0C00007F00
1C00007F00
3C00001F00
7C00001F00
7C00000780
7800000380
7800000380
F000000380
E000000380
E000000380
E000000380
E000000380
E000000380
E000000380
7800000380
7800000780
7800000700
7C00001F00
3E00001E00
0F00003C00
0380007C00
03C001F800
01E003F800
007FFF0000
001FFC0000
003FF80000
ENDCHAR
STARTCHAR $1EDB
ENCODING 7899
SWIDTH 666 0
DWIDTH 28 0
BBX 26 32 1 1
BITMAP
0007C000
000F8000
000F8000
001C0000
00780000
00700000
00000000
00000000
00FF80C0
03FFF080
0748F180
1F007F80
7C003F00
78001F00
78000F00
F8000F00
F8000F00
E0000F00
E0000380
E0000380
E0000700
F0000F00
F8000F00
F8000F00
7C000E00
7C003C00
3F003C00
1F80F800
0F80F800
07FFF000
00FF8000
00FF0000
ENDCHAR
STARTCHAR $1EDC
ENCODING 7900
SWIDTH 851 0
DWIDTH 36 0
BBX 33 39 1 3
BITMAP
0018000000
001F800000
001FC00000
0007C00000
0001C00000
0001C00000
0000000000
0000000000
000FFC0380
00FFFF8380
01E817C380
03C007E380
07E000FF00
0C00007F00
1C00007F00
3C00001F00
7C00001F00
7C00000780
7800000380
7800000380
F000000380
E000000380
E000000380
E000000380
E000000380
E000000380
E000000380
7800000380
7800000780
7800000700
7C00001F00
3E00001E00
0F00003C00
0380007C00
03C001F800
01E003F800
007FFF0000
001FFC0000
003FF80000
ENDCHAR
STARTCHAR $1EDD
ENCODING 7901
SWIDTH 666 0
DWIDTH 28 0
BBX 26 32 1 1
BITMAP
03800000
01F00000
00F00000
007E0000
003E0000
00000000
00000000
00000000
00FF80C0
03FFF080
0748F180
1F007F80
7C003F00
78001F00
78000F00
F8000F00
F8000F00
E0000F00
E0000380
E0000380
E0000700
F0000F00
F8000F00
F8000F00
7C000E00
7C003C00
3F003C00
1F80F800
0F80F800
07FFF000
00FF8000
00FF0000
ENDCHAR
STARTCHAR $1EDE
ENCODING 7902
SWIDTH 851 0
DWIDTH 36 0
BBX 33 41 1 2
BITMAP
0007F00000
000F300000
000E300000
0000300000
0000300000
0000300000
0000E00000
0000C00000
0000000000
0007F80200
004FF88300
00FFFF8380
03F007F380
07E0007F00
07C0007F00
1F80007F00
1C00003F00
7C00000700
7C00000780
7800000780
7800000780
7000000380
E000000380
E000000380
E000000380
E000000380
E000000380
E000000380
F000000380
7800000780
7800000780
7C00000F00
7C00001E00
1F00003C00
0F80007C00
0F8000FC00
03E007F800
03FFFF8000
007FFF8000
003FF80000
001FF80000
ENDCHAR
STARTCHAR $1EDF
ENCODING 7903
SWIDTH 666 0
DWIDTH 28 0
BBX 26 33 1 1
BITMAP
007F0000
00E78000
00C78000
00070000
00070000
000F0000
00180000
00180000
00000000
00FF80C0
01FF80C0
07FFF080
0F007F80
1C003F00
3C003F00
7C001F00
78000F00
F8000F00
F0000F00
F0000F80
E0000780
E0000780
F0000F00
F0000F00
F8000F00
78000F00
7C001C00
3C003C00
1C003C00
0F007800
07FFF000
03FFE000
00FF8000
ENDCHAR
STARTCHAR $1EE0
ENCODING 7904
SWIDTH 851 0
DWIDTH 36 0
BBX 33 37 1 4
BITMAP
000F8C0000
001FFC0000
001FFC0000
0000380000
0000300000
0000000000
000FFC0380
000FFE0380
00FFFF8380
03E007E380
03C000F300
0780007F00
0C00001F00
1C00001F00
3C00001F00
7C00000F00
7800000780
7800000780
F000000380
F000000380
E000000380
E000000380
E000000380
E000000380
E000000380
7800000380
7800000380
7800000700
7800000600
7C00000C00
1F00001C00
1FC0003C00
03C0007800
01C003E000
00FFFF8000
007FFF0000
001FF80000
ENDCHAR
STARTCHAR $1EE1
ENCODING 7905
SWIDTH 666 0
DWIDTH 28 0
BBX 26 32 1 0
BITMAP
00400000
01F00000
03F1C000
018FC000
0007C000
00030000
00000000
00000000
00FF80C0
03FFF080
0748F180
1F007F80
7C003F00
78001F00
78000F00
F8000F00
F8000F00
E0000F00
E0000380
E0000380
E0000700
F0000F00
F8000F00
F8000F00
7C000E00
7C003C00
3F003C00
1F80F800
0F80F800
07FFF000
00FF8000
00FF0000
ENDCHAR
STARTCHAR $1EE2
ENCODING 7906
SWIDTH 851 0
DWIDTH 36 0
BBX 33 37 1 -3
BITMAP
000FFC0380
00FFFF8380
00FFFF8380
03C007F380
03C003FF00
03C000FF00
1E00003F00
1C00003F00
7C00001F00
7C00000700
7800000700
7800000780
F000000380
E000000380
E000000380
E000000380
E000000380
E000000380
7800000380
7800000380
7800000780
7C00000700
7C00000C00
3E00001C00
1F00003C00
0780007C00
03C003FC00
03F007E000
03F007C000
00FFFF0000
003FF80000
001FF80000
0000000000
0000C00000
0000C00000
0000C00000
0000C00000
ENDCHAR
STARTCHAR $1EE3
ENCODING 7907
SWIDTH 666 0
DWIDTH 28 0
BBX 26 30 1 -4
BITMAP
00FF80C0
07FFE080
07FFF080
1F80FF80
1C007F80
7C003F00
78001F00
78000F00
F8000F00
F0000F80
E0000780
E0000780
E0000700
F0000F00
F0000F00
F8000F00
78000F00
7C001C00
1F003C00
1F007C00
0FFFF800
03FFF000
01FF8000
00FF8000
00000000
00180000
00180000
00180000
00180000
00080000
ENDCHAR
STARTCHAR $1EE4
ENCODING 7908
SWIDTH 666 0
DWIDTH 28 0
BBX 22 37 3 -3
BITMAP
E0003C
E0003C
E0003C
E0003C
E0003C
E0003C
E0003C
E0003C
E0003C
E0003C
E0003C
E0003C
E0003C
E0003C
E0003C
E0003C
E0003C
E0003C
E0003C
E0003C
E0003C
E00038
F00070
F00070
F80070
780070
7C00E0
3C01C0
1C01C0
0FFF80
03FF00
01FE00
000000
007000
007000
007000
002000
ENDCHAR
STARTCHAR $1EE5
ENCODING 7909
SWIDTH 592 0
DWIDTH 25 0
BBX 20 30 3 -4
BITMAP
E00070
E00070
E00070
E00070
E00070
E00070
E00070
E00070
E00070
E00070
E00070
E00070
E00070
E00070
E00070
E00070
F000F0
F800F0
7C01F0
3E03F0
1FFF70
0FFE70
07F070
03F020
000000
00C000
00C000
00C000
00C000
00C000
ENDCHAR
STARTCHAR $1EE6
ENCODING 7910
SWIDTH 666 0
DWIDTH 28 0
BBX 22 41 3 2
BITMAP
00F800
018F00
018E00
001C00
001800
003000
007000
007000
000000
E00038
E00038
E0003C
E0003C
E0003C
E0003C
E0003C
E0003C
E0003C
E0003C
E0003C
E0003C
E0003C
E0003C
E0003C
E0003C
E0003C
E0003C
E0003C
E0003C
E0003C
E00038
F00078
F00070
F80070
780070
780060
7C01C0
1FFF80
1FFF00
03FF00
01FF00
ENDCHAR
STARTCHAR $1EE7
ENCODING 7911
SWIDTH 592 0
DWIDTH 25 0
BBX 20 33 3 1
BITMAP
03F000
033800
011800
001800
001800
003000
006000
004000
000000
E00070
E00070
E00070
E00070
E00070
E00070
E00070
E00070
E00070
E00070
E00070
E00070
E00070
E00070
E00070
E00070
E000F0
E000F0
F801F0
F801F0
7C07F0
1FFF70
1FFE70
03F070
ENDCHAR
STARTCHAR $1EE8
ENCODING 7912
SWIDTH 703 0
DWIDTH 30 0
BBX 26 39 3 5
BITMAP
000F8000
007F0000
007E0000
00F80000
00F00000
00E00000
00000000
00000000
E0003CC0
E0003C80
E0003F80
E0003F80
E0003F00
E0003E00
E0003C00
E0003C00
E0003C00
E0003C00
E0003C00
E0003C00
E0003C00
E0003C00
E0003C00
E0003C00
E0003C00
E0003C00
E0003C00
E0003C00
E0003C00
E0003800
E0007000
F8007000
F8007000
7C007000
7C01C000
3E03C000
1FFF8000
03FE0000
03F80000
ENDCHAR
STARTCHAR $1EE9
ENCODING 7913
SWIDTH 666 0
DWIDTH 28 0
BBX 25 33 3 1
BITMAP
00070000
001F0000
003E0000
007C0000
03F80000
03E00000
00000000
00000000
00000000
E0007380
E0007380
E0007380
E0007F00
E0007F00
E0007F00
E0007E00
E0007C00
E0007000
E0007000
E0007000
E0007000
E0007000
E0007000
E0007000
E0007000
E000F000
E000F000
F801F000
F801F000
7C07F000
1FFF7000
1FFE7000
03F07000
ENDCHAR
STARTCHAR $1EEA
ENCODING 7914
SWIDTH 703 0
DWIDTH 30 0
BBX 26 39 3 5
BITMAP
03800000
03C00000
01E00000
00F80000
00F80000
00300000
00000000
00000000
E0003CC0
E0003C80
E0003F80
E0003F80
E0003F00
E0003E00
E0003C00
E0003C00
E0003C00
E0003C00
E0003C00
E0003C00
E0003C00
E0003C00
E0003C00
E0003C00
E0003C00
E0003C00
E0003C00
E0003C00
E0003C00
E0003800
E0007000
F8007000
F8007000
7C007000
7C01C000
3E03C000
1FFF8000
03FE0000
03F80000
ENDCHAR
STARTCHAR $1EEB
ENCODING 7915
SWIDTH 666 0
DWIDTH 28 0
BBX 25 33 3 1
BITMAP
04000000
0E000000
0F000000
03C00000
03F00000
00F00000
00000000
00000000
00000000
E0007380
E0007380
E0007380
E0007F00
E0007F00
E0007F00
E0007E00
E0007C00
E0007000
E0007000
E0007000
E0007000
E0007000
E0007000
E0007000
E0007000
E000F000
E000F000
F801F000
F801F000
7C07F000
1FFF7000
1FFE7000
03F07000
ENDCHAR
STARTCHAR $1EEC
ENCODING 7916
SWIDTH 703 0
DWIDTH 30 0
BBX 26 41 3 2
BITMAP
00F80000
018F0000
018E0000
001C0000
00180000
00300000
00700000
00700000
00000000
E00038C0
E00038C0
E0003C80
E0003F80
E0003F00
E0003F00
E0003E00
E0003C00
E0003C00
E0003C00
E0003C00
E0003C00
E0003C00
E0003C00
E0003C00
E0003C00
E0003C00
E0003C00
E0003C00
E0003C00
E0003C00
E0003800
F0007800
F0007000
F8007000
78007000
78006000
7C03C000
1FFF8000
1FFF0000
03F80000
01F80000
ENDCHAR
STARTCHAR $1EED
ENCODING 7917
SWIDTH 666 0
DWIDTH 28 0
BBX 25 33 3 1
BITMAP
03F00000
03380000
01180000
00180000
00180000
00300000
00600000
00400000
00000000
E0007380
E0007380
E0007380
E0007F00
E0007F00
E0007F00
E0007E00
E0007C00
E0007000
E0007000
E0007000
E0007000
E0007000
E0007000
E0007000
E0007000
E000F000
E000F000
F801F000
F801F000
7C07F000
1FFF7000
1FFE7000
03F07000
ENDCHAR
STARTCHAR $1EEE
ENCODING 7918
SWIDTH 703 0
DWIDTH 30 0
BBX 26 39 3 3
BITMAP
00800000
07C10000
07E30000
047F0000
043F8000
00000000
00000000
00000000
E0003CC0
E0003C80
E0003F80
E0003F80
E0003F00
E0003E00
E0003C00
E0003C00
E0003C00
E0003C00
E0003C00
E0003C00
E0003C00
E0003C00
E0003C00
E0003C00
E0003C00
E0003C00
E0003C00
E0003C00
E0003C00
E0003800
E0007000
F8007000
F8007000
7C007000
7C01C000
3E03C000
1FFF8000
03FE0000
03F80000
ENDCHAR
STARTCHAR $1EEF
ENCODING 7919
SWIDTH 666 0
DWIDTH 28 0
BBX 25 32 3 0
BITMAP
03000000
0FFF0000
0FFE0000
0C7C0000
04380000
00000000
00000000
00000000
E0007380
E0007380
E0007380
E0007F00
E0007F00
E0007E00
E0007C00
E0007800
E0007000
E0007000
E0007000
E0007000
E0007000
E0007000
E0007000
E0007000
E000F000
F800F000
FC01F000
3C07F000
1C07F000
0FFF7000
07F07000
03E06000
ENDCHAR
STARTCHAR $1EF0
ENCODING 7920
SWIDTH 703 0
DWIDTH 30 0
BBX 26 37 3 -3
BITMAP
E0003CC0
E0003C80
E0003E80
E0003F80
E0003F80
E0003F00
E0003E00
E0003C00
E0003C00
E0003C00
E0003C00
E0003C00
E0003C00
E0003C00
E0003C00
E0003C00
E0003C00
E0003C00
E0003C00
E0003C00
E0003C00
E0003800
F0007000
F0007000
F8007000
78007000
7C01E000
3C07C000
1C07C000
0FFF8000
03F80000
01F80000
00000000
00700000
00700000
00700000
00200000
ENDCHAR
STARTCHAR $1EF1
ENCODING 7921
SWIDTH 666 0
DWIDTH 28 0
BBX 25 30 3 -4
BITMAP
E0007380
E0007380
E0007300
E0007F00
E0007F00
E0007F00
E0007E00
E0007C00
E0007000
E0007000
E0007000
E0007000
E0007000
E0007000
E0007000
E0007000
F000F000
F800F000
7C01F000
3E03F000
1FFF7000
0FFE7000
07F07000
03F02000
00000000
00C00000
00C00000
00C00000
00C00000
00C00000
ENDCHAR
STARTCHAR $1EF2
ENCODING 7922
SWIDTH 592 0
DWIDTH 25 0
BBX 25 39 0 5
BITMAP
03C00000
01F00000
00F00000
007E0000
003E0000
00000000
00000000
00000000
F8000F80
78000F00
7C000F00
7C000F00
1C003C00
1C007C00
1E007C00
0F007800
07007000
0780F000
0380C000
0380C000
03C18000
03C78000
01F78000
00F78000
00FF0000
007F0000
003E0000
00180000
00180000
00180000
00180000
00380000
00180000
00180000
00180000
00180000
00180000
00180000
00380000
ENDCHAR
STARTCHAR $1EF3
ENCODING 7923
SWIDTH 518 0
DWIDTH 22 0
BBX 22 41 0 -7
BITMAP
030000
078000
038000
00F000
00F800
007800
000000
000000
000000
F00038
780038
78007C
780078
180070
1C0070
1C0070
1C00C0
1F00C0
0701C0
070380
070780
030780
038F80
038F80
038F00
03CF00
00FE00
00F800
00F800
00F800
007000
007000
007000
00F000
00E000
00C000
00C000
03C000
038000
038000
018000
ENDCHAR
STARTCHAR $1EF4
ENCODING 7924
SWIDTH 592 0
DWIDTH 25 0
BBX 25 39 0 -6
BITMAP
F8000F80
78000F00
78000F00
7C000F00
7C003F00
3C003C00
1F003C00
1F007C00
07007000
0780F000
0380F000
0381F000
03E3C000
03C78000
01C78000
00EF8000
00FF0000
007F0000
003E0000
003C0000
00180000
00180000
00180000
00180000
00380000
00180000
00180000
00180000
00180000
00180000
00180000
00180000
00000000
00000000
00180000
00180000
00180000
00180000
00380000
ENDCHAR
STARTCHAR $1EF5
ENCODING 7925
SWIDTH 518 0
DWIDTH 22 0
BBX 22 32 0 -8
BITMAP
F8003C
78007C
78007C
780078
780070
3C0070
1C00E0
1C00C0
1F00C0
0F0180
070380
070780
038780
038780
038F80
03CF00
03EF00
00F800
00F800
00F800
007800
007800
007000
007000
007000
00E000
00C0C0
01C0C0
03C0C0
0380C0
0380C0
0180C0
ENDCHAR
STARTCHAR $1EF6
ENCODING 7926
SWIDTH 592 0
DWIDTH 25 0
BBX 25 41 0 2
BITMAP
007F0000
00E78000
00C78000
00078000
00078000
000F0000
00180000
00180000
00000000
F0000780
78000780
78000F00
7C003F00
1C003E00
1C003C00
1E003C00
0F007C00
07007000
0780F000
0780E000
0380C000
03C1C000
03C38000
01C78000
00E78000
00FF0000
007F0000
003E0000
001E0000
00180000
00180000
00380000
00180000
00180000
00180000
00180000
00180000
00180000
00380000
00180000
00180000
ENDCHAR
STARTCHAR $1EF7
ENCODING 7927
SWIDTH 518 0
DWIDTH 22 0
BBX 22 41 0 -7
BITMAP
00FF00
008F00
008F00
000E00
000E00
001800
001000
001000
000000
F00038
780038
78007C
780078
180070
1C0070
1C0070
1C00C0
1F00C0
0701C0
070380
070780
030780
038F80
038F80
038F00
03CF00
00FE00
00F800
00F800
00F800
007000
007000
007000
00F000
00E000
00C000
00C000
03C000
038000
038000
018000
ENDCHAR
STARTCHAR $1EF8
ENCODING 7928
SWIDTH 592 0
DWIDTH 25 0
BBX 25 39 0 3
BITMAP
00400000
01F00000
03F1C000
018FC000
0007C000
00030000
00000000
00000000
F8000F80
78000F00
7C000F00
7C000F00
1C003C00
1C007C00
1E007C00
0F007800
07007000
0780F000
0380C000
0380C000
03C18000
03C78000
01F78000
00F78000
00FF0000
007F0000
003E0000
00180000
00180000
00180000
00180000
00380000
00180000
00180000
00180000
00180000
00180000
00180000
00380000
ENDCHAR
STARTCHAR $1EF9
ENCODING 7929
SWIDTH 518 0
DWIDTH 22 0
BBX 22 39 0 -6
BITMAP
008180
01FF80
03FF80
019E00
000E00
000000
000000
000000
F8003C
78007C
780078
780078
1C0070
1C0070
1C0060
1E00C0
0F00C0
0707C0
070780
070780
038780
038F80
038F00
038F00
01EE00
00FE00
00F800
007800
007800
007000
007000
00F000
00F000
00C000
00C000
00C000
038000
038000
038000
ENDCHAR
STARTCHAR $2000
ENCODING 8192
SWIDTH 518 0
DWIDTH 22 0
BBX 0 0 0 0
BITMAP
ENDCHAR
STARTCHAR $2001
ENCODING 8193
SWIDTH 1000 0
DWIDTH 42 0
BBX 0 0 0 0
BITMAP
ENDCHAR
STARTCHAR $2002
ENCODING 8194
SWIDTH 518 0
DWIDTH 22 0
BBX 0 0 0 0
BITMAP
ENDCHAR
STARTCHAR $2003
ENCODING 8195
SWIDTH 1000 0
DWIDTH 42 0
BBX 0 0 0 0
BITMAP
ENDCHAR
STARTCHAR $2004
ENCODING 8196
SWIDTH 333 0
DWIDTH 14 0
BBX 0 0 0 0
BITMAP
ENDCHAR
STARTCHAR $2005
ENCODING 8197
SWIDTH 259 0
DWIDTH 11 0
BBX 0 0 0 0
BITMAP
ENDCHAR
STARTCHAR $2006
ENCODING 8198
SWIDTH 185 0
DWIDTH 8 0
BBX 0 0 0 0
BITMAP
ENDCHAR
STARTCHAR $2007
ENCODING 8199
SWIDTH 555 0
DWIDTH 24 0
BBX 0 0 0 0
BITMAP
ENDCHAR
STARTCHAR $2008
ENCODING 8200
SWIDTH 259 0
DWIDTH 11 0
BBX 0 0 0 0
BITMAP
ENDCHAR
STARTCHAR $2009
ENCODING 8201
SWIDTH 185 0
DWIDTH 8 0
BBX 0 0 0 0
BITMAP
ENDCHAR
STARTCHAR $200A
ENCODING 8202
SWIDTH 111 0
DWIDTH 5 0
BBX 0 0 0 0
BITMAP
ENDCHAR
STARTCHAR $200B
ENCODING 8203
SWIDTH 0 0
DWIDTH 0 0
BBX 0 0 0 0
BITMAP
ENDCHAR
STARTCHAR $200C
ENCODING 8204
SWIDTH 0 0
DWIDTH 0 0
BBX 0 0 0 0
BITMAP
ENDCHAR
STARTCHAR $200D
ENCODING 8205
SWIDTH 0 0
DWIDTH 0 0
BBX 0 0 0 0
BITMAP
ENDCHAR
STARTCHAR $2010
ENCODING 8208
SWIDTH 333 0
DWIDTH 14 0
BBX 10 3 1 11
BITMAP
FFC0
FFC0
FFC0
ENDCHAR
STARTCHAR $2011
ENCODING 8209
SWIDTH 333 0
DWIDTH 14 0
BBX 10 3 1 11
BITMAP
FFC0
FFC0
FFC0
ENDCHAR
STARTCHAR $2012
ENCODING 8210
SWIDTH 592 0
DWIDTH 25 0
BBX 18 3 3 15
BITMAP
FFFFC0
FFFFC0
FFFFC0
ENDCHAR
STARTCHAR $2013
ENCODING 8211
SWIDTH 518 0
DWIDTH 22 0
BBX 20 3 0 11
BITMAP
FFFFF0
FFFFF0
FFFFE0
ENDCHAR
STARTCHAR $2014
ENCODING 8212
SWIDTH 1000 0
DWIDTH 42 0
BBX 42 3 0 11
BITMAP
FFFFFFFFFFC0
FFFFFFFFFFC0
FFFFFFFFFFC0
ENDCHAR
STARTCHAR $2015
ENCODING 8213
SWIDTH 1148 0
DWIDTH 49 0
BBX 42 3 3 11
BITMAP
FFFFFFFFFFC0
FFFFFFFFFFC0
FFFFFFFFFFC0
ENDCHAR
STARTCHAR $2016
ENCODING 8214
SWIDTH 407 0
DWIDTH 18 0
BBX 11 34 3 -5
BITMAP
E0C0
E0C0
E0C0
E0C0
E0C0
E0E0
E0C0
E0E0
E0C0
E0E0
E0C0
E0C0
E0E0
E0C0
E0C0
E0C0
E0C0
E0C0
E0C0
E0E0
E0C0
E0C0
E0C0
E0C0
E0E0
E0C0
E0C0
E0C0
E0C0
E0C0
E0C0
E0E0
E0C0
E0C0
ENDCHAR
STARTCHAR $2017
ENCODING 8215
SWIDTH 444 0
DWIDTH 19 0
BBX 12 9 3 -9
BITMAP
FFF0
FFF0
FFF0
0000
0000
0000
FFF0
FFF0
FFF0
ENDCHAR
STARTCHAR $2018
ENCODING 8216
SWIDTH 333 0
DWIDTH 14 0
BBX 6 8 5 26
BITMAP
E0
E0
E0
70
78
78
3C
1C
ENDCHAR
STARTCHAR $2019
ENCODING 8217
SWIDTH 333 0
DWIDTH 14 0
BBX 6 8 5 26
BITMAP
1C
38
78
78
70
E0
E0
E0
ENDCHAR
STARTCHAR $201A
ENCODING 8218
SWIDTH 370 0
DWIDTH 16 0
BBX 5 8 5 0
BITMAP
78
78
78
78
70
E0
E0
E0
ENDCHAR
STARTCHAR $201C
ENCODING 8220
SWIDTH 518 0
DWIDTH 22 0
BBX 12 8 5 26
BITMAP
E380
E380
E180
70C0
78C0
78E0
3C70
1C70
ENDCHAR
STARTCHAR $201D
ENCODING 8221
SWIDTH 481 0
DWIDTH 21 0
BBX 10 8 5 26
BITMAP
78C0
78C0
78C0
7BC0
7380
E380
E380
E380
ENDCHAR
STARTCHAR $201E
ENCODING 8222
SWIDTH 518 0
DWIDTH 22 0
BBX 10 8 5 0
BITMAP
78C0
78C0
78C0
7BC0
73C0
E3C0
E380
E380
ENDCHAR
STARTCHAR $2020
ENCODING 8224
SWIDTH 555 0
DWIDTH 24 0
BBX 17 36 3 -3
BITMAP
038000
038000
038000
038000
038000
038000
038000
038000
FFFF80
FFFF80
07C800
038000
038000
038000
038000
038000
038000
038000
038000
038000
038000
038000
038000
038000
038000
038000
038000
038000
038000
038000
038000
038000
038000
038000
038000
018000
ENDCHAR
STARTCHAR $2021
ENCODING 8225
SWIDTH 555 0
DWIDTH 24 0
BBX 17 37 3 -3
BITMAP
038000
038000
038000
038000
038000
038000
038000
038000
FFFF80
FFFF80
07C800
038000
038000
FFFF00
FFFF00
FFFF80
FFFF80
038000
038000
038000
038000
038000
038000
038000
038000
038000
038000
038000
038000
038000
038000
038000
038000
038000
038000
038000
018000
ENDCHAR
STARTCHAR $2022
ENCODING 8226
SWIDTH 518 0
DWIDTH 22 0
BBX 16 16 3 5
BITMAP
0380
0FF0
1FF0
3FF8
7FFE
FFFE
FFFF
FFFF
FFFF
FFFF
7FFE
7FFE
7FF8
0FF0
0FF0
03C0
ENDCHAR
STARTCHAR $2026
ENCODING 8230
SWIDTH 814 0
DWIDTH 35 0
BBX 29 5 3 1
BITMAP
E00F0078
E00F0078
E00F0078
E00E0078
E0060060
ENDCHAR
STARTCHAR $202F
ENCODING 8239
SWIDTH 185 0
DWIDTH 8 0
BBX 0 0 0 0
BITMAP
ENDCHAR
STARTCHAR $2030
ENCODING 8240
SWIDTH 1185 0
DWIDTH 50 0
BBX 48 32 0 0
BITMAP
07C003800000
0FF807000000
1FF807000000
38180F000000
700E0F000000
E00E1C000000
E00F3C000000
E00F3C000000
E00F70000000
701E70000000
3D7C70000000
1FF870000000
0FF0C0000000
0000C0000000
0000C0000000
0001C0000000
000180000000
000783F807E0
000F3FFC0FFE
000F3FFC1FFE
000F7C3C3C1F
000E781F3807
001C700F3807
001870073007
003870073007
007070073807
0070780F381F
00707C1C1C1F
00707E3C0C1E
00703FF80FFC
00E007E003E0
00C007E003E0
ENDCHAR
ENDFONT
